<svg width="21" height="21" viewBox="0 0 21 21" fill="none" xmlns="http://www.w3.org/2000/svg">
<path d="M18.6872 0H2.31278C1.03747 0 0 1.14471 0 2.55196V18.448C0 19.8552 1.03743 21 2.31278 21H18.6872C19.9625 21 21 19.8553 21 18.448V2.55196C21 1.14495 19.9626 0 18.6872 0ZM2.31278 1.02077H18.6872C19.4524 1.02077 20.0749 1.70762 20.0749 2.55191V5.02034H0.925315V2.55191C0.925315 1.70757 1.54779 1.02077 2.31295 1.02077H2.31278ZM18.6872 19.9794H2.31278C1.54758 19.9794 0.925146 19.2926 0.925146 18.4483V6.04126H20.0747V18.4483C20.0747 19.2928 19.4522 19.9796 18.687 19.9796L18.6872 19.9794Z" fill="white"/>
<path d="M14.8706 11.4364L12.2116 11.0391L11.0195 8.62441C10.9415 8.46648 10.7808 8.3667 10.6047 8.3667C10.4286 8.3667 10.2678 8.46664 10.1899 8.62441L8.99778 11.0391L6.33877 11.4364C6.16465 11.4625 6.02044 11.5849 5.96674 11.7526C5.91289 11.9201 5.95898 12.1038 6.08536 12.2262L8.00843 14.0883L7.55034 16.7457C7.52044 16.9193 7.59164 17.0947 7.73404 17.1983C7.87644 17.3019 8.06542 17.3157 8.22135 17.2336L10.6045 15.981L12.9877 17.2336C13.0554 17.2693 13.1292 17.2867 13.2029 17.2867C13.2989 17.2867 13.3944 17.2568 13.475 17.1983C13.6174 17.0947 13.6888 16.9191 13.6587 16.7457L13.2006 14.0883L15.1237 12.2262C15.2502 12.1038 15.2961 11.9203 15.2423 11.7526C15.1889 11.5851 15.0445 11.4625 14.8706 11.4364L14.8706 11.4364ZM12.3817 13.5937C12.2718 13.7001 12.2216 13.8539 12.2477 14.0047L12.588 15.9784L10.8201 15.0491C10.7527 15.0138 10.6788 14.9961 10.6048 14.9961C10.531 14.9961 10.457 15.0138 10.3896 15.0491L8.62163 15.9784L8.96194 14.0047C8.98787 13.8541 8.93782 13.7003 8.82796 13.5937L7.40197 12.213L9.3741 11.9183C9.52393 11.8958 9.65345 11.8015 9.72052 11.6656L10.605 9.87401L11.4894 11.6656C11.5565 11.8015 11.686 11.8958 11.8359 11.9183L13.808 12.213L12.3817 13.5937Z" fill="white"/>
</svg>
