<svg width="37" height="36" viewBox="0 0 37 36" fill="none" xmlns="http://www.w3.org/2000/svg">
<path d="M18.5 1.5C9.38594 1.5 2 8.88594 2 18C2 27.1141 9.38594 34.5 18.5 34.5C27.6141 34.5 35 27.1141 35 18C35 8.88594 27.6141 1.5 18.5 1.5ZM18.5 32.9288C10.25 32.9288 3.5712 26.2501 3.5712 18C3.5712 9.74987 10.2499 3.0712 18.5 3.0712C26.7501 3.0712 33.4288 9.74987 33.4288 18C33.4288 26.2501 26.7501 32.9288 18.5 32.9288Z" fill="#808080"/>
<path d="M25.1783 17.2141H19.2854V11.3212C19.2854 10.889 18.9319 10.5354 18.4996 10.5354C18.0674 10.5354 17.7138 10.889 17.7138 11.3212V17.2141H11.821C11.3887 17.2141 11.0352 17.5676 11.0352 17.9999C11.0352 18.4321 11.3887 18.7857 11.821 18.7857H17.7138V24.6785C17.7138 25.1108 18.0674 25.4643 18.4996 25.4643C18.9319 25.4643 19.2854 25.1108 19.2854 24.6785V18.7857H25.1783C25.6105 18.7857 25.9641 18.4321 25.9641 17.9999C25.9638 17.5676 25.6103 17.2141 25.1783 17.2141Z" fill="#808080"/>
</svg>
