<svg width="18" height="18" viewBox="0 0 18 18" fill="none" xmlns="http://www.w3.org/2000/svg">
<path d="M9 0.750256C6.81193 0.750256 4.71359 1.61936 3.16635 3.1666C1.6191 4.71385 0.75 6.81215 0.75 9.00026C0.75 11.1884 1.6191 13.2867 3.16635 14.8339C4.71359 16.3812 6.8119 17.2503 9 17.2503C11.1881 17.2503 13.2864 16.3812 14.8337 14.8339C16.3809 13.2867 17.25 11.1884 17.25 9.00026C17.2479 6.81289 16.378 4.7156 14.8313 3.16871C13.2845 1.62202 11.1872 0.75208 8.99979 0.750046L9 0.750256ZM9 16.4647C7.02033 16.4647 5.12154 15.6782 3.72197 14.2785C2.3224 12.8787 1.53569 10.98 1.53569 9.00043C1.53569 7.02086 2.32219 5.12197 3.72197 3.7224C5.12175 2.32283 7.02043 1.53612 9 1.53612C10.9796 1.53612 12.8785 2.32262 14.278 3.7224C15.6776 5.12218 16.4643 7.02086 16.4643 9.00043C16.4623 10.9794 15.6751 12.8768 14.2757 14.2764C12.8763 15.6759 10.9789 16.4629 8.99976 16.465L9 16.4647Z" fill="black"/>
<path d="M12.1119 6.28958L7.52315 10.8784L5.88891 9.24411C5.81506 9.16971 5.71476 9.12792 5.60994 9.12792C5.50526 9.12792 5.40482 9.16971 5.33097 9.24411C5.18134 9.39689 5.18134 9.64133 5.33097 9.79412L7.24814 11.7505C7.32117 11.8238 7.41968 11.8661 7.52313 11.8684C7.63412 11.8689 7.74099 11.8267 7.8217 11.7505L12.6855 6.88669C12.8396 6.73269 12.8396 6.48289 12.6855 6.3289C12.5315 6.17489 12.2817 6.17489 12.1277 6.3289L12.1119 6.28958Z" fill="black"/>
</svg>
