<svg width="12" height="12" viewBox="0 0 12 12" fill="none" xmlns="http://www.w3.org/2000/svg">
<path d="M11.4077 8.9014C11.4663 8.84328 11.4995 8.76422 11.5 8.68156C11.5008 8.59875 11.4674 8.51916 11.4077 8.46173L6.22344 3.2777C6.1654 3.21889 6.08627 3.18577 6.00361 3.18577C5.92096 3.18577 5.84182 3.21889 5.78378 3.2777L0.598573 8.46173C0.537001 8.51932 0.501422 8.59945 0.500042 8.68372C0.498662 8.76807 0.531481 8.84927 0.591136 8.90894C0.650716 8.96852 0.731995 9.00141 0.81627 8.99995C0.90054 8.99857 0.980669 8.96299 1.03826 8.90142L6.00361 3.93725L10.9678 8.90142C11.026 8.96001 11.1051 8.9929 11.1877 8.9929C11.2702 8.9929 11.3493 8.96001 11.4075 8.90142L11.4077 8.9014Z" fill="#101010"/>
</svg>
