<svg width="24" height="24" viewBox="0 0 24 24" fill="none" xmlns="http://www.w3.org/2000/svg">
<path d="M6.1972 22.8153C6.31345 22.9326 6.47156 22.9991 6.63687 23C6.8025 23.0015 6.96168 22.9348 7.07654 22.8153L17.4446 12.4469C17.5622 12.3308 17.6285 12.1725 17.6285 12.0072C17.6285 11.8419 17.5622 11.6836 17.4446 11.5676L7.07654 1.19715C6.96137 1.074 6.80111 1.00284 6.63255 1.00008C6.46386 0.997323 6.30145 1.06296 6.18213 1.18227C6.06297 1.30143 5.99718 1.46399 6.00009 1.63254C6.00285 1.80108 6.07401 1.96134 6.19716 2.07653L16.1255 12.0072L6.19716 21.9356C6.07999 22.052 6.0142 22.2102 6.0142 22.3754C6.0142 22.5404 6.07999 22.6987 6.19716 22.8151L6.1972 22.8153Z" fill="#101010"/>
</svg>
