<svg width="12" height="12" viewBox="0 0 12 12" fill="none" xmlns="http://www.w3.org/2000/svg">
<path d="M3.0986 11.4077C3.15672 11.4663 3.23578 11.4995 3.31844 11.5C3.40125 11.5008 3.48084 11.4674 3.53827 11.4077L8.7223 6.22344C8.78111 6.1654 8.81423 6.08627 8.81423 6.00361C8.81423 5.92096 8.78111 5.84182 8.7223 5.78378L3.53827 0.598573C3.48068 0.537001 3.40055 0.501422 3.31628 0.500042C3.23193 0.498662 3.15073 0.531481 3.09106 0.591136C3.03148 0.650716 2.99859 0.731995 3.00005 0.81627C3.00143 0.90054 3.03701 0.980669 3.09858 1.03826L8.06275 6.00361L3.09858 10.9678C3.03999 11.026 3.0071 11.1051 3.0071 11.1877C3.0071 11.2702 3.03999 11.3493 3.09858 11.4075L3.0986 11.4077Z" fill="#101010"/>
</svg>
