<svg width="14" height="15" viewBox="0 0 14 15" fill="none" xmlns="http://www.w3.org/2000/svg">
<path d="M10.1682 1.19105C10.1004 1.12261 10.0082 1.08388 9.91176 1.08334C9.81514 1.08245 9.72228 1.12136 9.65528 1.19105L3.60725 7.2393C3.53864 7.30702 3.49999 7.39935 3.49999 7.49578C3.49999 7.59221 3.53864 7.68454 3.60725 7.75225L9.65528 13.8017C9.72247 13.8735 9.81595 13.915 9.91428 13.9166C10.0127 13.9182 10.1074 13.8799 10.177 13.8103C10.2465 13.7408 10.2849 13.646 10.2832 13.5477C10.2816 13.4494 10.2401 13.3559 10.1683 13.2887L4.37672 7.49578L10.1683 1.70424C10.2366 1.63634 10.275 1.54402 10.275 1.44768C10.275 1.35142 10.2366 1.2591 10.1683 1.19121L10.1682 1.19105Z" fill="#101010"/>
</svg>
