<svg width="10" height="10" viewBox="0 0 10 10" fill="none" xmlns="http://www.w3.org/2000/svg">
<path d="M0.49353 2.58217C0.444647 2.6306 0.416979 2.69648 0.416595 2.76536C0.415956 2.83437 0.443754 2.9007 0.49353 2.94856L4.81371 7.26858C4.86209 7.31759 4.92803 7.34519 4.99691 7.34519C5.06579 7.34519 5.13174 7.31759 5.1801 7.26858L9.50111 2.94856C9.55242 2.90057 9.58207 2.8338 9.58322 2.76356C9.58437 2.69327 9.55702 2.62561 9.50731 2.57589C9.45766 2.52624 9.38992 2.49882 9.31969 2.50004C9.24947 2.50119 9.18269 2.53084 9.1347 2.58215L4.99691 6.71896L0.860098 2.58215C0.811599 2.53333 0.745654 2.50592 0.676837 2.50592C0.608083 2.50592 0.542138 2.53333 0.493643 2.58215L0.49353 2.58217Z" fill="#EB0A1E"/>
</svg>
