<svg width="14" height="8" viewBox="0 0 14 8" fill="none" xmlns="http://www.w3.org/2000/svg">
<path d="M13.3086 7.38498C13.3771 7.31717 13.4158 7.22494 13.4163 7.12851C13.4172 7.03189 13.3783 6.93904 13.3086 6.87203L7.26036 0.824004C7.19264 0.755389 7.10032 0.716744 7.00389 0.716744C6.90746 0.716744 6.81513 0.755389 6.74741 0.824004L0.69801 6.87203C0.626175 6.93922 0.584667 7.0327 0.583057 7.13103C0.581446 7.22943 0.619735 7.32417 0.689333 7.39377C0.758843 7.46328 0.853669 7.50166 0.951989 7.49996C1.0503 7.49835 1.14379 7.45684 1.21098 7.38501L7.00389 1.59347L12.7954 7.38501C12.8633 7.45335 12.9556 7.49173 13.052 7.49173C13.1482 7.49173 13.2406 7.45335 13.3085 7.38501L13.3086 7.38498Z" fill="#CCCCCC"/>
</svg>
