<svg width="10" height="10" viewBox="0 0 10 10" fill="none" xmlns="http://www.w3.org/2000/svg">
<path d="M9.50647 7.41783C9.55535 7.3694 9.58302 7.30352 9.5834 7.23464C9.58404 7.16563 9.55625 7.0993 9.50647 7.05144L5.18629 2.73142C5.13791 2.68241 5.07197 2.65481 5.00309 2.65481C4.93421 2.65481 4.86826 2.68241 4.8199 2.73142L0.498893 7.05144C0.447582 7.09943 0.417933 7.1662 0.416783 7.23644C0.415633 7.30673 0.442982 7.37439 0.492694 7.42411C0.542345 7.47376 0.610077 7.50118 0.680306 7.49996C0.750531 7.49881 0.817305 7.46916 0.8653 7.41785L5.00309 3.28104L9.1399 7.41785C9.1884 7.46667 9.25435 7.49408 9.32316 7.49408C9.39192 7.49408 9.45786 7.46667 9.50636 7.41785L9.50647 7.41783Z" fill="#101010"/>
</svg>
