<svg width="24" height="24" viewBox="0 0 24 24" fill="none" xmlns="http://www.w3.org/2000/svg">
<path d="M1.18467 6.1972C1.06735 6.31345 1.00095 6.47156 1.00003 6.63687C0.998493 6.8025 1.06521 6.96168 1.18467 7.07654L11.5531 17.4446C11.6692 17.5622 11.8275 17.6285 11.9928 17.6285C12.1581 17.6285 12.3164 17.5622 12.4324 17.4446L22.8029 7.07654C22.926 6.96137 22.9972 6.80111 22.9999 6.63255C23.0027 6.46386 22.937 6.30145 22.8177 6.18213C22.6986 6.06297 22.536 5.99718 22.3675 6.00009C22.1989 6.00285 22.0387 6.07401 21.9235 6.19716L11.9928 16.1255L2.06443 6.19716C1.94803 6.07999 1.78977 6.0142 1.62461 6.0142C1.45959 6.0142 1.30133 6.07999 1.18494 6.19716L1.18467 6.1972Z" fill="#101010"/>
</svg>
