<svg width="13" height="13" viewBox="0 0 13 13" fill="none" xmlns="http://www.w3.org/2000/svg">
<path d="M3.35682 12.3583C3.41978 12.4219 3.50543 12.4578 3.59497 12.4583C3.68469 12.4592 3.77091 12.423 3.83312 12.3583L9.44915 6.74208C9.51287 6.6792 9.54875 6.59347 9.54875 6.50393C9.54875 6.41439 9.51287 6.32866 9.44915 6.26578L3.83312 0.648475C3.77074 0.581771 3.68393 0.543227 3.59263 0.541732C3.50126 0.540237 3.41329 0.575791 3.34865 0.640417C3.28411 0.704963 3.24847 0.793015 3.25005 0.884312C3.25155 0.975605 3.29009 1.06241 3.35679 1.1248L8.73465 6.50393L3.35679 11.8818C3.29333 11.9448 3.25769 12.0306 3.25769 12.12C3.25769 12.2094 3.29333 12.2951 3.35679 12.3582L3.35682 12.3583Z" fill="#101010"/>
</svg>
