<svg width="20" height="20" viewBox="0 0 20 20" fill="none" xmlns="http://www.w3.org/2000/svg">
<path d="M9.99919 6.87066C7.76931 6.87066 5.95524 8.68476 5.95524 10.9146C5.95524 13.1443 7.76935 14.9585 9.99919 14.9585C12.229 14.9585 14.0431 13.1444 14.0431 10.9146C14.0431 8.68486 12.229 6.87066 9.99919 6.87066ZM9.99919 14.0853C8.25087 14.0853 6.82837 12.6628 6.82837 10.9145C6.82837 9.16615 8.25087 7.74365 9.99919 7.74365C11.7475 7.74365 13.17 9.16615 13.17 10.9145C13.17 12.6628 11.7475 14.0853 9.99919 14.0853ZM17.7222 4.68227H14.0435L13.0209 2.73379C12.9455 2.59006 12.7966 2.5 12.6344 2.5L7.36448 2.50013C7.20216 2.50013 7.05343 2.59006 6.97801 2.73392L5.95545 4.6824L2.27674 4.68227C1.48058 4.68227 0.833008 5.32998 0.833008 6.12624V16.4818C0.833008 17.278 1.48071 17.9258 2.27674 17.9258H17.7224C18.5185 17.9258 19.1663 17.2781 19.1663 16.4818L19.1662 6.1259C19.1662 5.3296 18.5186 4.68207 17.7225 4.68207L17.7222 4.68227ZM18.2928 16.4816C18.2928 16.7962 18.0369 17.0524 17.722 17.0524H2.2764C1.96179 17.0524 1.70559 16.7962 1.70559 16.4816V6.126C1.70559 5.81113 1.96153 5.55519 2.2764 5.55519H6.21908C6.3814 5.55519 6.53013 5.46527 6.60555 5.32141L7.62811 3.37292H12.3705L13.393 5.32141C13.4684 5.46513 13.6173 5.55519 13.7795 5.55519H17.7222C18.0368 5.55519 18.293 5.81113 18.293 6.126L18.2931 16.4816H18.2928ZM5.11189 7.08973C5.11189 7.33077 4.91661 7.52633 4.67529 7.52633H3.31453C3.07349 7.52633 2.87793 7.33078 2.87793 7.08973C2.87793 6.84868 3.07322 6.65313 3.31453 6.65313H4.67529C4.91633 6.65313 5.11189 6.84842 5.11189 7.08973Z" fill="#101010"/>
</svg>
