<svg width="30" height="30" viewBox="0 0 30 30" fill="none" xmlns="http://www.w3.org/2000/svg">
<path d="M14.9993 10.306C11.6545 10.306 8.93335 13.0271 8.93335 16.3719C8.93335 19.7165 11.6545 22.4378 14.9993 22.4378C18.344 22.4378 21.0652 19.7166 21.0652 16.3719C21.0652 13.0273 18.344 10.306 14.9993 10.306ZM14.9993 21.1279C12.3768 21.1279 10.243 18.9941 10.243 16.3717C10.243 13.7492 12.3768 11.6154 14.9993 11.6154C17.6217 11.6154 19.7555 13.7492 19.7555 16.3717C19.7555 18.9941 17.6217 21.1279 14.9993 21.1279ZM26.5837 7.02337H21.0657L19.5318 4.10065C19.4187 3.88506 19.1954 3.74997 18.9521 3.74997L11.0472 3.75017C10.8037 3.75017 10.5806 3.88506 10.4675 4.10085L8.93366 7.02357L3.4156 7.02337C2.22136 7.02337 1.25 7.99493 1.25 9.18933V24.7227C1.25 25.917 2.22156 26.8887 3.4156 26.8887H26.584C27.7783 26.8887 28.75 25.9171 28.75 24.7227L28.7498 9.18882C28.7498 7.99438 27.7784 7.02307 26.5842 7.02307L26.5837 7.02337ZM27.4398 24.7224C27.4398 25.1943 27.0558 25.5786 26.5835 25.5786H3.4151C2.94317 25.5786 2.55888 25.1943 2.55888 24.7224V9.18898C2.55888 8.71666 2.94278 8.33276 3.4151 8.33276H9.32911C9.57258 8.33276 9.79569 8.19787 9.90881 7.98208L11.4427 5.05936H18.5562L20.09 7.98208C20.2032 8.19767 20.4265 8.33276 20.6697 8.33276H26.5837C27.0557 8.33276 27.44 8.71667 27.44 9.18898L27.4402 24.7224H27.4398ZM7.66832 10.6346C7.66832 10.9961 7.3754 11.2895 7.01343 11.2895H4.97228C4.61073 11.2895 4.31739 10.9961 4.31739 10.6346C4.31739 10.273 4.61031 9.97967 4.97228 9.97967H7.01343C7.37498 9.97967 7.66832 10.2726 7.66832 10.6346Z" fill="white"/>
</svg>
