<svg width="24" height="20" viewBox="0 0 24 20" fill="none" xmlns="http://www.w3.org/2000/svg">
<path d="M20.3705 12.5802L22.4153 4.46641H5.78261L7.82735 12.5802H20.3705ZM17.6808 14.6607C18.3777 14.6607 19.0089 14.9455 19.4656 15.4061C19.9225 15.8667 20.2051 16.5028 20.2051 17.2053C20.2051 17.9079 19.9225 18.5442 19.4656 19.0046C19.0087 19.4651 18.3777 19.75 17.6808 19.75C16.9839 19.75 16.3527 19.4651 15.896 19.0046C15.4391 18.544 15.1565 17.9079 15.1565 17.2053C15.1565 16.5028 15.4391 15.8665 15.896 15.4061C16.3529 14.9455 16.9839 14.6607 17.6808 14.6607ZM18.6055 16.2732C18.369 16.0348 18.0417 15.8873 17.6808 15.8873C17.3199 15.8873 16.9926 16.0348 16.7561 16.2732C16.5197 16.5115 16.3733 16.8407 16.3733 17.2053C16.3733 17.5691 16.5197 17.8991 16.7561 18.1375C16.9926 18.3758 17.3199 18.5234 17.6808 18.5234C18.0417 18.5234 18.369 18.3758 18.6055 18.1375C18.8419 17.8991 18.9883 17.5691 18.9883 17.2053C18.9883 16.8416 18.8419 16.5116 18.6055 16.2732ZM10.5166 14.6607C11.2135 14.6607 11.8447 14.9455 12.3014 15.4061C12.7583 15.8667 13.0409 16.5028 13.0409 17.2053C13.0409 17.9079 12.7583 18.5442 12.3014 19.0046C11.8446 19.4651 11.2135 19.75 10.5166 19.75C9.81972 19.75 9.1885 19.4651 8.73181 19.0046C8.27494 18.544 7.99234 17.9079 7.99234 17.2053C7.99234 16.5028 8.27491 15.8665 8.73181 15.4061C9.18867 14.9455 9.81972 14.6607 10.5166 14.6607ZM11.4413 16.2732C11.2048 16.0348 10.8775 15.8873 10.5166 15.8873C10.1557 15.8873 9.82839 16.0348 9.59194 16.2732C9.3555 16.5115 9.2091 16.8407 9.2091 17.2053C9.2091 17.5691 9.3555 17.8991 9.59194 18.1375C9.82838 18.3758 10.1557 18.5234 10.5166 18.5234C10.8775 18.5234 11.2048 18.3758 11.4413 18.1375C11.6777 17.8991 11.8241 17.5691 11.8241 17.2053C11.8241 16.8416 11.6777 16.5116 11.4413 16.2732ZM4.37649 3.98213L3.64657 1.4766H0.608386C0.272364 1.4766 0 1.20204 0 0.863301C0 0.52456 0.27236 0.25 0.608386 0.25H4.10056V0.251544C4.36338 0.251544 4.60493 0.424175 4.68254 0.690669L5.42488 3.23977H23.2263V3.24132C23.2833 3.24132 23.3405 3.24938 23.3976 3.26637C23.7189 3.36161 23.9034 3.70172 23.8083 4.02587L21.4187 13.3236C21.3594 13.5997 21.1164 13.807 20.8242 13.807H7.37404V13.8054C7.11121 13.8054 6.86967 13.6328 6.79206 13.3663L4.40244 4.0686C4.39223 4.04132 4.38338 4.01249 4.37759 3.98229L4.37649 3.98213Z" fill="#232323"/>
</svg>
