<svg width="22" height="17" viewBox="0 0 22 17" fill="none" xmlns="http://www.w3.org/2000/svg">
<path d="M18.8036 10.2905L20.691 3.86088H5.33779L7.22525 10.2905H18.8036ZM16.3207 12.1955C16.964 12.1955 17.5467 12.4564 17.9683 12.8781C18.39 13.2998 18.6508 13.8824 18.6508 14.5256C18.6508 15.1689 18.39 15.7516 17.9683 16.1732C17.5465 16.5949 16.964 16.8557 16.3207 16.8557C15.6775 16.8557 15.0948 16.5949 14.6732 16.1732C14.2515 15.7514 13.9906 15.1689 13.9906 14.5256C13.9906 13.8824 14.2515 13.2997 14.6732 12.8781C15.095 12.4564 15.6775 12.1955 16.3207 12.1955ZM17.1743 13.6721C16.956 13.4538 16.6538 13.3187 16.3207 13.3187C15.9876 13.3187 15.6855 13.4538 15.4672 13.6721C15.2489 13.8904 15.1138 14.1917 15.1138 14.5256C15.1138 14.8588 15.2489 15.1609 15.4672 15.3792C15.6855 15.5974 15.9876 15.7326 16.3207 15.7326C16.6538 15.7326 16.956 15.5974 17.1743 15.3792C17.3925 15.1609 17.5277 14.8587 17.5277 14.5256C17.5277 14.1925 17.3925 13.8904 17.1743 13.6721ZM9.70764 12.1955C10.3509 12.1955 10.9336 12.4564 11.3552 12.8781C11.7769 13.2998 12.0377 13.8824 12.0377 14.5256C12.0377 15.1689 11.7769 15.7516 11.3552 16.1732C10.9334 16.5949 10.3509 16.8557 9.70764 16.8557C9.06436 16.8557 8.48169 16.5949 8.06013 16.1732C7.63841 15.7514 7.37754 15.1689 7.37754 14.5256C7.37754 13.8824 7.63838 13.2997 8.06013 12.8781C8.48185 12.4564 9.06436 12.1955 9.70764 12.1955ZM10.5612 13.6721C10.3429 13.4538 10.0407 13.3187 9.70764 13.3187C9.37453 13.3187 9.07236 13.4538 8.8541 13.6721C8.63584 13.8904 8.50071 14.1917 8.50071 14.5256C8.50071 14.8588 8.63584 15.1609 8.8541 15.3792C9.07235 15.5974 9.37453 15.7326 9.70764 15.7326C10.0407 15.7326 10.3429 15.5974 10.5612 15.3792C10.7794 15.1609 10.9146 14.8587 10.9146 14.5256C10.9146 14.1925 10.7794 13.8904 10.5612 13.6721ZM4.03984 3.41743L3.36606 1.12317H0.561587C0.251413 1.12317 0 0.871765 0 0.561587C0 0.251409 0.251409 0 0.561587 0H3.78513V0.00141417C4.02774 0.00141417 4.2507 0.159488 4.32234 0.403512L5.00758 2.73767H21.4397V2.73909C21.4923 2.73909 21.5451 2.74647 21.5977 2.76203C21.8944 2.84924 22.0647 3.16067 21.9769 3.45748L19.7711 10.9712C19.7164 11.224 19.492 11.4138 19.2224 11.4138H6.80681V11.4124C6.5642 11.4124 6.34124 11.2543 6.26959 11.0103L4.06379 3.49661C4.05437 3.47163 4.04619 3.44523 4.04085 3.41758L4.03984 3.41743Z" fill="white"/>
</svg>
