<svg width="18" height="18" viewBox="0 0 18 18" fill="none" xmlns="http://www.w3.org/2000/svg">
<path fill-rule="evenodd" clip-rule="evenodd" d="M10.5843 9L16.9218 2.66255C17.3594 2.22493 17.3594 1.51563 16.9218 1.07822C16.4844 0.640595 15.7751 0.640595 15.3374 1.07822L9 7.41566L2.66255 1.07822C2.22493 0.640595 1.51563 0.640595 1.07822 1.07822C0.640595 1.51564 0.640595 2.22494 1.07822 2.66255L7.41566 9L1.07822 15.3374C0.640595 15.7751 0.640595 16.4844 1.07822 16.9218C1.51564 17.3594 2.22494 17.3594 2.66255 16.9218L9 10.5843L15.3374 16.9218C15.7751 17.3594 16.4844 17.3594 16.9218 16.9218C17.3594 16.4844 17.3594 15.7751 16.9218 15.3374L10.5843 9Z" fill="#232323"/>
</svg>
