<svg width="12" height="12" viewBox="0 0 12 12" fill="none" xmlns="http://www.w3.org/2000/svg">
<path fill-rule="evenodd" clip-rule="evenodd" d="M7.05623 6L11.2812 1.77503C11.5729 1.48329 11.5729 1.01042 11.2812 0.71881C10.9896 0.427063 10.5167 0.427063 10.225 0.71881L6 4.94377L1.77504 0.71881C1.48329 0.427063 1.01042 0.427063 0.71881 0.71881C0.427063 1.01043 0.427063 1.48329 0.71881 1.77503L4.94378 6L0.71881 10.225C0.427063 10.5167 0.427063 10.9896 0.71881 11.2812C1.01043 11.5729 1.48329 11.5729 1.77504 11.2812L6 7.05622L10.225 11.2812C10.5167 11.5729 10.9896 11.5729 11.2812 11.2812C11.5729 10.9896 11.5729 10.5167 11.2812 10.225L7.05623 6Z" fill="#101010"/>
</svg>
