<svg width="26" height="26" viewBox="0 0 26 26" fill="none" xmlns="http://www.w3.org/2000/svg">
<path d="M21.4982 7.84888H15.5535H6.06787H3.8802C4.07268 8.04135 4.27106 8.23973 4.46353 8.4322V3.46172V2.74999C4.27105 2.94247 4.07267 3.14085 3.8802 3.33332H9.82493H19.3106H21.4982C21.3057 3.14084 21.1074 2.94246 20.9149 2.74999V7.72048V8.4322C20.9149 9.18481 22.0815 9.18481 22.0815 8.4322V3.46172V2.74999C22.0815 2.43503 21.8132 2.16667 21.4982 2.16667H15.5535H6.06787H3.8802C3.56523 2.16667 3.29688 2.43504 3.29688 2.74999V7.72048V8.4322C3.29688 8.74717 3.56524 9.01553 3.8802 9.01553H9.82493H19.3106H21.4982C22.2506 9.01553 22.2506 7.84888 21.4982 7.84888Z" fill="#232323"/>
<path d="M21.5387 22.6668H15.5533H6.01511H3.83333L4.41665 23.2501V19.1316V12.5686V11.0635C4.22417 11.256 4.02579 11.4544 3.83333 11.6468H9.81868H19.3569H21.5387C21.3462 11.4543 21.1478 11.256 20.9554 11.0635V15.182V21.7451V23.2501C20.9554 24.0027 22.122 24.0027 22.122 23.2501V19.1316V12.5686V11.0635C22.122 10.7485 21.8537 10.4802 21.5387 10.4802H15.5533H6.01511H3.83333C3.51836 10.4802 3.25 10.7485 3.25 11.0635V15.182V21.7451V23.2501C3.25 23.5651 3.51837 23.8334 3.83333 23.8334H9.81868H19.3569H21.5387C22.2913 23.8336 22.2913 22.6668 21.5387 22.6668Z" fill="#232323"/>
<path d="M12.1055 11.133V15.205V21.692V23.1738C12.1055 23.9264 13.2721 23.9264 13.2721 23.1738V19.1018V12.6149V11.133C13.2721 10.3863 12.1055 10.3863 12.1055 11.133Z" fill="#232323"/>
</svg>
