<svg width="16" height="17" viewBox="0 0 16 17" fill="none" xmlns="http://www.w3.org/2000/svg">
<path d="M8 2.5C6.81331 2.5 5.65328 2.85189 4.66658 3.51118C3.67989 4.17047 2.91085 5.10754 2.45673 6.2039C2.0026 7.30025 1.88378 8.50665 2.11529 9.67054C2.3468 10.8344 2.91825 11.9035 3.75736 12.7426C4.59648 13.5818 5.66557 14.1532 6.82946 14.3847C7.99335 14.6162 9.19975 14.4974 10.2961 14.0433C11.3925 13.5891 12.3295 12.8201 12.9888 11.8334C13.6481 10.8467 14 9.68669 14 8.5C13.9954 6.91012 13.3617 5.38669 12.2375 4.26247C11.1133 3.13825 9.58988 2.50463 8 2.5Z" fill="#808080"/>
<path fill-rule="evenodd" clip-rule="evenodd" d="M8.64011 8.50033L11.2007 5.93974C11.3775 5.76292 11.3775 5.47634 11.2007 5.2996C11.024 5.12279 10.7374 5.12279 10.5606 5.2996L7.99997 7.86019L5.43939 5.2996C5.26257 5.12279 4.97598 5.12279 4.79925 5.2996C4.62243 5.47634 4.62243 5.76293 4.79925 5.93974L7.35983 8.50033L4.79925 11.0609C4.62243 11.2377 4.62243 11.5243 4.79925 11.701C4.97599 11.8779 5.26257 11.8779 5.43939 11.701L7.99997 9.14046L10.5606 11.701C10.7374 11.8779 11.024 11.8779 11.2007 11.701C11.3775 11.5243 11.3775 11.2377 11.2007 11.0609L8.64011 8.50033Z" fill="white"/>
</svg>
