<svg width="22" height="22" viewBox="0 0 22 22" fill="none" xmlns="http://www.w3.org/2000/svg">
<path d="M11 2.75C9.36831 2.75 7.77325 3.23385 6.41655 4.14038C5.05984 5.0469 4.00242 6.33537 3.378 7.84286C2.75357 9.35035 2.5902 11.0092 2.90853 12.6095C3.22685 14.2098 4.01259 15.6798 5.16637 16.8336C6.32016 17.9874 7.79016 18.7731 9.39051 19.0915C10.9909 19.4098 12.6496 19.2464 14.1571 18.622C15.6646 17.9976 16.9531 16.9402 17.8596 15.5835C18.7661 14.2267 19.25 12.6317 19.25 11C19.2436 8.81392 18.3724 6.71919 16.8266 5.1734C15.2808 3.6276 13.1861 2.75636 11 2.75Z" fill="#EB0A1E"/>
<path fill-rule="evenodd" clip-rule="evenodd" d="M11.8805 10.9998L15.4013 7.47903C15.6444 7.23591 15.6444 6.84185 15.4013 6.59885C15.1583 6.35572 14.7642 6.35572 14.5211 6.59885L11.0003 10.1196L7.47952 6.59885C7.2364 6.35572 6.84234 6.35572 6.59933 6.59885C6.35621 6.84186 6.35621 7.23591 6.59933 7.47903L10.1201 10.9998L6.59933 14.5206C6.35621 14.7638 6.35621 15.1578 6.59933 15.4008C6.84235 15.644 7.2364 15.644 7.47952 15.4008L11.0003 11.88L14.5211 15.4008C14.7643 15.644 15.1583 15.644 15.4013 15.4008C15.6444 15.1578 15.6444 14.7638 15.4013 14.5206L11.8805 10.9998Z" fill="white"/>
</svg>
