<svg width="13" height="13" viewBox="0 0 13 13" fill="none" xmlns="http://www.w3.org/2000/svg">
<path d="M7.54447 0.541692H5.72158C5.49175 0.541692 5.2713 0.632979 5.10877 0.795497C4.94625 0.958018 4.85486 1.17848 4.85486 1.40841V1.92549H1.91386C1.75437 1.92549 1.625 2.05486 1.625 2.21436V4.52552C1.625 4.6021 1.65543 4.67555 1.70963 4.72976C1.76384 4.78397 1.83729 4.81439 1.91387 4.81439H2.83831V10.725C2.83831 11.1847 3.02099 11.6256 3.34604 11.9506C3.67109 12.2758 4.11198 12.4584 4.57175 12.4584H8.6941C9.15385 12.4584 9.59477 12.2758 9.91982 11.9506C10.2449 11.6256 10.4275 11.1847 10.4275 10.725V4.81439H11.352C11.4286 4.81439 11.502 4.78396 11.5562 4.72976C11.6104 4.67555 11.6409 4.6021 11.6409 4.52552V2.21436C11.6409 2.13778 11.6104 2.06423 11.5562 2.01012C11.502 1.95591 11.4286 1.92549 11.352 1.92549H8.41099V1.4084C8.41099 1.17847 8.3196 0.958018 8.15708 0.795492C7.99456 0.632971 7.7741 0.541687 7.54428 0.541687L7.54447 0.541692ZM5.43413 1.40841C5.43413 1.24881 5.5635 1.11945 5.72299 1.11945H7.54447C7.62104 1.11945 7.69459 1.14987 7.7487 1.20408C7.80291 1.25829 7.83334 1.33174 7.83334 1.40841V1.9255H5.43272L5.43413 1.40841ZM9.84975 10.7251C9.84975 11.0316 9.72804 11.3255 9.51131 11.5421C9.29459 11.7589 9.00068 11.8807 8.69417 11.8807H4.57182C4.26531 11.8807 3.97142 11.7589 3.75468 11.5421C3.53795 11.3255 3.41624 11.0316 3.41624 10.7251V4.81447H9.8497L9.84975 10.7251ZM11.0631 4.23798H2.20293V2.50467H11.0633L11.0631 4.23798Z" fill="#101010"/>
<path d="M5.18827 10.0085C5.26485 10.0085 5.3384 9.97806 5.39251 9.92386C5.44671 9.86975 5.47714 9.7962 5.47714 9.71962V6.6445C5.47714 6.4849 5.34787 6.35553 5.18828 6.35553C5.02868 6.35553 4.89941 6.4849 4.89941 6.6445V9.71962C4.89941 9.7962 4.92984 9.86975 4.98405 9.92386C5.03816 9.97806 5.11171 10.0085 5.18828 10.0085H5.18827Z" fill="#101010"/>
<path d="M8.07694 10.0085C8.15352 10.0085 8.22707 9.97806 8.28118 9.92386C8.33539 9.86975 8.36581 9.7962 8.36581 9.71962V6.6445C8.36581 6.4849 8.23654 6.35553 8.07695 6.35553C7.91736 6.35553 7.78809 6.4849 7.78809 6.6445V9.71962C7.78809 9.7962 7.81851 9.86975 7.87272 9.92386C7.92683 9.97806 8.00038 10.0085 8.07695 10.0085H8.07694Z" fill="#101010"/>
</svg>
