<svg width="17" height="18" viewBox="0 0 17 18" fill="none" xmlns="http://www.w3.org/2000/svg">
<path d="M15.5446 16.2794H0.985268C0.717324 16.2794 0.5 16.4969 0.5 16.7647C0.5 17.0326 0.717502 17.2499 0.985268 17.2499H15.5446C15.8125 17.2499 16.0299 17.0324 16.0299 16.7647C16.0299 16.4969 15.8125 16.2794 15.5446 16.2794Z" fill="black"/>
<path d="M0.984463 15.3092H1.10092L4.98349 14.3387C5.05695 14.3167 5.12381 14.2768 5.17764 14.2224L14.8839 4.51707C14.9912 4.43295 15.0562 4.306 15.0618 4.16957C15.0673 4.03315 15.013 3.90112 14.913 3.80854L12.0012 0.896889C11.913 0.803115 11.7899 0.749969 11.6613 0.749969C11.5326 0.749969 11.4096 0.80312 11.3216 0.897058L1.61534 10.6024C1.55863 10.6584 1.51835 10.7289 1.49888 10.8062L0.528349 14.6884C0.479601 14.8519 0.528518 15.0292 0.654452 15.1444C0.736543 15.2433 0.856211 15.3032 0.984515 15.3093L0.984463 15.3092ZM11.6613 1.92549L13.8841 4.14791L12.632 5.4001L10.4092 3.17768L11.6613 1.92549ZM9.72019 3.86643L11.943 6.08885L4.86695 13.1644L2.64418 10.9417L9.72019 3.86643ZM2.21737 11.8927L3.91592 13.5912L1.65441 14.154L2.21737 11.8927Z" fill="black"/>
</svg>
