<svg width="20" height="20" viewBox="0 0 20 20" fill="none" xmlns="http://www.w3.org/2000/svg">
<path d="M10 2.5C8.51664 2.5 7.0666 2.93987 5.83323 3.76398C4.59986 4.58809 3.63856 5.75943 3.07091 7.12987C2.50325 8.50032 2.35472 10.0083 2.64411 11.4632C2.9335 12.918 3.64781 14.2544 4.6967 15.3033C5.7456 16.3522 7.08197 17.0665 8.53683 17.3559C9.99168 17.6453 11.4997 17.4967 12.8701 16.9291C14.2406 16.3614 15.4119 15.4001 16.236 14.1668C17.0601 12.9334 17.5 11.4834 17.5 10C17.4942 8.01265 16.7022 6.10836 15.2969 4.70309C13.8916 3.29782 11.9873 2.50578 10 2.5ZM8.5 13.75L4.75 10L5.80808 8.94192L8.5 11.6281L14.1919 5.935L15.25 7L8.5 13.75Z" fill="#119900"/>
</svg>
