<svg width="23" height="23" viewBox="0 0 23 23" fill="none" xmlns="http://www.w3.org/2000/svg">
<g clip-path="url(#clip0_2982_14323)">
<path d="M11.5429 3.83331C7.22796 3.83331 3.18806 6.37706 0.137454 10.9984C0.0548287 11.1416 0 11.3208 0 11.5C0 11.6792 0.0550202 11.8583 0.164869 12.0015C3.21548 16.6229 7.25547 19.1666 11.5428 19.1666C15.7477 19.1666 19.7602 16.6229 22.8658 11.9657C23.0583 11.6791 23.0307 11.2849 22.8658 11.0343C19.7602 6.37691 15.7202 3.83335 11.5428 3.83335L11.5429 3.83331ZM11.5429 17.7336C7.69537 17.7336 4.06752 15.5125 1.29174 11.4999C4.06747 7.48752 7.69527 5.26621 11.5429 5.26621C15.2806 5.26621 18.8534 7.48733 21.7116 11.4999C18.8533 15.5123 15.2806 17.7336 11.5429 17.7336Z" fill="black"/>
<path d="M11.4877 6.12607C9.20659 6.12607 7.36523 8.52638 7.36523 11.4999C7.36523 14.4734 9.20659 16.8738 11.4877 16.8738C13.7688 16.8738 15.6101 14.4734 15.6101 11.4999C15.6101 8.52638 13.7688 6.12607 11.4877 6.12607ZM11.4877 15.4407C9.81122 15.4407 8.46446 13.6852 8.46446 11.4998C8.46446 9.31435 9.81117 7.55884 11.4877 7.55884C13.1642 7.55884 14.5109 9.31435 14.5109 11.4998C14.5109 13.6852 13.1642 15.4407 11.4877 15.4407Z" fill="black"/>
<rect x="21.3047" y="-0.861536" width="2.65833" height="31.3471" transform="rotate(45 21.3047 -0.861536)" fill="#101010" stroke="white" stroke-width="1.7"/>
</g>
<defs>
<clipPath id="clip0_2982_14323">
<rect width="23" height="23" fill="white"/>
</clipPath>
</defs>
</svg>
