<svg width="23" height="24" viewBox="0 0 23 24" fill="none" xmlns="http://www.w3.org/2000/svg">
<path d="M11.5429 4.33331C7.22796 4.33331 3.18806 6.87706 0.137454 11.4984C0.0548287 11.6416 0 11.8208 0 12C0 12.1792 0.0550202 12.3583 0.164869 12.5015C3.21548 17.1229 7.25547 19.6666 11.5428 19.6666C15.7477 19.6666 19.7602 17.1229 22.8658 12.4657C23.0583 12.1791 23.0307 11.7849 22.8658 11.5343C19.7602 6.87691 15.7202 4.33335 11.5428 4.33335L11.5429 4.33331ZM11.5429 18.2336C7.69537 18.2336 4.06752 16.0125 1.29174 11.9999C4.06747 7.98752 7.69527 5.76621 11.5429 5.76621C15.2806 5.76621 18.8534 7.98733 21.7116 11.9999C18.8533 16.0123 15.2806 18.2336 11.5429 18.2336Z" fill="black"/>
<path d="M11.488 6.62607C9.2069 6.62607 7.36554 9.02638 7.36554 11.9999C7.36554 14.9734 9.2069 17.3738 11.488 17.3738C13.7691 17.3738 15.6104 14.9734 15.6104 11.9999C15.6104 9.02638 13.7691 6.62607 11.488 6.62607ZM11.488 15.9407C9.81152 15.9407 8.46476 14.1852 8.46476 11.9998C8.46476 9.81435 9.81147 8.05884 11.488 8.05884C13.1645 8.05884 14.5112 9.81435 14.5112 11.9998C14.5112 14.1852 13.1645 15.9407 11.488 15.9407Z" fill="black"/>
</svg>
