<svg width="21" height="21" viewBox="0 0 21 21" fill="none" xmlns="http://www.w3.org/2000/svg">
<path d="M11.9808 10.3964C11.9808 10.1299 12.1123 9.74454 12.2789 9.53048L16.9353 3.54381C17.2631 3.12213 17.0948 2.7802 16.5685 2.7802H4.98075C4.45037 2.7802 4.28782 3.12448 4.61393 3.54381L9.2703 9.53048C9.43487 9.74216 9.56847 10.1275 9.56847 10.3964V17.0114C9.56847 17.6784 10.1039 18.2193 10.7746 18.2193C11.4406 18.2193 11.9808 17.6805 11.9808 17.0114L11.9808 10.3964ZM13.4282 17.0114C13.4282 18.4791 12.241 19.6663 10.7746 19.6663C9.3049 19.6663 8.12098 18.478 8.12098 17.0114V10.3964C8.123 10.4132 3.47133 4.43223 3.47133 4.43223C2.40991 3.06755 3.23911 1.33301 4.98075 1.33301H16.5685C18.304 1.33301 19.1423 3.0635 18.0779 4.43223L13.4215 10.4189C13.4286 10.4065 13.4283 17.0114 13.4283 17.0114H13.4282Z" fill="#808080"/>
</svg>
