<svg width="26" height="26" viewBox="0 0 26 26" fill="none" xmlns="http://www.w3.org/2000/svg">
<path d="M3.25 10.2326V21.3718C3.25 22.7313 4.38156 23.8333 5.7775 23.8333C5.77984 23.8333 5.78266 23.8333 5.785 23.8333H20.2225C21.6184 23.8333 22.75 22.7313 22.75 21.3718V10.2326C22.75 8.8717 21.6198 7.76783 20.2225 7.76372H18.6175C18.8387 7.5414 19.0352 7.2967 19.2025 7.03329C19.855 5.96959 19.8888 4.65115 19.2925 3.55641C18.7727 2.67258 17.7953 2.1389 16.75 2.16858C15.6128 2.13342 14.5169 2.58447 13.75 3.40301C13.4505 3.71208 13.1978 4.06132 13 4.44023C12.8139 4.0636 12.5739 3.71436 12.2875 3.40301C11.5206 2.58447 10.4247 2.13342 9.2875 2.16858C8.24172 2.13799 7.26297 2.66801 6.7375 3.5491C6.14125 4.64384 6.175 5.96228 6.8275 7.02598C6.99484 7.28939 7.19125 7.53409 7.4125 7.75642H5.785C4.38484 7.75642 3.25 8.86166 3.25 10.2253C3.25 10.2276 3.25 10.2303 3.25 10.2326ZM21.25 10.2326V21.3718C21.25 21.9246 20.7902 22.3725 20.2225 22.3725H13.75L13.8025 9.2246H20.245C20.8047 9.24057 21.2505 9.68705 21.25 10.2326ZM16.75 3.65867C17.2605 3.62534 17.7466 3.87734 18.0025 4.30876C18.3381 4.95017 18.3011 5.71667 17.905 6.32476C17.5825 6.87259 16.735 7.78563 14.695 7.78563H13.75C13.75 6.90181 13.9225 5.33137 14.7925 4.40371C15.2917 3.87095 16.0108 3.58654 16.75 3.62945V3.65867ZM8.1025 6.29554C7.70641 5.68746 7.66937 4.92095 8.005 4.27954C8.26 3.85041 8.74188 3.59886 9.25 3.62945C9.96906 3.58654 10.6713 3.8536 11.17 4.35989C12.0475 5.30945 12.205 6.87989 12.25 7.76372H11.3125C9.25 7.76372 8.425 6.84337 8.1025 6.29554ZM4.75 10.2326C4.75 9.6761 5.21359 9.2246 5.785 9.2246H12.25L12.1975 22.3725H5.785C5.21734 22.3766 4.75422 21.9319 4.75 21.3791C4.75 21.3768 4.75 21.374 4.75 21.3718V10.2326Z" fill="#232323"/>
</svg>
