<svg width="22" height="22" viewBox="0 0 22 22" fill="none" xmlns="http://www.w3.org/2000/svg">
<path d="M17.9005 11.6429H4.07345C3.52549 11.6429 3.08203 11.1994 3.08203 10.6515C3.08203 10.1035 3.52552 9.66003 4.07345 9.66003H17.9005C18.4484 9.66003 18.8919 10.1035 18.8919 10.6515C18.9179 11.1994 18.4484 11.6429 17.9005 11.6429Z" fill="white"/>
<path d="M20.0662 3.81621H1.90841C1.36045 3.81621 0.916992 3.37272 0.916992 2.82479C0.916992 2.27686 1.36048 1.83337 1.90841 1.83337H20.0922C20.6402 1.83337 21.0837 2.27686 21.0837 2.82479C21.0837 3.37272 20.6402 3.81621 20.0662 3.81621H20.0662Z" fill="white"/>
<path d="M20.0662 19.4694H1.90841C1.36045 19.4694 0.916992 19.0259 0.916992 18.478C0.916992 17.9301 1.36048 17.4866 1.90841 17.4866H20.0922C20.6402 17.4866 21.0837 17.9301 21.0837 18.478C21.0837 19.0259 20.6402 19.4694 20.0662 19.4694H20.0662Z" fill="white"/>
</svg>
