<svg width="26" height="26" viewBox="0 0 26 26" fill="none" xmlns="http://www.w3.org/2000/svg">
<path d="M20.7238 11.1016V21.3439H16.5313V16.9141C16.5313 16.5258 16.1901 16.211 15.7691 16.211H10.4079C9.98682 16.211 9.64561 16.5258 9.64561 16.9141V21.3439H5.4786V11.1016H3.9541V22.047C3.9541 22.4354 4.29536 22.7501 4.71635 22.7501H10.4079C10.8289 22.7501 11.1702 22.4353 11.1702 22.047V17.6173H15.0069V22.047C15.0069 22.4354 15.3481 22.7501 15.7691 22.7501H21.4861C21.9071 22.7501 22.2483 22.4354 22.2483 22.047V11.1016H20.7238Z" fill="#232323"/>
<path d="M24.675 12.9789L13.6222 3.4398C13.3312 3.1883 12.879 3.18667 12.5855 3.43533L1.32948 12.9745C1.01951 13.2372 0.999168 13.6819 1.284 13.9678C1.43417 14.119 1.63946 14.1954 1.84553 14.1954C2.02973 14.1954 2.21471 14.134 2.36107 14.01L13.0967 4.9119L23.6334 14.0057C23.9414 14.2713 24.4231 14.2561 24.7108 13.9727C24.9982 13.6891 24.9824 13.2442 24.675 12.9789Z" fill="#232323"/>
</svg>
