<svg xmlns="http://www.w3.org/2000/svg" width="22" height="23" viewBox="0 0 22 23" fill="none">
    <path
        d="M7.81889 4.91077H20.6022C20.8671 4.91077 21.0822 5.12587 21.0822 5.39079C21.0822 5.65572 20.8671 5.87082 20.6022 5.87082H7.81889C7.59727 6.83879 6.72847 7.53205 5.73257 7.53205C4.73574 7.53205 3.86927 6.83879 3.64578 5.87082H1.39604C1.13112 5.87082 0.916016 5.65572 0.916016 5.39079C0.916016 5.12587 1.13112 4.91077 1.39604 4.91077H3.64578C3.86787 3.94327 4.73667 3.25 5.73257 3.25C6.7294 3.25 7.59587 3.94327 7.81889 4.91077ZM5.73257 4.21005C5.07841 4.21005 4.55136 4.73664 4.55136 5.39079C4.55136 6.04495 5.07841 6.572 5.73257 6.572C6.38673 6.572 6.91331 6.04495 6.91331 5.39079C6.91331 4.73664 6.38673 4.21005 5.73257 4.21005Z"
        fill="black" />
    <path
        d="M13.0815 10.9323H20.6022C20.8671 10.9323 21.0822 11.1474 21.0822 11.4123C21.0822 11.6772 20.8671 11.8923 20.6022 11.8923H13.0815C12.8594 12.8598 11.9906 13.5531 10.9947 13.5531C9.99786 13.5531 9.13139 12.8598 8.90837 11.8923H1.39604C1.13112 11.8923 0.916016 11.6772 0.916016 11.4123C0.916016 11.1474 1.13112 10.9323 1.39604 10.9323H8.90837C9.13 9.96475 9.99879 9.27148 10.9947 9.27148C11.9915 9.27148 12.858 9.96475 13.0815 10.9323ZM10.9947 10.2315C10.3405 10.2315 9.81395 10.7581 9.81395 11.4123C9.81395 12.0664 10.3405 12.593 10.9947 12.593C11.6489 12.593 12.1759 12.0664 12.1759 11.4123C12.1759 10.7581 11.6489 10.2315 10.9947 10.2315Z"
        fill="black" />
    <path
        d="M16.2588 16.2525C15.6041 16.2525 15.0776 16.7796 15.0776 17.4337C15.0776 18.0879 15.6041 18.6145 16.2588 18.6145C16.9129 18.6145 17.4395 18.0879 17.4395 17.4337C17.4395 16.7796 16.9129 16.2525 16.2588 16.2525ZM14.172 17.9138H1.39799C1.13307 17.9138 0.917969 17.6987 0.917969 17.4337C0.917969 17.1688 1.13307 16.9537 1.39799 16.9537H14.172C14.3955 15.9853 15.2615 15.2925 16.2588 15.2925C17.2551 15.2925 18.1221 15.9857 18.3451 16.9537H20.6041C20.8691 16.9537 21.0842 17.1688 21.0842 17.4337C21.0842 17.6987 20.8691 17.9138 20.6041 17.9138H18.3451C18.123 18.8813 17.2542 19.5745 16.2588 19.5745C15.2619 19.5745 14.3955 18.8813 14.172 17.9138Z"
        fill="black" />
</svg>