<svg xmlns="http://www.w3.org/2000/svg" width="18" height="18" viewBox="0 0 18 18" fill="none">
    <g clip-path="url(#clip0_11483_17144)">
    <path d="M9 17.25C13.549 17.25 17.25 13.549 17.25 9C17.25 4.45104 13.549 0.75 9 0.75C4.45104 0.75 0.75 4.45104 0.75 9C0.75 13.549 4.45104 17.25 9 17.25ZM11.1184 16.3662C11.9285 15.6495 12.6049 14.5357 13.0638 13.1707C13.7749 13.2963 14.4522 13.4564 15.0911 13.6479C14.1046 14.938 12.7179 15.9054 11.1184 16.3662ZM15.4441 13.1448C14.7515 12.9279 14.0136 12.7479 13.2375 12.6082C13.5187 11.6001 13.6849 10.4773 13.7088 9.29186H16.6588C16.6054 10.7078 16.1665 12.0255 15.4441 13.1451V13.1448ZM16.6588 8.70817H13.709C13.6852 7.52256 13.5188 6.39961 13.2375 5.39148C14.0137 5.25196 14.7516 5.07177 15.4442 4.85464C16.1665 5.97425 16.6054 7.29228 16.6588 8.70817ZM15.0911 4.35204C14.4523 4.54361 13.7749 4.70371 13.0638 4.8289C12.6049 3.46412 11.9284 2.35027 11.118 1.6336C12.7177 2.09449 14.1043 3.0617 15.0911 4.35204ZM9.29186 1.35484C10.6401 1.53068 11.8114 2.91258 12.4946 4.92263C11.4761 5.07277 10.3998 5.15359 9.29186 5.16612V1.35484ZM9.29186 5.74993C10.4604 5.73727 11.5949 5.64839 12.6681 5.48572C12.9393 6.45788 13.1019 7.55025 13.1253 8.70839H9.2917L9.29186 5.74993ZM9.29186 9.29219H13.1255C13.102 10.4499 12.9394 11.5424 12.6683 12.5149C11.5951 12.3517 10.4606 12.2636 9.29203 12.2503L9.29186 9.29219ZM9.29186 12.8341C10.3997 12.8464 11.4761 12.9272 12.4943 13.0776C11.8114 15.0878 10.6402 16.4696 9.29186 16.6454V12.8341ZM8.70821 16.6452C7.35992 16.4693 6.18865 15.0878 5.5055 13.0774C6.52395 12.927 7.60022 12.8462 8.70821 12.8339V16.6452ZM8.70821 12.2501C7.53962 12.2632 6.40515 12.3516 5.33193 12.5147C5.06081 11.5422 4.89815 10.4497 4.87448 9.29199H8.70811L8.70821 12.2501ZM8.70821 8.70847H4.87457C4.89823 7.55036 5.0609 6.45812 5.33202 5.4858C6.40521 5.64846 7.53991 5.73734 8.7083 5.75L8.70821 8.70847ZM8.70821 1.35516V5.16686C7.60035 5.15446 6.52395 5.07351 5.5055 4.92337C6.18839 2.91319 7.35995 1.53097 8.70821 1.35516ZM6.88204 1.63395C6.07164 2.35062 5.3954 3.46447 4.93655 4.82925C4.22525 4.70418 3.54799 4.54395 2.90882 4.35239C3.89571 3.06205 5.28246 2.09484 6.88204 1.63395ZM2.55603 4.85544C3.24864 5.07233 3.98652 5.25252 4.76277 5.39205C4.4813 6.40016 4.31505 7.52311 4.29141 8.70875H1.34115C1.39448 7.29283 1.83337 5.97469 2.55603 4.85544ZM1.34115 9.29211H4.29154C4.3152 10.4777 4.48145 11.6004 4.76291 12.6085C3.98665 12.748 3.24851 12.9284 2.5559 13.1453C1.83337 12.0257 1.39445 10.7078 1.34115 9.29211ZM4.93645 13.1709C5.39518 14.5357 6.07141 15.6498 6.88181 16.3665C5.282 15.9057 3.89548 14.9383 2.90872 13.6482C3.54786 13.4566 4.22515 13.2965 4.93645 13.1709Z" fill="black"/>
    </g>
    <defs>
    <clipPath id="clip0_11483_17144">
    <rect width="18" height="18" fill="white"/>
    </clipPath>
    </defs>
    </svg>