<svg width="24" height="24" viewBox="0 0 24 24" fill="none" xmlns="http://www.w3.org/2000/svg">
<path d="M2.95801 8.72039C2.95801 8.95261 3.16127 9.15567 3.39329 9.15567H21.6204C21.8526 9.15567 22.0556 8.9524 22.0556 8.72039C22.0556 8.48817 21.8524 8.28511 21.6204 8.28511L3.39329 8.28491C3.16107 8.28491 2.95801 8.48818 2.95801 8.72039V8.72039Z" fill="black"/>
<path d="M8.12382 1C7.89161 1 7.68855 1.20327 7.68855 1.43528V2.45122H5.33766C3.50909 2.45122 2 3.96052 2 5.78888V19.6623C2 21.4909 3.5093 23 5.33766 23H19.6465C21.475 23 22.9841 21.4907 22.9841 19.6623V5.78888C22.9841 3.96031 21.4748 2.45122 19.6465 2.45122H17.2956V1.43528C17.2956 1.20306 17.0923 1 16.8603 1C16.6281 1 16.425 1.20327 16.425 1.43528V2.45122H8.55902V1.43528C8.55902 1.20306 8.3849 1 8.12374 1H8.12382ZM16.4537 3.32197V4.33791C16.4537 4.57013 16.657 4.77319 16.889 4.77319C17.1212 4.77319 17.3243 4.56992 17.3243 4.33791V3.32197H19.6752C21.0393 3.32197 22.1423 4.42493 22.1423 5.78911V19.6626C22.1423 21.0267 21.0393 22.1297 19.6752 22.1297L5.3373 22.1295C3.97318 22.1295 2.87016 21.0266 2.87016 19.6624V5.78891C2.87016 4.42478 3.97312 3.32177 5.3373 3.32177H7.68819V4.33771C7.68819 4.56993 7.89146 4.77299 8.12347 4.77299C8.35569 4.77299 8.55875 4.56972 8.55875 4.33771V3.32177L16.4537 3.32197Z" fill="black"/>
<path d="M10.0099 12.1743C10.0099 12.1454 9.98098 12.1162 9.98098 12.0872C9.95203 12.0583 9.95203 12.0291 9.92288 12.0291C9.74877 11.855 9.45845 11.855 9.31327 12.0291C9.28432 12.0581 9.28432 12.0872 9.25517 12.0872C9.25517 12.1162 9.22622 12.1454 9.22622 12.1743C9.22622 12.2033 9.19727 12.2324 9.19727 12.2614V12.3484C9.19727 12.4644 9.22622 12.5806 9.31327 12.6677C9.34222 12.6966 9.40033 12.7258 9.45843 12.7547C9.51654 12.7837 9.57444 12.7837 9.63255 12.7837C9.74856 12.7837 9.86476 12.7256 9.95182 12.6677C10.0389 12.5806 10.0678 12.4644 10.0678 12.3484V12.2614C10.0389 12.2035 10.0099 12.1743 10.0099 12.1743H10.0099Z" fill="black"/>
<path d="M12.7388 11.9711C12.7388 11.9421 12.7098 11.9421 12.6807 11.9421C12.6517 11.9421 12.6226 11.9132 12.5936 11.9132C12.4485 11.8842 12.3033 11.9421 12.1873 12.0292C12.1002 12.1162 12.0713 12.2324 12.0713 12.3485C12.0713 12.4645 12.1002 12.5807 12.1873 12.6677C12.2744 12.7548 12.3906 12.7837 12.5066 12.7837C12.6226 12.7837 12.7388 12.7256 12.8258 12.6677C12.9129 12.5807 12.9419 12.4645 12.9419 12.3485C12.9419 12.2324 12.8837 12.1162 12.8258 12.0292C12.7969 12 12.7677 11.9711 12.7388 11.9711L12.7388 11.9711Z" fill="black"/>
<path d="M15.6411 11.9711C15.6411 11.9421 15.6122 11.9421 15.583 11.9421C15.5541 11.9421 15.5249 11.9132 15.496 11.9132C15.3508 11.8842 15.2056 11.9421 15.0896 12.0292C15.0026 12.1162 14.9736 12.2324 14.9736 12.3485C14.9736 12.4645 15.0317 12.5807 15.0896 12.6677C15.1186 12.6967 15.1767 12.7258 15.2348 12.7548C15.2929 12.7837 15.3508 12.7837 15.4089 12.7837C15.5249 12.7837 15.6411 12.7256 15.7282 12.6677C15.8152 12.5807 15.8442 12.4645 15.8442 12.3485C15.8442 12.2324 15.7861 12.1162 15.7282 12.0292C15.6992 12 15.6701 11.9711 15.6411 11.9711H15.6411Z" fill="black"/>
<path d="M18.7179 12.1742C18.7179 12.1452 18.689 12.1161 18.689 12.0871C18.66 12.0582 18.66 12.029 18.6309 12.029C18.5438 11.942 18.3697 11.8838 18.2535 11.913C18.2245 11.913 18.1954 11.9419 18.1664 11.9419C18.1375 11.9419 18.1083 11.9709 18.0794 11.9709C18.0504 11.9709 18.0213 11.9999 18.0213 12.029C17.9923 12.058 17.9923 12.0871 17.9632 12.0871C17.9632 12.1161 17.9342 12.1452 17.9342 12.1742C17.9342 12.2031 17.9053 12.2323 17.9053 12.2612V12.3483C17.9053 12.4064 17.9053 12.4643 17.9342 12.5224C17.9632 12.5805 17.9923 12.6094 18.0213 12.6676C18.0502 12.6965 18.1083 12.7257 18.1664 12.7546C18.2245 12.7836 18.2824 12.7836 18.3406 12.7836C18.3987 12.7836 18.4566 12.7836 18.5147 12.7546C18.5728 12.7257 18.6307 12.6965 18.6598 12.6676C18.6888 12.6386 18.7179 12.5805 18.7469 12.5224C18.7758 12.4643 18.7758 12.4064 18.7758 12.3483V12.2612C18.7469 12.2033 18.7179 12.1742 18.7179 12.1742H18.7179Z" fill="black"/>
<path d="M6.9341 14.8735C6.9341 14.8445 6.90515 14.8445 6.876 14.8445C6.84705 14.8445 6.81789 14.8156 6.78894 14.8156H6.61483C6.58588 14.8156 6.55672 14.8445 6.52777 14.8445C6.49882 14.8445 6.46967 14.8735 6.44071 14.8735C6.41176 14.8735 6.38261 14.9024 6.38261 14.9316C6.29555 15.0186 6.2666 15.1348 6.2666 15.2508C6.2666 15.3668 6.32471 15.4831 6.38261 15.5701C6.41156 15.5991 6.46967 15.6282 6.52777 15.6572C6.58588 15.6861 6.64378 15.6861 6.70188 15.6861C6.75999 15.6861 6.81789 15.6861 6.876 15.6572C6.9341 15.6282 6.992 15.5991 7.02116 15.5701C7.10821 15.4831 7.13717 15.3668 7.13717 15.2508C7.13717 15.1348 7.07906 15.0186 7.02116 14.9316C6.99221 14.9024 6.96305 14.8735 6.9341 14.8735Z" fill="black"/>
<path d="M10.0099 15.0766C10.0099 15.0477 9.98099 15.0185 9.98099 14.9896C9.95204 14.9606 9.95204 14.9315 9.92288 14.9315C9.74877 14.7574 9.45845 14.7574 9.31327 14.9315C9.22622 15.0185 9.19727 15.1348 9.19727 15.2508C9.19727 15.3089 9.19727 15.3668 9.22622 15.4249C9.25517 15.483 9.28432 15.5119 9.31327 15.57C9.40033 15.6571 9.51654 15.686 9.63255 15.686C9.74856 15.686 9.86476 15.6279 9.95182 15.57C9.98077 15.5411 10.0099 15.483 10.0389 15.4249C10.0678 15.3668 10.0678 15.3089 10.0678 15.2508V15.1637C10.0389 15.1058 10.0099 15.0766 10.0099 15.0766H10.0099Z" fill="black"/>
<path d="M12.9129 15.0766C12.9129 15.0476 12.8839 15.0185 12.8839 14.9895C12.855 14.9606 12.855 14.9314 12.8258 14.9314L12.7677 14.8733C12.7388 14.8446 12.7098 14.8446 12.6807 14.8446C12.6517 14.8446 12.6226 14.8156 12.5936 14.8156C12.4485 14.7867 12.3033 14.8446 12.1873 14.9316C12.1583 14.9606 12.1583 14.9897 12.1292 14.9897C12.1292 15.0187 12.1002 15.0479 12.1002 15.0768C12.1002 15.1058 12.0713 15.1349 12.0713 15.1639V15.2509C12.0713 15.3669 12.1002 15.4831 12.1873 15.5702C12.2744 15.6572 12.3906 15.6862 12.5066 15.6862C12.6226 15.6862 12.7388 15.6281 12.8258 15.5702C12.9129 15.4831 12.9419 15.3669 12.9419 15.2509V15.1639C12.9419 15.1058 12.9129 15.0766 12.9129 15.0766L12.9129 15.0766Z" fill="black"/>
<path d="M15.8152 15.0767C15.8152 15.0477 15.7863 15.0186 15.7863 14.9896C15.7573 14.9607 15.7573 14.9315 15.7282 14.9315L15.6701 14.8734C15.6411 14.8734 15.612 14.8445 15.583 14.8445C15.5541 14.8445 15.5249 14.8155 15.496 14.8155C15.3508 14.7866 15.2056 14.8445 15.0896 14.9315C15.0607 14.9605 15.0607 14.9896 15.0315 14.9896C15.0315 15.0186 15.0026 15.0477 15.0026 15.0767C15.0026 15.1056 14.9736 15.1348 14.9736 15.1637V15.2508C14.9736 15.3089 14.9736 15.3668 15.0026 15.4249C15.0315 15.483 15.0607 15.512 15.0896 15.5701C15.1186 15.599 15.1767 15.6282 15.2348 15.6571C15.2929 15.6861 15.3508 15.6861 15.4089 15.6861C15.5249 15.6861 15.6411 15.628 15.7282 15.5701C15.8152 15.483 15.8442 15.3668 15.8442 15.2508V15.1637C15.8442 15.1058 15.8152 15.0767 15.8152 15.0767L15.8152 15.0767Z" fill="black"/>
<path d="M18.7179 15.0767C18.7179 15.0477 18.689 15.0186 18.689 14.9896C18.66 14.9607 18.66 14.9315 18.6309 14.9315C18.4568 14.7574 18.1665 14.7863 18.0213 14.9315C17.9923 14.9604 17.9923 14.9896 17.9632 14.9896C17.9632 15.0186 17.9342 15.0477 17.9342 15.0767C17.9342 15.1056 17.9053 15.1348 17.9053 15.1637V15.2508C17.9053 15.3089 17.9053 15.3668 17.9342 15.4249C17.9632 15.483 17.9923 15.5119 18.0213 15.57C18.0502 15.599 18.1083 15.6281 18.1664 15.6571C18.2245 15.6861 18.2825 15.6861 18.3406 15.6861C18.3987 15.6861 18.4566 15.6861 18.5147 15.6571C18.5728 15.6282 18.6307 15.599 18.6598 15.57C18.6888 15.5411 18.7179 15.483 18.7469 15.4249C18.7758 15.3668 18.7758 15.3089 18.7758 15.2508V15.1637C18.7469 15.1058 18.7179 15.0767 18.7179 15.0767H18.7179Z" fill="black"/>
<path d="M6.61483 17.7178C6.58588 17.7178 6.55672 17.7468 6.52777 17.7468C6.49882 17.7468 6.46967 17.7757 6.44071 17.7757C6.41176 17.7757 6.38261 17.8047 6.38261 17.8338C6.29555 17.9209 6.2666 18.0371 6.2666 18.1531C6.2666 18.2691 6.32471 18.3853 6.38261 18.4724C6.41156 18.5013 6.46967 18.5305 6.52777 18.5595C6.58588 18.5884 6.64378 18.5884 6.70188 18.5884C6.75999 18.5884 6.81789 18.5884 6.876 18.5595C6.9341 18.5305 6.992 18.5013 7.02116 18.4724C7.10821 18.3853 7.13717 18.2691 7.13717 18.1531C7.13717 18.0371 7.07906 17.9209 7.02116 17.8338C6.90515 17.7178 6.75999 17.6889 6.61483 17.7178L6.61483 17.7178Z" fill="black"/>
<path d="M9.28495 17.834C9.1979 17.921 9.16895 18.0372 9.16895 18.1532C9.16895 18.2692 9.1979 18.3854 9.28495 18.4725C9.37201 18.5596 9.48822 18.5885 9.60423 18.5885C9.72024 18.5885 9.83644 18.5304 9.9235 18.4725C10.0106 18.3854 10.0395 18.2692 10.0395 18.1532C10.0395 18.0372 9.9814 17.921 9.9235 17.834C9.74939 17.6598 9.45907 17.6598 9.28497 17.834H9.28495Z" fill="black"/>
<path d="M12.7388 17.7759C12.7388 17.7469 12.7098 17.7469 12.6807 17.7469C12.6517 17.7469 12.6226 17.718 12.5936 17.718C12.4485 17.689 12.3033 17.7469 12.1873 17.834C12.1002 17.921 12.0713 18.0373 12.0713 18.1533C12.0713 18.2693 12.1002 18.3855 12.1873 18.4725C12.2744 18.5596 12.3906 18.5885 12.5066 18.5885C12.6226 18.5885 12.7388 18.5304 12.8258 18.4725C12.9129 18.3855 12.9419 18.2693 12.9419 18.1533C12.9419 18.0373 12.8837 17.921 12.8258 17.834C12.7969 17.8048 12.7677 17.7759 12.7388 17.7759L12.7388 17.7759Z" fill="black"/>
<path d="M15.6411 17.7759C15.6411 17.7469 15.6122 17.7469 15.583 17.7469C15.5541 17.7469 15.5249 17.718 15.496 17.718C15.3508 17.689 15.2056 17.7469 15.0896 17.834C15.0026 17.921 14.9736 18.0373 14.9736 18.1533C14.9736 18.2114 14.9736 18.2693 15.0026 18.3274C15.0315 18.3855 15.0607 18.4144 15.0896 18.4725C15.1186 18.5015 15.1767 18.5306 15.2348 18.5596C15.2929 18.5885 15.3508 18.5885 15.4089 18.5885C15.5249 18.5885 15.6411 18.5304 15.7282 18.4725C15.7571 18.4436 15.7863 18.3855 15.8152 18.3274C15.8442 18.2693 15.8442 18.2114 15.8442 18.1533C15.8442 18.0373 15.7861 17.921 15.7282 17.834C15.6992 17.8048 15.6701 17.7759 15.6411 17.7759H15.6411Z" fill="black"/>
</svg>
