<svg xmlns="http://www.w3.org/2000/svg" width="24" height="24" viewBox="0 0 24 24" fill="none">
    <path
        d="M12 3C10.22 3 8.47991 3.52784 6.99987 4.51677C5.51983 5.50571 4.36628 6.91131 3.68509 8.55585C3.0039 10.2004 2.82567 12.01 3.17294 13.7558C3.5202 15.5016 4.37737 17.1053 5.63604 18.364C6.89471 19.6226 8.49836 20.4798 10.2442 20.8271C11.99 21.1743 13.7996 20.9961 15.4442 20.3149C17.0887 19.6337 18.4943 18.4802 19.4832 17.0001C20.4722 15.5201 21 13.78 21 12C20.9931 9.61518 20.0426 7.33003 18.3563 5.64371C16.67 3.95738 14.3848 3.00694 12 3Z"
        fill="#F18119" />
    <path
        d="M11.9854 6C11.4469 6.00693 11.0141 6.35756 11.0141 6.78891V6.80062V14.6879V14.699C11.0141 15.1345 11.4549 15.4879 12.0002 15.4879C12.5454 15.4879 12.9863 15.1353 12.9863 14.699V14.6873V6.8V6.78968C12.9863 6.35417 12.5456 6.00077 12.0002 6.00077L11.9854 6ZM12 17H11.9861C11.4417 17 11 17.4054 11 17.8417C11 18.2778 11.4408 18.6306 11.9861 18.6306H12.0008H12.0139C12.5583 18.6306 13 18.2779 13 17.8417C13 17.4055 12.5592 17 12.0139 17H12Z"
        fill="white" />
</svg>