<svg width="24" height="24" viewBox="0 0 24 24" fill="none" xmlns="http://www.w3.org/2000/svg">
<path d="M12 1C5.93451 1 1 5.93446 1 12C1 18.0655 5.93446 23 12 23C18.0655 23 23 18.0655 23 12C23 5.93446 18.0651 1 12 1ZM12 22.2052C6.3732 22.2052 1.79535 17.6269 1.79535 12.0005C1.79535 6.37417 6.37363 1.79589 12 1.79589C17.6273 1.79589 22.2046 6.37374 22.2046 12.0005C22.2046 17.6273 17.6268 22.2052 12 22.2052Z" fill="black"/>
<path d="M12.5299 11.8357V6.0362C12.5299 5.81678 12.3518 5.63867 12.1324 5.63867C11.913 5.63867 11.7349 5.81678 11.7349 6.0362V12.0002C11.7349 12.0519 11.7456 12.1035 11.7654 12.1522C11.7857 12.2007 11.8147 12.245 11.8512 12.2814L15.1016 15.5318C15.1791 15.6093 15.2809 15.6483 15.3827 15.6483C15.4845 15.6483 15.5863 15.6093 15.6639 15.5318C15.8195 15.3762 15.8195 15.125 15.6639 14.9696L12.5299 11.8357Z" fill="black"/>
</svg>
