<svg width="22" height="23" viewBox="0 0 22 23" fill="none" xmlns="http://www.w3.org/2000/svg">
<path d="M12.7676 1.41651H9.68267C9.29373 1.41651 8.92065 1.571 8.64561 1.84603C8.37057 2.12106 8.21592 2.49416 8.21592 2.88326V3.75833H3.23885C2.96893 3.75833 2.75 3.97726 2.75 4.24718V8.15838C2.75 8.28797 2.8015 8.41227 2.89323 8.50401C2.98496 8.59574 3.10926 8.64723 3.23885 8.64723H4.8033V18.6498C4.8033 19.4277 5.11244 20.1739 5.66253 20.7239C6.21261 21.2742 6.95874 21.5832 7.73681 21.5832H14.7131C15.4911 21.5832 16.2373 21.2742 16.7874 20.7239C17.3375 20.1739 17.6466 19.4277 17.6466 18.6498V8.64723H19.2111C19.3406 8.64723 19.4649 8.59574 19.5567 8.50401C19.6484 8.41227 19.6999 8.28797 19.6999 8.15838V4.24718C19.6999 4.11758 19.6484 3.99311 19.5567 3.90155C19.4649 3.80981 19.3406 3.75832 19.2111 3.75832H14.234V2.88325C14.234 2.49414 14.0793 2.12106 13.8043 1.84602C13.5293 1.57098 13.1562 1.4165 12.7672 1.4165L12.7676 1.41651ZM9.19622 2.88327C9.19622 2.61318 9.41516 2.39425 9.68507 2.39425H12.7676C12.8972 2.39425 13.0216 2.44574 13.1132 2.53748C13.2049 2.62921 13.2564 2.75351 13.2564 2.88327V3.75834H9.19383L9.19622 2.88327ZM16.6688 18.65C16.6688 19.1687 16.4628 19.666 16.0961 20.0326C15.7293 20.3994 15.2319 20.6056 14.7132 20.6056H7.73693C7.21822 20.6056 6.72087 20.3994 6.35407 20.0326C5.9873 19.666 5.78133 19.1687 5.78133 18.65V8.64737H16.6687L16.6688 18.65ZM18.7221 7.67177H3.72803V4.73847H18.7225L18.7221 7.67177Z" fill="#EB0A1E"/>
<path d="M8.78181 17.4373C8.9114 17.4373 9.03587 17.3858 9.12743 17.2941C9.21917 17.2025 9.27066 17.078 9.27066 16.9484V11.7444C9.27066 11.4743 9.0519 11.2554 8.78181 11.2554C8.51173 11.2554 8.29297 11.4743 8.29297 11.7444V16.9484C8.29297 17.078 8.34446 17.2025 8.4362 17.2941C8.52776 17.3858 8.65223 17.4373 8.78182 17.4373H8.78181Z" fill="#EB0A1E"/>
<path d="M13.6685 17.4373C13.7981 17.4373 13.9226 17.3858 14.0142 17.2941C14.1059 17.2025 14.1574 17.078 14.1574 16.9484V11.7444C14.1574 11.4743 13.9386 11.2554 13.6685 11.2554C13.3985 11.2554 13.1797 11.4743 13.1797 11.7444V16.9484C13.1797 17.078 13.2312 17.2025 13.3229 17.2941C13.4145 17.3858 13.539 17.4373 13.6685 17.4373H13.6685Z" fill="#EB0A1E"/>
</svg>
