<svg width="20" height="21" viewBox="0 0 20 21" fill="none" xmlns="http://www.w3.org/2000/svg">
<g clip-path="url(#clip0_9978_1838)">
<path d="M19.8758 2.39558C19.0107 1.12756 10.0002 0.5 10.0002 0.5C10.0002 0.5 0.989176 1.12756 0.124039 2.39558C-0.342212 3.07935 0.493221 11.924 2.84675 15.545C5.20029 19.166 10.0002 20.5 10.0002 20.5C10.0002 20.5 14.7995 19.166 17.1536 15.545C19.5071 11.924 20.3431 3.07883 19.8763 2.39558H19.8758Z" fill="#FFCB4A"/>
<path d="M19.876 2.39537C19.8378 2.33968 19.7843 2.28554 19.7164 2.23242C19.8129 4.51784 18.9128 11.5603 16.8764 14.6929C14.5229 18.3139 9.723 19.6479 9.723 19.6479C9.723 19.6479 4.92363 18.3139 2.56957 14.6929C2.12347 14.0066 1.73201 13.132 1.39307 12.1615C1.7893 13.4708 2.27306 14.663 2.84645 15.5453C5.19999 19.1663 9.99988 20.5003 9.99988 20.5003C9.99988 20.5003 14.7992 19.1663 17.1533 15.5453C19.5068 11.9243 20.3428 3.07914 19.876 2.39589V2.39537Z" fill="#FFBB43"/>
<path d="M18.2405 3.41943C17.5186 2.36129 9.99969 1.83789 9.99969 1.83789C9.99969 1.83789 2.48132 2.36129 1.75887 3.41943C1.36953 3.98975 2.06705 11.3704 4.03072 14.3917C5.99438 17.413 9.99969 18.5263 9.99969 18.5263C9.99969 18.5263 14.0045 17.413 15.9687 14.3917C17.9323 11.3704 18.6298 3.98975 18.2405 3.41943Z" fill="#FFE878"/>
<path d="M18.2407 3.41898C18.1972 3.35556 18.1293 3.29419 18.0402 3.23438C18.2232 4.75403 17.4865 11.1534 15.692 13.9138C13.7283 16.935 9.72303 18.0483 9.72303 18.0483C9.72303 18.0483 5.71826 16.935 3.75406 13.9138C3.74504 13.9004 3.73656 13.8864 3.72754 13.8725C3.82514 14.0566 3.92592 14.2304 4.03095 14.3913C5.99461 17.4125 9.99992 18.5259 9.99992 18.5259C9.99992 18.5259 14.0047 17.4125 15.9689 14.3913C17.9326 11.37 18.6301 3.98931 18.2407 3.41898Z" fill="#FFBB43"/>
<g opacity="0.49">
<path d="M4.20406 3.26748C3.73039 3.48097 3.25883 3.76922 3.02067 4.22094C2.85411 4.53704 2.8191 4.90213 2.8016 5.25691C2.68384 7.62999 3.22011 10.0304 4.33986 12.142C4.4539 12.3566 4.6125 12.5943 4.85968 12.6149C4.2152 10.9179 3.85875 9.1182 3.80889 7.30977C3.79404 6.77709 3.8073 6.23512 3.97333 5.72771C4.13935 5.2203 4.4783 4.74537 4.9716 4.51384C5.3376 4.34212 5.75452 4.31583 6.14916 4.22094C6.54328 4.12606 6.9533 3.92856 7.10819 3.56347C7.79351 1.9479 4.61409 3.08236 4.20406 3.26748Z" fill="white"/>
</g>
<path d="M12.4344 11.9755L9.99286 10.7214L7.5465 11.9657L8.01911 9.32083L6.0459 7.4433L8.77922 7.06274L10.0061 4.6582L11.2229 7.0679L13.9547 7.45929L11.9735 9.32908L12.4344 11.9755Z" fill="#FFCB4A"/>
</g>
<defs>
<clipPath id="clip0_9978_1838">
<rect width="20" height="20" fill="white" transform="translate(0 0.5)"/>
</clipPath>
</defs>
</svg>
