<svg xmlns="http://www.w3.org/2000/svg" width="15" height="14" viewBox="0 0 15 14" fill="none">
    <g clip-path="url(#clip0_11483_9778)">
    <path fill-rule="evenodd" clip-rule="evenodd" d="M8.56299 7.00016L13.4921 2.07104C13.8325 1.73066 13.8325 1.17899 13.4921 0.838775C13.1519 0.498403 12.6002 0.498403 12.2599 0.838775L7.33073 5.7679L2.4016 0.838775C2.06123 0.498403 1.50955 0.498403 1.16934 0.838775C0.82897 1.17899 0.82897 1.73067 1.16934 2.07104L6.09847 7.00016L1.16934 11.9293C0.82897 12.2697 0.82897 12.8213 1.16934 13.1615C1.50956 13.5019 2.06124 13.5019 2.4016 13.1615L7.33073 8.23242L12.2599 13.1615C12.6002 13.5019 13.1519 13.5019 13.4921 13.1615C13.8325 12.8213 13.8325 12.2697 13.4921 11.9293L8.56299 7.00016Z" fill="#101010"/>
    </g>
    <defs>
    <clipPath id="clip0_11483_9778">
    <rect width="14" height="14" fill="white" transform="translate(0.332031)"/>
    </clipPath>
    </defs>
    </svg>