<svg xmlns="http://www.w3.org/2000/svg" width="22" height="22" viewBox="0 0 22 22" fill="none">
    <g clip-path="url(#clip0_14237_22396)">
        <path
            d="M4.12492 20.1668V15.5835M4.12492 6.41683V1.8335M1.83325 4.12516H6.41659M1.83325 17.8752H6.41659M11.9166 2.75016L10.3269 6.88329C10.0684 7.55541 9.93916 7.89148 9.73815 8.17416C9.56001 8.42469 9.34112 8.64359 9.09058 8.82173C8.8079 9.02273 8.47184 9.15199 7.79971 9.4105L3.66659 11.0002L7.79971 12.5898C8.47184 12.8483 8.8079 12.9776 9.09058 13.1786C9.34112 13.3567 9.56001 13.5756 9.73815 13.8262C9.93916 14.1088 10.0684 14.4449 10.3269 15.117L11.9166 19.2502L13.5062 15.117C13.7648 14.4449 13.894 14.1088 14.095 13.8262C14.2732 13.5756 14.4921 13.3567 14.7426 13.1786C15.0253 12.9776 15.3613 12.8483 16.0335 12.5898L20.1666 11.0002L16.0335 9.4105C15.3613 9.15199 15.0253 9.02273 14.7426 8.82173C14.4921 8.64359 14.2732 8.42469 14.095 8.17416C13.894 7.89148 13.7648 7.55541 13.5062 6.88329L11.9166 2.75016Z"
            stroke="white" stroke-width="2" stroke-linecap="round" stroke-linejoin="round" />
    </g>
    <defs>
        <clipPath id="clip0_14237_22396">
            <rect width="22" height="22" fill="white" />
        </clipPath>
    </defs>
</svg>