<svg width="20" height="21" viewBox="0 0 20 21" fill="none" xmlns="http://www.w3.org/2000/svg">
<g clip-path="url(#clip0_9393_53807)">
<path d="M19.8758 2.39558C19.0107 1.12756 10.0002 0.5 10.0002 0.5C10.0002 0.5 0.989176 1.12756 0.124039 2.39558C-0.342212 3.07935 0.493221 11.924 2.84675 15.545C5.20029 19.166 10.0002 20.5 10.0002 20.5C10.0002 20.5 14.7995 19.166 17.1536 15.545C19.5071 11.924 20.3431 3.07883 19.8763 2.39558H19.8758Z" fill="#888888"/>
<path d="M19.8758 2.39537C19.8376 2.33968 19.784 2.28554 19.7161 2.23242C19.8127 4.51784 18.9125 11.5603 16.8762 14.6929C14.5226 18.3139 9.72275 19.6479 9.72275 19.6479C9.72275 19.6479 4.92339 18.3139 2.56932 14.6929C2.12323 14.0066 1.73177 13.132 1.39282 12.1615C1.78906 13.4708 2.27281 14.663 2.84621 15.5453C5.19974 19.1663 9.99964 20.5003 9.99964 20.5003C9.99964 20.5003 14.799 19.1663 17.1531 15.5453C19.5066 11.9243 20.3426 3.07914 19.8758 2.39589V2.39537Z" fill="#555555"/>
<path d="M18.2405 3.41894C17.5186 2.3608 9.99969 1.8374 9.99969 1.8374C9.99969 1.8374 2.48132 2.3608 1.75887 3.41894C1.36953 3.98927 2.06705 11.37 4.03072 14.3912C5.99438 17.4125 9.99969 18.5258 9.99969 18.5258C9.99969 18.5258 14.0045 17.4125 15.9687 14.3912C17.9323 11.37 18.6298 3.98927 18.2405 3.41894Z" fill="#D1D1D1"/>
<path d="M18.2405 3.41898C18.197 3.35556 18.1291 3.29419 18.04 3.23438C18.223 4.75403 17.4862 11.1534 15.6918 13.9138C13.7281 16.935 9.72279 18.0483 9.72279 18.0483C9.72279 18.0483 5.71801 16.935 3.75382 13.9138C3.7448 13.9004 3.73631 13.8864 3.72729 13.8725C3.82489 14.0566 3.92568 14.2304 4.0307 14.3913C5.99437 17.4125 9.99967 18.5259 9.99967 18.5259C9.99967 18.5259 14.0044 17.4125 15.9686 14.3913C17.9323 11.37 18.6298 3.98931 18.2405 3.41898Z" fill="#555555"/>
<g opacity="0.49">
<path d="M4.20431 3.26748C3.73063 3.48097 3.25908 3.76922 3.02091 4.22094C2.85435 4.53704 2.81935 4.90213 2.80184 5.25691C2.68409 7.62999 3.22035 10.0304 4.3401 12.142C4.45414 12.3566 4.61274 12.5943 4.85992 12.6149C4.21545 10.9179 3.859 9.1182 3.80914 7.30977C3.79428 6.77709 3.80754 6.23512 3.97357 5.72771C4.1396 5.2203 4.47854 4.74537 4.97185 4.51384C5.33785 4.34212 5.75477 4.31583 6.14941 4.22094C6.54352 4.12606 6.95355 3.92856 7.10843 3.56347C7.79375 1.9479 4.61433 3.08236 4.20431 3.26748Z" fill="white"/>
</g>
<path d="M12.4344 11.9755L9.99286 10.7214L7.5465 11.9657L8.01911 9.32083L6.0459 7.4433L8.77922 7.06274L10.0061 4.6582L11.2229 7.0679L13.9547 7.45929L11.9735 9.32908L12.4344 11.9755Z" fill="white"/>
</g>
<defs>
<clipPath id="clip0_9393_53807">
<rect width="20" height="20" fill="white" transform="translate(0 0.5)"/>
</clipPath>
</defs>
</svg>
