<svg width="15" height="18" viewBox="0 0 15 18" fill="none" xmlns="http://www.w3.org/2000/svg">
<path d="M8.44619 0.750007H5.92218C5.60396 0.750007 5.29872 0.876404 5.07368 1.10143C4.84865 1.32646 4.72212 1.63172 4.72212 1.95007V2.66604H0.649965C0.429122 2.66604 0.25 2.84517 0.25 3.066V6.26608C0.25 6.37211 0.292132 6.47381 0.367186 6.54887C0.442243 6.62392 0.543944 6.66605 0.649972 6.66605H1.92997V14.85C1.92997 15.4864 2.1829 16.0969 2.63298 16.547C3.08305 16.9972 3.69351 17.25 4.33012 17.25H10.038C10.6746 17.25 11.2851 16.9972 11.7351 16.547C12.1852 16.0969 12.4381 15.4865 12.4381 14.85V6.66605H13.7181C13.8242 6.66605 13.9259 6.62392 14.0009 6.54887C14.076 6.47381 14.1181 6.37211 14.1181 6.26608V3.066C14.1181 2.95998 14.076 2.85814 14.0009 2.78322C13.9259 2.70816 13.8242 2.66603 13.7181 2.66603H9.64599V1.95007C9.64599 1.63171 9.51945 1.32646 9.29443 1.10142C9.0694 0.876393 8.76414 0.75 8.44592 0.75L8.44619 0.750007ZM5.52418 1.95008C5.52418 1.7291 5.70331 1.54997 5.92415 1.54997H8.44619C8.55222 1.54997 8.65406 1.5921 8.72897 1.66716C8.80403 1.74222 8.84616 1.84392 8.84616 1.95008V2.66605H5.52223L5.52418 1.95008ZM11.6381 14.8501C11.6381 15.2745 11.4696 15.6814 11.1695 15.9814C10.8694 16.2815 10.4625 16.4501 10.0381 16.4501H4.33021C3.90582 16.4501 3.49889 16.2815 3.19878 15.9814C2.8987 15.6814 2.73018 15.2745 2.73018 14.8501V6.66616H11.6381L11.6381 14.8501ZM13.3181 5.86794H1.05021V3.46798H13.3184L13.3181 5.86794Z" fill="black"/>
<path d="M5.18414 13.8577C5.29017 13.8577 5.39201 13.8156 5.46692 13.7406C5.54198 13.6656 5.58411 13.5638 5.58411 13.4578V9.19991C5.58411 8.97893 5.40512 8.7998 5.18415 8.7998C4.96317 8.7998 4.78418 8.97893 4.78418 9.19991V13.4578C4.78418 13.5638 4.82631 13.6656 4.90137 13.7406C4.97628 13.8156 5.07812 13.8577 5.18415 13.8577H5.18414Z" fill="black"/>
<path d="M9.18414 13.8577C9.29017 13.8577 9.39201 13.8156 9.46692 13.7406C9.54198 13.6656 9.58411 13.5638 9.58411 13.4578V9.19991C9.58411 8.97893 9.40512 8.7998 9.18415 8.7998C8.96317 8.7998 8.78418 8.97893 8.78418 9.19991V13.4578C8.78418 13.5638 8.82631 13.6656 8.90137 13.7406C8.97628 13.8156 9.07812 13.8577 9.18415 13.8577H9.18414Z" fill="black"/>
</svg>
