<svg width="16" height="16" viewBox="0 0 16 16" fill="none" xmlns="http://www.w3.org/2000/svg">
<path d="M0.725603 16.0003C0.432423 15.999 0.168661 15.822 0.0565407 15.5511C-0.0553074 15.28 0.00632346 14.9683 0.213025 14.7606L14.7565 0.217135C15.0405 -0.0671699 15.5011 -0.0671699 15.7854 0.217135C16.0695 0.501186 16.0695 0.961771 15.7854 1.24608L1.24197 15.7895C1.10476 15.9255 0.918862 16.0015 0.72561 16.0003L0.725603 16.0003Z" fill="black"/>
<path d="M15.2692 16C15.0767 15.9992 14.8923 15.9221 14.7567 15.7854L0.213228 1.24199C-0.0710762 0.957934 -0.0710762 0.49735 0.213228 0.213039C0.49728 -0.0710129 0.957866 -0.0710129 1.24218 0.213039L15.7856 14.7565C15.9954 14.9647 16.0582 15.2789 15.9451 15.5518C15.8318 15.8245 15.5647 16.0017 15.2693 16L15.2692 16Z" fill="black"/>
</svg>
