<svg xmlns="http://www.w3.org/2000/svg" width="21" height="20" viewBox="0 0 21 20" fill="none">
    <path
        d="M10.25 2.5C8.76664 2.5 7.3166 2.93987 6.08323 3.76398C4.84986 4.58809 3.88856 5.75943 3.32091 7.12987C2.75325 8.50032 2.60472 10.0083 2.89411 11.4632C3.1835 12.918 3.89781 14.2544 4.9467 15.3033C5.9956 16.3522 7.33197 17.0665 8.78683 17.3559C10.2417 17.6453 11.7497 17.4967 13.1201 16.9291C14.4906 16.3614 15.6619 15.4001 16.486 14.1668C17.3101 12.9334 17.75 11.4834 17.75 10C17.7442 8.01265 16.9522 6.10836 15.5469 4.70309C14.1416 3.29782 12.2373 2.50578 10.25 2.5Z"
        fill="#AD3E48" />
    <path
        d="M10.2372 5C9.78847 5.00578 9.42774 5.29796 9.42774 5.65742V5.66718V12.2399V12.2492C9.42774 12.6121 9.79506 12.9066 10.2495 12.9066C10.7038 12.9066 11.0713 12.6127 11.0713 12.2492V12.2394V5.66667V5.65807C11.0713 5.29514 10.704 5.00064 10.2495 5.00064L10.2372 5ZM10.2493 14.1667H10.2378C9.78414 14.1667 9.41602 14.5045 9.41602 14.8681C9.41602 15.2315 9.78334 15.5255 10.2378 15.5255H10.25H10.2609C10.7146 15.5255 11.0827 15.2316 11.0827 14.8681C11.0827 14.5046 10.7154 14.1667 10.2609 14.1667H10.2493Z"
        fill="white" />
</svg>