<svg width="19" height="20" viewBox="0 0 19 20" fill="none" xmlns="http://www.w3.org/2000/svg">
<path d="M18.2359 18.8232H0.588204C0.263423 18.8232 0 19.0869 0 19.4114C0 19.7362 0.263639 19.9996 0.588204 19.9996H18.2359C18.5607 19.9996 18.8241 19.736 18.8241 19.4114C18.8241 19.0869 18.5606 18.8232 18.2359 18.8232Z" fill="black"/>
<path d="M0.588086 17.6476H0.729241L5.43539 16.4712C5.52443 16.4445 5.60548 16.3961 5.67072 16.3302L17.4358 4.56618C17.5659 4.46422 17.6447 4.31034 17.6515 4.14498C17.6582 3.97961 17.5924 3.81958 17.4711 3.70736L13.9416 0.178084C13.8348 0.0644194 13.6856 0 13.5297 0C13.3737 0 13.2246 0.0644246 13.1179 0.178289L1.35278 11.9424C1.28405 12.0103 1.23522 12.0956 1.21163 12.1894L0.0352203 16.8951C-0.0238679 17.0933 0.0354255 17.3081 0.188072 17.4478C0.287577 17.5676 0.432629 17.6403 0.588149 17.6476L0.588086 17.6476ZM13.5297 1.42488L16.224 4.11872L14.7063 5.63653L12.0121 2.94268L13.5297 1.42488ZM11.1768 3.77753L13.8711 6.47138L5.29413 15.0478L2.59987 12.3536L11.1768 3.77753ZM2.08252 13.5063L4.14136 15.5652L1.40014 16.2473L2.08252 13.5063Z" fill="black"/>
</svg>
