<svg width="16" height="17" viewBox="0 0 16 17" fill="none" xmlns="http://www.w3.org/2000/svg">
<path d="M2.81457 13.6858C4.18997 15.0611 6.05516 15.8337 8.00008 15.8337C9.9451 15.8337 11.8103 15.0612 13.1856 13.6858C14.5609 12.3104 15.3334 10.4453 15.3334 8.50033C15.3334 6.5553 14.561 4.69008 13.1856 3.31481C11.8102 1.93955 9.9451 1.16699 8.00008 1.16699C6.05506 1.16699 4.18983 1.93941 2.81457 3.31481C1.43931 4.69022 0.666748 6.5553 0.666748 8.50033C0.666748 10.4453 1.43917 12.3106 2.81457 13.6858Z" fill="#EDAC29"/>
<path d="M7.7772 6.94336H8.22388C8.46904 6.94336 8.66758 7.18852 8.66758 7.38706V12.7236C8.66758 12.9688 8.46887 13.1673 8.22388 13.1673H7.7772C7.53204 13.1673 7.3335 12.9222 7.3335 12.7236V7.38706C7.3335 7.1419 7.53221 6.94336 7.7772 6.94336Z" fill="white"/>
<path d="M7.7772 3.83398H8.22388C8.46904 3.83398 8.66758 4.07915 8.66758 4.27769V5.16807C8.66758 5.41324 8.46887 5.61178 8.22388 5.61178H7.7772C7.53204 5.61178 7.3335 5.36661 7.3335 5.16807V4.27769C7.3335 4.03252 7.53221 3.83398 7.7772 3.83398Z" fill="white"/>
</svg>
