<svg width="18" height="17" viewBox="0 0 18 17" fill="none" xmlns="http://www.w3.org/2000/svg">
<path d="M14.8343 2.66571C13.2746 1.10855 11.2044 0.25 9 0.25C6.79565 0.25 4.72554 1.1085 3.16571 2.66571C1.60855 4.2254 0.75 6.29565 0.75 8.5C0.75 10.7044 1.6085 12.7745 3.16571 14.3343C4.7254 15.8915 6.79565 16.75 9 16.75C11.2044 16.75 13.2745 15.8915 14.8343 14.3343C16.3915 12.7746 17.25 10.7044 17.25 8.5C17.25 6.29565 16.3915 4.22554 14.8343 2.66571ZM14.1047 13.6046C12.741 14.9685 10.9285 15.7187 9.00009 15.7187C7.07169 15.7187 5.2592 14.9685 3.89549 13.6046C2.53164 12.2409 1.78137 10.4284 1.78137 8.5C1.78137 6.57159 2.53164 4.75911 3.89549 3.3954C5.25916 2.03155 7.07169 1.28128 9.00009 1.28128C10.9285 1.28128 12.741 2.03155 14.1047 3.3954C15.4685 4.75907 16.2188 6.57159 16.2188 8.5C16.2188 10.4284 15.4685 12.2409 14.1047 13.6046ZM9.51571 6.95315V11.5937C9.51571 11.8798 9.28624 12.1093 9.00014 12.1093C8.71404 12.1093 8.48457 11.8798 8.48457 11.5937V6.95315C8.48457 6.66955 8.71404 6.43758 9.00014 6.43758C9.28624 6.43758 9.51571 6.66957 9.51571 6.95315ZM9.51571 4.89082C9.51571 5.17442 9.28372 5.40639 9.00014 5.40639C8.71655 5.40639 8.48457 5.17441 8.48457 4.89082C8.48457 4.60723 8.71655 4.37525 9.00014 4.37525C9.28374 4.37507 9.51571 4.60724 9.51571 4.89082Z" fill="black"/>
</svg>
