<svg xmlns="http://www.w3.org/2000/svg" width="40" height="40" viewBox="0 0 40 40" fill="none">
    <path
        d="M20.0013 38.3333C30.1101 38.3333 38.3346 30.1088 38.3346 20C38.3346 9.89119 30.1101 1.66666 20.0013 1.66666C9.89251 1.66666 1.66797 9.89119 1.66797 20C1.66797 30.1088 9.89251 38.3333 20.0013 38.3333ZM24.7088 36.3693C26.5091 34.7767 28.0122 32.3015 29.0319 29.2681C30.6122 29.5472 32.1172 29.903 33.537 30.3287C31.3448 33.1956 28.2633 35.3454 24.7088 36.3693ZM34.3215 29.2107C32.7823 28.7288 31.1426 28.3286 29.4179 28.0183C30.0428 25.778 30.4122 23.2829 30.4653 20.6486H37.0209C36.9021 23.7951 35.9268 26.7233 34.3215 29.2114V29.2107ZM37.0209 19.3515H30.4656C30.4128 16.7168 30.043 14.2214 29.4179 11.981C31.1429 11.671 32.7826 11.2706 34.3217 10.7881C35.9268 13.2761 36.9021 16.2051 37.0209 19.3515ZM33.537 9.67119C32.1175 10.0969 30.6122 10.4527 29.0319 10.7309C28.0122 7.69803 26.5088 5.22281 24.7079 3.63021C28.2628 4.65441 31.3442 6.80377 33.537 9.67119ZM20.6499 3.01074C23.6461 3.40149 26.2489 6.47239 27.767 10.9392C25.5038 11.2728 23.1121 11.4524 20.6499 11.4803V3.01074ZM20.6499 12.7776C23.2467 12.7495 25.7678 12.552 28.1527 12.1905C28.7552 14.3508 29.1167 16.7783 29.1687 19.352H20.6495L20.6499 12.7776ZM20.6499 20.6493H29.1691C29.1168 23.222 28.7556 25.6498 28.1531 27.8108C25.7682 27.4482 23.2472 27.2524 20.6502 27.2228L20.6499 20.6493ZM20.6499 28.5203C23.1118 28.5475 25.5038 28.7271 27.7664 29.0613C26.2489 33.5284 23.6463 36.5991 20.6499 36.9898V28.5203ZM19.3529 36.9892C16.3567 36.5985 13.7539 33.5285 12.2358 29.0608C14.499 28.7266 16.8907 28.547 19.3529 28.5197V36.9892ZM19.3529 27.2224C16.756 27.2516 14.235 27.448 11.85 27.8104C11.2476 25.6494 10.8861 23.2216 10.8335 20.6489H19.3526L19.3529 27.2224ZM19.3529 19.3521H10.8337C10.8863 16.7786 11.2477 14.3514 11.8502 12.1906C14.2351 12.5521 16.7567 12.7496 19.3531 12.7778L19.3529 19.3521ZM19.3529 3.01147V11.4819C16.891 11.4543 14.499 11.2744 12.2358 10.9408C13.7533 6.47374 16.3567 3.40214 19.3529 3.01147ZM15.2947 3.63099C13.4938 5.22359 11.9911 7.69881 10.9714 10.7317C9.39074 10.4537 7.88573 10.0976 6.46533 9.67197C8.65842 6.80455 11.7401 4.65518 15.2947 3.63099ZM5.68137 10.7899C7.22049 11.2718 8.86023 11.6723 10.5852 11.9823C9.95975 14.2226 9.59029 16.718 9.53777 19.3528H2.98164C3.10014 16.2063 4.07545 13.2771 5.68137 10.7899ZM2.98164 20.6491H9.53806C9.59063 23.2838 9.96008 25.7787 10.5855 28.0188C8.86053 28.3289 7.2202 28.7299 5.68108 29.2118C4.07545 26.7238 3.10008 23.7951 2.98164 20.6491ZM10.9712 29.2687C11.9906 32.3016 13.4933 34.7774 15.2942 36.3699C11.7391 35.346 8.65791 33.1961 6.46512 30.3293C7.88544 29.9036 9.39052 29.5478 10.9712 29.2687Z"
        fill="#232323" />
</svg>