<svg xmlns="http://www.w3.org/2000/svg" width="22" height="22" viewBox="0 0 22 22" fill="none">
    <g clip-path="url(#clip0_14170_659)">
      <path d="M10.9998 21.0837C16.5597 21.0837 21.0832 16.5602 21.0832 11.0003C21.0832 5.44049 16.5597 0.916992 10.9998 0.916992C5.44 0.916992 0.916504 5.44049 0.916504 11.0003C0.916504 16.5602 5.44 21.0837 10.9998 21.0837ZM13.589 20.0035C14.5791 19.1275 15.4058 17.7662 15.9666 16.0978C16.8358 16.2513 17.6636 16.447 18.4445 16.6811C17.2388 18.2579 15.5439 19.4403 13.589 20.0035ZM18.8759 16.0662C18.0294 15.8012 17.1275 15.5811 16.179 15.4104C16.5227 14.1783 16.7259 12.8059 16.7551 11.357H20.3606C20.2953 13.0876 19.7589 14.6981 18.8759 16.0666V16.0662ZM20.3606 10.6436H16.7552C16.7261 9.19457 16.5228 7.82208 16.179 6.58991C17.1277 6.41938 18.0296 6.19915 18.8761 5.93377C19.7589 7.30218 20.2953 8.91312 20.3606 10.6436ZM18.4445 5.31949C17.6638 5.55363 16.8358 5.74931 15.9666 5.90232C15.4058 4.23425 14.579 2.87288 13.5885 1.99695C15.5437 2.56026 17.2385 3.74241 18.4445 5.31949ZM11.3566 1.65624C13.0045 1.87115 14.436 3.56015 15.271 6.01688C14.0262 6.20038 12.7108 6.29916 11.3566 6.31448V1.65624ZM11.3566 7.02801C12.7848 7.01254 14.1714 6.90391 15.4831 6.70509C15.8145 7.89329 16.0133 9.22841 16.0419 10.6439H11.3564L11.3566 7.02801ZM11.3566 11.3574H16.0421C16.0133 12.7724 15.8147 14.1077 15.4833 15.2963C14.1716 15.0968 12.7851 14.9891 11.3568 14.9729L11.3566 11.3574ZM11.3566 15.6865C12.7106 15.7015 14.0262 15.8003 15.2706 15.9841C14.436 18.441 13.0046 20.1298 11.3566 20.3447V15.6865ZM10.6432 20.3444C8.99529 20.1295 7.56374 18.441 6.72878 15.9838C7.97356 15.8 9.28899 15.7012 10.6432 15.6862V20.3444ZM10.6432 14.9726C9.21493 14.9887 7.82835 15.0967 6.51663 15.296C6.18528 14.1075 5.98646 12.7722 5.95753 11.3572H10.6431L10.6432 14.9726ZM10.6432 10.644H5.95765C5.98657 9.22854 6.18538 7.89358 6.51675 6.70519C7.82843 6.904 9.21529 7.01263 10.6433 7.02811L10.6432 10.644ZM10.6432 1.65664V6.31538C9.28915 6.30022 7.97356 6.20128 6.72878 6.01778C7.56342 3.56089 8.99533 1.87151 10.6432 1.65664ZM8.41122 1.99737C7.42073 2.8733 6.59422 4.23467 6.03339 5.90275C5.16403 5.74988 4.33627 5.55404 3.55506 5.31991C4.76125 3.74283 6.45617 2.56068 8.41122 1.99737ZM3.12387 5.93476C3.97039 6.19984 4.87225 6.42008 5.821 6.59061C5.47698 7.82274 5.27378 9.19524 5.24489 10.6444H1.63902C1.7042 8.91378 2.24062 7.30273 3.12387 5.93476ZM1.63902 11.3574H5.24505C5.27397 12.8064 5.47716 14.1786 5.82116 15.4107C4.87241 15.5812 3.97023 15.8018 3.12371 16.0668C2.24062 14.6984 1.70416 13.0876 1.63902 11.3574ZM6.03327 16.0981C6.59394 17.7662 7.42045 19.1279 8.41094 20.0038C6.45562 19.4406 4.76097 18.2582 3.55494 16.6814C4.33611 16.4473 5.16391 16.2516 6.03327 16.0981Z" fill="white"/>
    </g>
    <defs>
      <clipPath id="clip0_14170_659">
        <rect width="22" height="22" fill="white"/>
      </clipPath>
    </defs>
  </svg>