<svg xmlns="http://www.w3.org/2000/svg" width="17" height="18" viewBox="0 0 17 18" fill="none">
    <path d="M8.65625 0.75021C6.46818 0.75021 4.36984 1.61931 2.8226 3.16656C1.27535 4.7138 0.40625 6.81211 0.40625 9.00021C0.40625 11.1883 1.27535 13.2866 2.8226 14.8339C4.36984 16.3811 6.46815 17.2502 8.65625 17.2502C10.8444 17.2502 12.9427 16.3811 14.4899 14.8339C16.0371 13.2866 16.9062 11.1883 16.9062 9.00021C16.9042 6.81284 16.0343 4.71556 14.4876 3.16866C12.9408 1.62198 10.8434 0.752034 8.65604 0.75L8.65625 0.75021ZM8.65625 16.4647C6.67657 16.4647 4.77779 15.6782 3.37822 14.2784C1.97865 12.8786 1.19194 10.98 1.19194 9.00039C1.19194 7.02082 1.97844 5.12192 3.37822 3.72235C4.778 2.32278 6.67668 1.53608 8.65625 1.53608C10.6358 1.53608 12.5347 2.32257 13.9343 3.72235C15.3339 5.12213 16.1206 7.02082 16.1206 9.00039C16.1185 10.9794 15.3313 12.8767 13.9319 14.2763C12.5325 15.6759 10.6351 16.4629 8.656 16.4649L8.65625 16.4647Z" fill="black"/>
    <path d="M11.7682 6.28956L7.1794 10.8783L5.54516 9.2441C5.47131 9.1697 5.37101 9.12791 5.26619 9.12791C5.16151 9.12791 5.06107 9.1697 4.98722 9.2441C4.83759 9.39688 4.83759 9.64131 4.98722 9.79411L6.90439 11.7505C6.97742 11.8238 7.07593 11.8661 7.17938 11.8684C7.29037 11.8688 7.39724 11.8266 7.47795 11.7505L12.3417 6.88668C12.4959 6.73267 12.4959 6.48287 12.3417 6.32889C12.1877 6.17488 11.9379 6.17488 11.7839 6.32889L11.7682 6.28956Z" fill="black"/>
    </svg>