<svg width="14" height="14" viewBox="0 0 14 14" fill="none" xmlns="http://www.w3.org/2000/svg">
<path d="M11.5384 2.46226C10.3253 1.25113 8.71515 0.583374 7.00065 0.583374C5.28615 0.583374 3.67607 1.2511 2.46287 2.46226C1.25174 3.67535 0.583984 5.28554 0.583984 7.00004C0.583984 8.71454 1.25171 10.3246 2.46287 11.5378C3.67596 12.7489 5.28615 13.4167 7.00065 13.4167C8.71515 13.4167 10.3252 12.749 11.5384 11.5378C12.7496 10.3247 13.4173 8.71454 13.4173 7.00004C13.4173 5.28554 12.7496 3.67546 11.5384 2.46226ZM10.971 10.9703C9.91034 12.0311 8.50059 12.6146 7.00072 12.6146C5.50085 12.6146 4.09114 12.0311 3.03048 10.9703C1.9697 9.90966 1.38616 8.49991 1.38616 7.00004C1.38616 5.50017 1.9697 4.09046 3.03048 3.02979C4.09111 1.96902 5.50085 1.38548 7.00072 1.38548C8.50059 1.38548 9.9103 1.96902 10.971 3.02979C12.0317 4.09042 12.6153 5.50017 12.6153 7.00004C12.6153 8.49991 12.0317 9.90962 10.971 10.9703ZM7.40176 5.79694V9.40625C7.40176 9.62878 7.22328 9.80725 7.00076 9.80725C6.77823 9.80725 6.59976 9.62878 6.59976 9.40625V5.79694C6.59976 5.57636 6.77823 5.39594 7.00076 5.39594C7.22328 5.39594 7.40176 5.57637 7.40176 5.79694ZM7.40176 4.1929C7.40176 4.41348 7.22132 4.5939 7.00076 4.5939C6.78019 4.5939 6.59976 4.41347 6.59976 4.1929C6.59976 3.97233 6.78019 3.7919 7.00076 3.7919C7.22133 3.79176 7.40176 3.97234 7.40176 4.1929Z" fill="black"/>
</svg>
