<svg width="26" height="26" viewBox="0 0 26 26" fill="none" xmlns="http://www.w3.org/2000/svg">
<path d="M12.7425 11.4518H13.261C13.5456 11.4518 13.776 11.7363 13.776 11.9668V18.1609C13.776 18.4455 13.5454 18.6759 13.261 18.6759H12.7425C12.458 18.6759 12.2275 18.3914 12.2275 18.1609V11.9668C12.2275 11.6822 12.4582 11.4518 12.7425 11.4518Z" fill="#232323"/>
<path d="M12.7425 7.84253H13.261C13.5456 7.84253 13.776 8.12709 13.776 8.35754V9.391C13.776 9.67556 13.5454 9.906 13.261 9.906H12.7425C12.458 9.906 12.2275 9.62144 12.2275 9.391V8.35754C12.2275 8.07297 12.4582 7.84253 12.7425 7.84253Z" fill="black"/>
<path d="M13.0003 22.2849C15.4629 22.2849 17.8245 21.3067 19.566 19.5655C21.3074 17.8243 22.2853 15.4627 22.2853 12.9999C22.2853 10.5371 21.3071 8.17572 19.566 6.43428C17.8248 4.69283 15.4631 3.71494 13.0003 3.71494C10.5375 3.71494 8.17614 4.69309 6.4347 6.43428C4.69326 8.17546 3.71537 10.5371 3.71537 12.9999C3.71537 15.4627 4.69352 17.8241 6.4347 19.5655C8.17588 21.307 10.5375 22.2849 13.0003 22.2849ZM13.0003 23.8333C10.1272 23.8333 7.37176 22.6921 5.33991 20.6604C3.30806 18.6288 2.16699 15.8733 2.16699 13C2.16699 10.1267 3.30827 7.37144 5.33991 5.33959C7.37155 3.30774 10.127 2.16667 13.0003 2.16667C15.8737 2.16667 18.6289 3.30795 20.6607 5.33959C22.6926 7.37123 23.8337 10.1267 23.8337 13C23.8337 15.8733 22.6924 18.6286 20.6607 20.6604C18.6291 22.6923 15.8737 23.8333 13.0003 23.8333Z" fill="black"/>
</svg>
