<svg width="20" height="21" viewBox="0 0 20 21" fill="none" xmlns="http://www.w3.org/2000/svg">
<path d="M3.57195 3.83334C4.09782 3.83334 4.57418 4.04683 4.91861 4.39113C5.26354 4.73606 5.47639 5.21191 5.47639 5.73779C5.47639 6.26367 5.26352 6.74002 4.91861 7.08445C4.57367 7.42939 4.09732 7.64224 3.57195 7.64224C3.04607 7.64224 2.56971 7.42874 2.22478 7.08445C1.88035 6.73952 1.66699 6.26367 1.66699 5.73779C1.66699 5.21191 1.88048 4.73555 2.22478 4.39113C2.56971 4.04619 3.04607 3.83334 3.57195 3.83334ZM7.28141 16.2909C7.061 16.2909 6.88278 16.1125 6.88278 15.8922C6.88278 15.6718 7.06112 15.4936 7.28141 15.4936H14.2543C14.4747 15.4936 14.6535 15.6719 14.6535 15.8922C14.6535 16.1126 14.4747 16.2909 14.2543 16.2909H7.28141ZM3.57195 13.9871C4.09782 13.9871 4.57418 14.2006 4.91861 14.5449C5.26354 14.8899 5.47639 15.3657 5.47639 15.8916C5.47639 16.4175 5.26352 16.8938 4.91861 17.2383C4.57367 17.5832 4.09732 17.796 3.57195 17.796C3.04607 17.796 2.56971 17.5825 2.22478 17.2383C1.88035 16.8933 1.66699 16.4175 1.66699 15.8916C1.66699 15.3657 1.88048 14.8894 2.22478 14.5449C2.56971 14.2 3.04607 13.9871 3.57195 13.9871ZM4.355 15.1092C4.15487 14.9091 3.87801 14.7851 3.57195 14.7851C3.26589 14.7851 2.98913 14.9091 2.78889 15.1092C2.58877 15.3093 2.46478 15.5862 2.46478 15.8922C2.46478 16.1978 2.58879 16.475 2.78889 16.6753C2.98902 16.8754 3.26589 16.9994 3.57195 16.9994C3.87751 16.9994 4.15425 16.8754 4.355 16.6753C4.55512 16.4752 4.67912 16.1983 4.67912 15.8922C4.67912 15.5867 4.5551 15.3099 4.355 15.1092ZM7.28148 11.2137C7.06106 11.2137 6.88284 11.0354 6.88284 10.8151C6.88284 10.5947 7.06118 10.4164 7.28148 10.4164H17.935C18.1554 10.4164 18.3336 10.5948 18.3336 10.8151C18.3336 11.0355 18.1553 11.2137 17.935 11.2137H7.28148ZM3.57201 8.91001C4.09789 8.91001 4.57424 9.1235 4.91867 9.46779C5.26361 9.81222 5.47645 10.2886 5.47645 10.8145C5.47645 11.3403 5.26358 11.8167 4.91867 12.1611C4.57374 12.5061 4.09738 12.7189 3.57201 12.7189C3.04613 12.7189 2.56977 12.5054 2.22484 12.1611C1.88041 11.8167 1.66706 11.3403 1.66706 10.8145C1.66706 10.2886 1.88055 9.81222 2.22484 9.46779C2.56977 9.12286 3.04613 8.91001 3.57201 8.91001ZM4.35506 10.032C4.15494 9.83191 3.87807 9.70792 3.57201 9.70792C3.26595 9.70792 2.9892 9.83193 2.78896 10.032C2.58883 10.2322 2.46484 10.509 2.46484 10.8151C2.46484 11.1207 2.58885 11.3979 2.78896 11.5981C2.98908 11.7983 3.26595 11.9223 3.57201 11.9223C3.87758 11.9223 4.15431 11.7982 4.35506 11.5981C4.55518 11.398 4.67918 11.1211 4.67918 10.8151C4.67918 10.5095 4.55517 10.2323 4.35506 10.032ZM7.28154 6.13659C7.06112 6.13659 6.8829 5.95824 6.8829 5.73795C6.8829 5.51753 7.06124 5.33931 7.28154 5.33931H17.935C18.1554 5.33931 18.3337 5.51765 18.3337 5.73795C18.3337 5.95837 18.1553 6.13659 17.935 6.13659H7.28154ZM4.35506 4.9549C4.15494 4.75477 3.87807 4.63078 3.57201 4.63078C3.26595 4.63078 2.9892 4.75479 2.78896 4.9549C2.58883 5.15502 2.46484 5.43189 2.46484 5.73795C2.46484 6.04352 2.58885 6.32025 2.78896 6.521C2.98908 6.72112 3.26595 6.84512 3.57201 6.84512C3.87758 6.84512 4.15431 6.72111 4.35506 6.521C4.55518 6.32087 4.67918 6.04401 4.67918 5.73795C4.67918 5.43238 4.55517 5.15514 4.35506 4.9549Z" fill="#101010"/>
</svg>
