<svg width="21" height="20" viewBox="0 0 21 20" fill="none" xmlns="http://www.w3.org/2000/svg">
<path d="M4.17429 6.00726H6.33743V4.825C6.33743 3.72704 6.78663 2.72896 7.50995 2.00554C8.23328 1.28222 9.23146 0.833008 10.3294 0.833008C11.4125 0.833008 12.3997 1.27129 13.1213 1.97966L13.1488 2.00553C13.8721 2.72885 14.3213 3.72704 14.3213 4.82499V6.00725H16.4844C17.0346 6.00725 17.5365 6.23333 17.9008 6.59693L17.9025 6.59867C18.2667 6.96412 18.4922 7.4655 18.4922 8.01499V17.1586C18.4922 17.7111 18.2661 18.2135 17.9025 18.5767C17.5388 18.9404 17.0369 19.1663 16.4844 19.1663H4.17424C3.62297 19.1663 3.12163 18.9403 2.75792 18.5767L2.75618 18.5749C2.39247 18.2112 2.1665 17.7093 2.1665 17.1581V8.01445C2.1665 7.46318 2.39258 6.96184 2.75618 6.59758C3.11989 6.23213 3.62182 6.0062 4.17425 6.0062L4.17429 6.00726ZM10.3296 9.29529C10.9319 9.29529 11.4779 9.53964 11.8733 9.93482L11.9002 9.9647C12.2794 10.3576 12.5128 10.8922 12.5128 11.4791C12.5128 11.8897 12.3981 12.2753 12.2002 12.6045C12.0476 12.8575 11.8444 13.0777 11.6041 13.2505V14.6037C11.6041 14.953 11.4607 15.2714 11.2301 15.5026L11.2284 15.5043C10.9972 15.7349 10.6789 15.8783 10.3296 15.8783C9.97852 15.8783 9.65961 15.7349 9.42899 15.5043L9.39912 15.4716C9.18571 15.2433 9.05432 14.9376 9.05432 14.6037V13.2505C8.81397 13.0777 8.61085 12.8575 8.45826 12.6045C8.25979 12.2752 8.14562 11.8897 8.14562 11.4791C8.14562 10.8785 8.3905 10.333 8.78515 9.9371L8.78689 9.93537C9.18382 9.54018 9.7288 9.29584 10.3289 9.29584L10.3296 9.29529ZM11.1974 10.6106C10.9755 10.3887 10.6686 10.2516 10.3296 10.2516C9.98877 10.2516 9.68186 10.3887 9.46167 10.6089L9.45993 10.6106C9.23906 10.831 9.10261 11.1384 9.10261 11.4785C9.10261 11.7109 9.16623 11.9277 9.27693 12.1113C9.38764 12.2948 9.54369 12.4468 9.72894 12.5506C9.89526 12.6257 10.0112 12.7927 10.0112 12.9871V14.6037C10.0112 14.6845 10.041 14.758 10.0897 14.8142L10.1047 14.8286C10.162 14.8859 10.2423 14.9221 10.3295 14.9221C10.4178 14.9221 10.4976 14.8865 10.5556 14.8291C10.613 14.7712 10.6486 14.6915 10.6486 14.603V12.9865C10.6503 12.8155 10.7426 12.6497 10.9044 12.5649C11.1011 12.4611 11.2669 12.3028 11.3828 12.1111C11.4935 11.9276 11.5572 11.7107 11.5572 11.4784C11.5572 11.148 11.4287 10.8496 11.2193 10.6305L11.1976 10.6104L11.1974 10.6106ZM7.29334 6.00726H13.3646V4.825C13.3646 3.99098 13.0228 3.2314 12.4726 2.68136L12.4508 2.65789C11.9036 2.12158 11.1539 1.78945 10.3295 1.78945C9.49425 1.78945 8.73532 2.13131 8.18514 2.68148C7.63497 3.23166 7.29311 3.99059 7.29311 4.82512V6.00738L7.29334 6.00726ZM16.4841 6.96359H4.17388C3.88472 6.96359 3.62142 7.08229 3.43164 7.27276C3.24065 7.46269 3.12247 7.72596 3.12247 8.01568V17.1593C3.12247 17.449 3.24065 17.7123 3.43058 17.9027C3.62104 18.0926 3.88432 18.2108 4.17401 18.2108H16.4842C16.7734 18.2108 17.036 18.0921 17.2264 17.9016C17.4169 17.7112 17.5356 17.4479 17.5356 17.1594V8.0158C17.5356 7.72557 17.4174 7.46228 17.2282 7.27356L17.2264 7.27183C17.0372 7.08257 16.7739 6.9644 16.4842 6.9644L16.4841 6.96359Z" fill="white"/>
</svg>
