<svg width="56" height="20" viewBox="0 0 56 20" fill="none" xmlns="http://www.w3.org/2000/svg">
<path d="M7.89933 19.9533C6.29578 19.9533 4.89267 19.6527 3.69 19.0513C2.50556 18.45 1.59444 17.5844 0.956667 16.4547C0.318889 15.3249 0 13.9947 0 12.464V0.273333H3.71733V11.9993C3.71733 13.4571 4.09089 14.5687 4.838 15.334C5.60333 16.0811 6.63289 16.4547 7.92667 16.4547C9.22044 16.4547 10.2409 16.0811 10.988 15.334C11.7533 14.5687 12.136 13.4571 12.136 11.9993V0.273333H15.7987V12.464C15.7987 13.9947 15.4798 15.3249 14.842 16.4547C14.2042 17.5844 13.284 18.45 12.0813 19.0513C10.8969 19.6527 9.50289 19.9533 7.89933 19.9533Z" fill="white"/>
<path d="M29.309 19.9533C27.3592 19.9533 25.619 19.5342 24.0884 18.696C22.5759 17.8578 21.3915 16.6824 20.535 15.17C19.6786 13.6576 19.2504 11.9356 19.2504 10.004C19.2504 8.05422 19.6877 6.32311 20.5624 4.81067C21.437 3.28 22.6488 2.09556 24.1977 1.25733C25.7466 0.419111 27.4959 0 29.4457 0C31.8146 0 33.9466 0.628666 35.8417 1.886L34.639 5.22067C32.999 4.05444 31.3135 3.47133 29.5824 3.47133C28.3068 3.47133 27.177 3.74467 26.193 4.29133C25.2272 4.838 24.471 5.60333 23.9244 6.58733C23.3777 7.57133 23.1044 8.692 23.1044 9.94933C23.1044 11.1884 23.3686 12.3091 23.897 13.3113C24.4437 14.2953 25.1999 15.0698 26.1657 15.6347C27.1497 16.1996 28.2886 16.482 29.5824 16.482C30.621 16.482 31.605 16.3089 32.5344 15.9627C33.4819 15.6164 34.3384 15.17 35.1037 14.6233L36.1424 17.876C35.1766 18.5502 34.1379 19.0696 33.0264 19.434C31.9148 19.7802 30.6757 19.9533 29.309 19.9533Z" fill="white"/>
<path d="M49.5011 14.2133H42.5584L40.6451 19.68H36.9004L44.1164 0.273333H48.1071L55.3231 19.68H51.4144L49.5011 14.2133ZM48.4624 11.2887L46.0298 4.31867L43.5971 11.2887H48.4624Z" fill="white"/>
</svg>
