<svg width="18" height="18" viewBox="0 0 18 18" fill="none" xmlns="http://www.w3.org/2000/svg">
<path d="M2.04455 1.5C1.45385 1.5 0.964355 1.99135 0.964355 2.58205V15.2545C0.964355 15.8451 1.45385 16.3364 2.04455 16.3364H11.0317C11.6224 16.3364 12.1119 15.8451 12.1119 15.2545V11.6683H11.1902V15.2545C11.1902 15.3503 11.1277 15.4147 11.0317 15.4147H2.04456C1.94858 15.4147 1.88624 15.3503 1.88624 15.2545V2.58205C1.88624 2.48622 1.94858 2.42188 2.04456 2.42188H11.0317C11.1277 2.42188 11.1902 2.48638 11.1902 2.58205V7.06298H12.1119V2.58205C12.1119 1.99135 11.6224 1.5 11.0317 1.5H2.04455ZM14.3733 6.33015L13.7215 6.9818L15.7001 8.9604H8.51672V9.8821H15.7001L13.7215 11.8607L14.3733 12.5124L17.4644 9.42133L14.3733 6.33015Z" fill="black"/>
</svg>
