<svg width="36" height="37" viewBox="0 0 36 37" fill="none" xmlns="http://www.w3.org/2000/svg">
<path d="M12.5003 3.50028C9.57053 3.50028 6.91414 4.07627 4.926 5.07021C2.9382 6.06389 1.5 7.5468 1.5 9.37838V26.9785C1.5 28.7927 2.92235 30.2685 4.91448 31.2639C6.90667 32.2596 9.56666 32.845 12.5 32.845C14.9653 32.845 17.234 32.424 19.0771 31.6992C20.5176 32.4291 22.1443 32.845 23.8666 32.845C29.7306 32.845 34.5 28.0755 34.5 22.2116C34.5 16.3476 29.7307 11.5782 23.8666 11.5782C23.7405 11.5782 23.6134 11.5854 23.4886 11.5897V9.37837C23.4886 7.54679 22.0619 6.06387 20.0741 5.06994C18.0863 4.076 15.4301 3.5 12.4997 3.5L12.5003 3.50028ZM12.5003 4.97835C15.2407 4.97835 17.7162 5.54667 19.4442 6.41065C21.1721 7.27462 22.0453 8.37469 22.0453 9.37832C21.7044 10.9357 20.5637 11.7925 19.4442 12.3345C17.7162 13.1984 15.2406 13.7668 12.5003 13.7668C9.76008 13.7668 7.28447 13.1984 5.55654 12.3345C4.27641 11.6712 3.11112 10.6605 2.95535 9.37832C2.95535 8.37469 3.82855 7.27462 5.55654 6.41065C7.28454 5.54669 9.76008 4.97835 12.5003 4.97835V4.97835ZM2.96694 12.3576C3.51019 12.8581 4.18081 13.3027 4.9264 13.6753C6.9142 14.6692 9.5704 15.2452 12.5007 15.2452C13.7714 15.2452 14.9863 15.1283 16.1217 14.9245C15.2567 15.8432 14.5559 16.9185 14.0592 18.0986C13.552 18.1431 13.0327 18.1789 12.5007 18.1789C9.7648 18.1789 7.29279 17.6088 5.56807 16.7466C3.84367 15.8839 2.96687 14.7997 2.96687 13.7784L2.96694 12.3576ZM23.8671 13.0451C28.9385 13.0451 33.0338 17.1404 33.0338 22.2118C33.0338 27.2832 28.9385 31.3786 23.8671 31.3786C18.7957 31.3786 14.7004 27.2832 14.7004 22.2118C14.7004 17.1404 18.7957 13.0451 23.8671 13.0451ZM23.7868 14.8669L23.787 14.8672C23.4093 14.9086 23.1259 15.2319 23.1338 15.6117V16.7575C22.4509 16.8593 21.8286 17.1154 21.3235 17.5139C20.6424 18.051 20.2007 18.8897 20.2007 19.8286C20.2007 20.8522 20.7979 21.6218 21.4842 22.0285C22.1702 22.4354 22.9314 22.6288 23.604 22.8879C24.3685 23.1822 25.0734 23.3943 25.4946 23.6442C25.9159 23.8941 26.0676 24.0327 26.0676 24.5951C26.0676 25.1002 25.867 25.4588 25.4946 25.7525C25.1222 26.0461 24.5552 26.2451 23.8674 26.2451C22.6909 26.2451 21.845 25.7545 21.633 25.0535C21.5844 24.8573 21.4573 24.6898 21.2811 24.5903C21.1051 24.491 20.8956 24.4688 20.7028 24.5289C20.5097 24.589 20.3501 24.7261 20.2616 24.9079C20.1728 25.0898 20.1634 25.3 20.235 25.489C20.6194 26.7597 21.8092 27.4654 23.1338 27.6546V28.812C23.1313 29.0082 23.2072 29.1974 23.3451 29.3373C23.483 29.477 23.671 29.5558 23.8674 29.5558C24.0636 29.5558 24.2518 29.477 24.3894 29.3373C24.5273 29.1974 24.6035 29.0082 24.6007 28.812V27.6546C25.2836 27.5495 25.9059 27.2968 26.411 26.8983C27.0921 26.3612 27.5338 25.5338 27.5338 24.5951C27.5338 23.5715 26.9366 22.7906 26.2503 22.3837C25.5643 21.9768 24.8031 21.7835 24.1305 21.5244C23.366 21.23 22.6611 21.0179 22.2399 20.768C21.8186 20.5182 21.6669 20.391 21.6669 19.8283C21.6669 19.3232 21.8675 18.9646 22.2399 18.671C22.6123 18.3773 23.1793 18.1783 23.8671 18.1783C25.0436 18.1783 25.8895 18.6574 26.1015 19.3584L26.1017 19.3587C26.1434 19.5605 26.268 19.7354 26.4452 19.8406C26.6222 19.9459 26.8355 19.9718 27.0327 19.9119C27.2299 19.8523 27.3929 19.7122 27.4816 19.5262C27.5704 19.3403 27.577 19.1257 27.4995 18.9346C27.1151 17.664 25.9255 16.9583 24.6007 16.769V15.6117C24.6053 15.4004 24.5183 15.1976 24.3625 15.0549C24.2068 14.9124 23.9971 14.8439 23.7871 14.8669L23.7868 14.8669ZM2.96716 16.7575C3.50709 17.254 4.17364 17.6931 4.91509 18.0637C6.9065 19.0594 9.56649 19.6451 12.5006 19.6451C12.8589 19.6451 13.2062 19.6285 13.5549 19.6106C13.3454 20.4424 13.2341 21.3156 13.2341 22.2115C13.2341 22.33 13.2418 22.4494 13.2457 22.5668C12.9999 22.5763 12.7533 22.5781 12.5009 22.5781C9.76491 22.5781 7.29291 22.0079 5.56818 21.1457C3.84353 20.2841 2.96679 19.1996 2.96679 18.1783L2.96716 16.7575ZM2.96716 21.1575C3.50709 21.6542 4.17364 22.0931 4.91509 22.4637C6.9065 23.4594 9.56649 24.0448 12.5006 24.0448C12.8014 24.0448 13.1006 24.0361 13.3942 24.0221C13.5684 25.0324 13.884 25.9948 14.3224 26.8867C13.7311 26.9455 13.1261 26.9782 12.5006 26.9782C9.76463 26.9782 7.29262 26.4081 5.5679 25.5459C3.8435 24.684 2.9667 23.5995 2.9667 22.5785L2.96716 21.1575ZM2.96716 25.5575C3.50709 26.0542 4.17364 26.4931 4.91509 26.8637C6.9065 27.8594 9.56649 28.4448 12.5006 28.4448C13.4136 28.4448 14.3004 28.3929 15.1475 28.2844C15.7918 29.208 16.576 30.0127 17.4735 30.6907C16.0273 31.1158 14.3244 31.3782 12.5006 31.3782C9.76541 31.3782 7.29367 30.8081 5.5679 29.9459C3.84246 29.084 2.9667 27.9993 2.9667 26.9785L2.96716 25.5575Z" fill="#DCDCDC"/>
</svg>
