<svg width="24" height="61" viewBox="0 0 24 61" fill="none" xmlns="http://www.w3.org/2000/svg">
<path d="M19.5402 23.4241C19.5402 23.4517 19.5288 23.4907 19.5357 23.5183C19.5357 23.516 19.554 23.4241 19.5402 23.4724C19.538 23.4792 19.538 23.4884 19.5357 23.4953C19.5311 23.5137 19.5288 23.5321 19.5242 23.5482C19.515 23.5803 19.5035 23.6079 19.4943 23.64C19.4782 23.6929 19.5311 23.5688 19.5035 23.6171C19.492 23.6377 19.4851 23.6584 19.4736 23.6768C19.4576 23.7066 19.4392 23.7365 19.4208 23.7664C19.4116 23.7801 19.4001 23.7962 19.391 23.81C19.345 23.8766 19.4185 23.7801 19.3887 23.8123C19.3335 23.8743 19.2807 23.934 19.221 23.9914C19.1865 24.0236 19.1544 24.0535 19.1176 24.081C19.1016 24.0948 19.0832 24.1086 19.0671 24.1224C19.1176 24.0787 19.0878 24.1063 19.0556 24.1292C18.9706 24.1913 18.8857 24.2487 18.7961 24.3015C18.5917 24.4255 18.3781 24.5289 18.1622 24.6254C18.1484 24.6322 18.1346 24.6368 18.1208 24.6437C18.1254 24.6414 18.1713 24.6231 18.1346 24.6391C18.107 24.6506 18.0772 24.6621 18.0496 24.6736C17.9853 24.6989 17.9233 24.7241 17.859 24.7471C17.7258 24.7976 17.5903 24.8436 17.4524 24.8872C17.1539 24.9837 16.853 25.064 16.5475 25.1375C16.2191 25.2156 15.886 25.2822 15.553 25.342C15.1924 25.404 14.8754 25.4499 14.5378 25.489C13.0609 25.6635 11.5634 25.698 10.0775 25.6107C8.70172 25.5303 7.38107 25.3603 6.0466 24.9699C5.77099 24.8895 5.49537 24.7976 5.22893 24.6919C5.19907 24.6805 5.17151 24.669 5.14395 24.6575C5.12328 24.6483 5.05897 24.623 5.11409 24.646C5.05207 24.6185 4.98777 24.5909 4.92575 24.5633C4.8224 24.5151 4.71904 24.4646 4.61798 24.4094C4.52151 24.3566 4.42505 24.3015 4.33318 24.2418C4.28954 24.2142 4.2482 24.1844 4.20685 24.1545C4.18848 24.1407 4.17011 24.1269 4.15173 24.1132C4.1035 24.0787 4.20226 24.1545 4.14254 24.1063C4.07364 24.0488 4.00474 23.9891 3.94272 23.9248C3.91516 23.8973 3.8899 23.8674 3.86463 23.8398C3.85774 23.8329 3.85315 23.8261 3.84626 23.8192C3.8141 23.7824 3.86004 23.8444 3.86693 23.8444C3.85774 23.8421 3.83707 23.8008 3.83018 23.7939C3.80951 23.764 3.79113 23.7365 3.77505 23.7043C3.76587 23.6905 3.75898 23.6745 3.75209 23.6584C3.7452 23.6446 3.71074 23.5711 3.73831 23.6308C3.76357 23.6882 3.72682 23.5941 3.71993 23.5734C3.71074 23.5412 3.70385 23.5068 3.69696 23.4746C3.68318 23.4218 3.70385 23.5711 3.69926 23.4976C3.69926 23.4815 3.69696 23.4655 3.69696 23.4517V23.392C3.69926 23.3483 3.71534 23.3162 3.69696 23.3782C3.71074 23.3276 3.71993 23.2771 3.73831 23.2266C3.7429 23.2151 3.74749 23.2036 3.75209 23.1921C3.74979 23.1967 3.72223 23.2495 3.7429 23.2174C3.75898 23.1921 3.77046 23.1646 3.78424 23.1393C3.79802 23.1163 3.8118 23.0934 3.82558 23.0727C3.84166 23.0497 3.87382 23.0084 3.83707 23.0543C3.87841 23.0015 3.92435 22.951 3.97258 22.9027C4.01622 22.8591 4.06445 22.8155 4.11269 22.7764C4.12417 22.7672 4.18618 22.7167 4.14714 22.7465C4.18389 22.719 4.22293 22.6914 4.25968 22.6639C4.51233 22.4893 4.78563 22.3492 5.06585 22.2275C5.07733 22.2229 5.15083 22.1907 5.10949 22.2091C5.06815 22.2275 5.15543 22.1907 5.16921 22.1861C5.22433 22.1631 5.28175 22.1425 5.33687 22.1195C5.45401 22.0759 5.57344 22.0345 5.69288 21.9932C5.95242 21.9082 6.21425 21.8324 6.47838 21.7658C7.07556 21.6142 7.6819 21.4994 8.29285 21.4144C8.43066 21.3937 8.57306 21.3776 8.7453 21.357C8.91297 21.3386 9.07834 21.3202 9.24601 21.3041C9.60661 21.2697 9.96952 21.2444 10.3324 21.2283C11.0835 21.1916 11.8368 21.187 12.5902 21.2146C13.9476 21.2628 15.2246 21.3983 16.5384 21.7106C17.0505 21.8324 17.5605 21.9817 18.0497 22.1769C18.0749 22.1861 18.1002 22.1976 18.1255 22.2068C18.1829 22.2297 18.0749 22.1838 18.153 22.2183C18.2058 22.2412 18.2564 22.2642 18.3069 22.2872C18.4631 22.3584 18.617 22.4388 18.764 22.526C18.8283 22.5651 18.8903 22.6041 18.9523 22.6455C18.9822 22.6661 19.012 22.6845 19.0396 22.7052C19.0534 22.7144 19.0672 22.7259 19.0809 22.735C19.1108 22.7557 19.0603 22.7167 19.1039 22.7534C19.2027 22.8361 19.2945 22.9234 19.3772 23.0199C19.3841 23.029 19.4209 23.075 19.3933 23.0405C19.368 23.0061 19.3956 23.0451 19.3979 23.0497C19.4117 23.0727 19.4277 23.0933 19.4415 23.1163C19.4553 23.1393 19.4668 23.16 19.4806 23.1829C19.4967 23.2151 19.5081 23.2472 19.4875 23.1921C19.5058 23.2426 19.5196 23.2909 19.5334 23.3414C19.5357 23.3529 19.538 23.3644 19.5403 23.3759C19.5403 23.3759 19.5357 23.3047 19.5357 23.3437C19.5357 23.369 19.5403 23.3965 19.5403 23.4241C19.5426 23.6032 19.6965 23.7778 19.8848 23.7686C20.0686 23.7594 20.2316 23.617 20.2293 23.4241C20.2201 22.8039 19.7516 22.3446 19.267 22.0253C18.7778 21.7038 18.2127 21.4833 17.6569 21.3018C16.4029 20.8976 15.0776 20.7001 13.7661 20.5898C12.2272 20.4612 10.6746 20.4704 9.13785 20.6197C7.85853 20.7437 6.56543 20.9527 5.34814 21.3776C4.76247 21.582 4.18364 21.837 3.69444 22.2205C3.25803 22.5627 2.93649 23.0497 3.0215 23.6239C3.07432 23.9868 3.32238 24.3083 3.59339 24.5426C3.97926 24.8756 4.43404 25.103 4.90258 25.2982C6.1635 25.8219 7.54392 26.0539 8.89443 26.2009C10.4402 26.3685 12.0066 26.3892 13.5571 26.2721C14.9789 26.1664 16.4235 25.9597 17.7788 25.5027C18.2864 25.3304 18.7963 25.126 19.2488 24.832C19.5818 24.6161 19.9217 24.3382 20.094 23.9707C20.1767 23.7961 20.2272 23.6147 20.2295 23.4217C20.2318 23.2426 20.0688 23.068 19.885 23.0772C19.6967 23.0887 19.5428 23.2311 19.5405 23.424L19.5402 23.4241Z" fill="#101010"/>
<path d="M19.5388 23.4241V24.8757V27.3379V28.0591C19.5388 28.1096 19.5365 28.1601 19.5365 28.2107C19.5342 28.2842 19.5526 28.1372 19.5388 28.1877C19.5342 28.2061 19.5319 28.2245 19.5273 28.2405C19.5181 28.2796 19.5043 28.3163 19.4929 28.3554C19.4768 28.4082 19.5296 28.2842 19.502 28.3324C19.4929 28.3485 19.486 28.3669 19.4768 28.3852C19.4561 28.4243 19.4331 28.461 19.4102 28.4955C19.3987 28.5138 19.3849 28.5299 19.3734 28.546C19.3574 28.5736 19.3987 28.5115 19.3987 28.5138C19.3918 28.5161 19.3803 28.5368 19.3757 28.5437C19.3436 28.5805 19.3114 28.6172 19.277 28.6517C19.2448 28.6838 19.2127 28.7137 19.1805 28.7435C19.1621 28.7596 19.1437 28.7757 19.1231 28.7918C19.1139 28.8009 19.0404 28.8607 19.0817 28.8262C19.1254 28.7918 19.0542 28.8469 19.045 28.8538C19.022 28.8698 19.0013 28.8859 18.9784 28.8997C18.9278 28.9342 18.8773 28.9663 18.8268 28.9985C18.7234 29.0628 18.6155 29.1225 18.5075 29.1776C18.3835 29.2396 18.2595 29.2994 18.1309 29.3522C18.0941 29.3683 18.14 29.3476 18.1446 29.3476C18.1263 29.3545 18.1079 29.3637 18.0872 29.3706C18.0597 29.382 18.0298 29.3935 18.0022 29.405C17.9287 29.4349 17.8529 29.4624 17.7794 29.4877C17.4694 29.6002 17.1547 29.6944 16.8354 29.7771C15.3195 30.1744 13.8106 30.3237 12.2395 30.3605C10.6295 30.3972 9.00331 30.3031 7.45544 30.0137C6.77099 29.8851 6.08885 29.7197 5.43426 29.4831C5.36535 29.4578 5.29645 29.4326 5.22754 29.405C5.19309 29.3912 5.16094 29.3775 5.12648 29.366C5.1127 29.3614 5.09892 29.3545 5.08514 29.3476C5.13108 29.366 5.09663 29.3522 5.07136 29.3407C4.94963 29.2879 4.8302 29.2305 4.71076 29.1707C4.59822 29.1133 4.49027 29.0513 4.38232 28.9847C4.33868 28.9571 4.29504 28.9273 4.2514 28.8997C4.22844 28.8836 4.20776 28.8676 4.1848 28.8538C4.15264 28.8308 4.10671 28.7895 4.16413 28.84C4.08603 28.7734 4.01024 28.7114 3.93904 28.6379C3.90918 28.608 3.88162 28.5759 3.85406 28.5437C3.80583 28.4863 3.86095 28.5575 3.85636 28.5483C3.84487 28.5276 3.82879 28.5093 3.81501 28.4886C3.79204 28.4541 3.77137 28.4197 3.753 28.3852C3.74381 28.3669 3.73692 28.3508 3.72773 28.3324C3.70706 28.2934 3.75529 28.4151 3.73233 28.3393C3.72084 28.3071 3.71165 28.2727 3.70247 28.2405C3.69787 28.2222 3.69558 28.2038 3.69098 28.1877C3.6795 28.1372 3.69558 28.2819 3.69328 28.2015C3.68869 28.0591 3.69098 27.9144 3.69098 27.7697V25.4936V23.5298V23.4196H3.00195C3.01114 24.3429 3.99648 24.9056 4.73604 25.2248C6.05442 25.7921 7.49451 26.0471 8.91394 26.1987C10.5148 26.371 12.1386 26.387 13.7442 26.2538C15.1912 26.1344 16.6727 25.9139 18.0394 25.4086C18.5332 25.2248 19.0271 25.0089 19.4473 24.6897C19.7758 24.4416 20.0882 24.1247 20.1892 23.7136C20.2122 23.6194 20.226 23.5183 20.226 23.4196C20.2283 23.2404 20.0652 23.0659 19.8814 23.0751C19.6954 23.0888 19.5415 23.2312 19.5392 23.4242C19.5392 23.4494 19.5277 23.5551 19.5369 23.4862C19.5461 23.4196 19.5254 23.5321 19.5185 23.5551C19.5117 23.5826 19.4841 23.6263 19.4841 23.6539C19.4818 23.6263 19.5208 23.5781 19.4933 23.6309C19.4841 23.6516 19.4726 23.6699 19.4634 23.6906C19.445 23.7228 19.4244 23.7549 19.4037 23.7871C19.3945 23.8008 19.3807 23.8169 19.3716 23.8307C19.3555 23.8583 19.3968 23.7963 19.3968 23.7986C19.3853 23.8031 19.3738 23.8261 19.367 23.8353C19.3118 23.9019 19.2498 23.9616 19.1878 24.0213C19.1534 24.0535 19.1166 24.0811 19.0822 24.1109C19.0362 24.15 19.135 24.0719 19.073 24.1178C19.0523 24.1339 19.0293 24.15 19.0087 24.166C18.9191 24.2303 18.8249 24.2878 18.7307 24.3429C18.6251 24.4026 18.5194 24.46 18.4115 24.5129C18.3564 24.5404 18.2989 24.5657 18.2438 24.591C18.2163 24.6024 18.191 24.6139 18.1634 24.6277C18.1497 24.6346 18.1359 24.6392 18.1221 24.6461C18.1864 24.6185 18.1198 24.6461 18.106 24.653C17.5295 24.8872 16.93 25.0572 16.3237 25.1904C15.9654 25.2708 15.6048 25.3374 15.2442 25.3948C14.8859 25.45 14.5919 25.489 14.2198 25.5281C12.6786 25.6865 11.1191 25.7003 9.57347 25.5786C8.82703 25.5189 8.16781 25.4385 7.43973 25.3007C6.78744 25.1789 6.13974 25.0205 5.51501 24.8C5.38639 24.754 5.25777 24.7058 5.13144 24.6553C5.12226 24.6507 5.06254 24.6277 5.10158 24.6438C5.13833 24.6599 5.0924 24.6392 5.0878 24.6369C5.06024 24.6254 5.03268 24.6139 5.00741 24.6024C4.9454 24.5749 4.88568 24.5473 4.82597 24.5175C4.61925 24.4164 4.41484 24.3039 4.22652 24.1706L4.1714 24.1293C4.15991 24.1201 4.14843 24.1109 4.13465 24.1017C4.13465 24.1017 4.18747 24.1454 4.15991 24.1224C4.12316 24.088 4.08182 24.0581 4.04507 24.0259C3.97846 23.9662 3.91645 23.9019 3.85903 23.833C3.81539 23.7825 3.84984 23.8422 3.86592 23.8445C3.85903 23.8422 3.83836 23.8077 3.83376 23.8008C3.8108 23.7664 3.78783 23.7319 3.76946 23.6975C3.75797 23.6791 3.70744 23.5758 3.735 23.6332C3.76256 23.6883 3.735 23.6309 3.72811 23.6148C3.72122 23.5964 3.71663 23.5804 3.71204 23.562C3.70285 23.5321 3.70285 23.4908 3.69136 23.4609C3.70744 23.4931 3.69825 23.5505 3.69596 23.4816C3.69596 23.4632 3.69366 23.4448 3.69366 23.4265C3.69136 23.2473 3.53748 23.0728 3.34914 23.082C3.1631 23.0911 3.00462 23.2335 3.00462 23.4265V24.9332V27.4298V28.1005C3.00462 28.3876 3.0896 28.6632 3.25957 28.8975C3.54667 29.2902 3.96011 29.5704 4.38958 29.7887C4.96148 30.0803 5.57701 30.2847 6.19486 30.4478C7.75439 30.859 9.38512 31.022 10.9928 31.0611C12.6534 31.1001 14.3255 30.9945 15.9608 30.689C16.6614 30.5581 17.3573 30.3881 18.028 30.1401C18.5493 29.9471 19.0638 29.7175 19.5048 29.3752C19.8241 29.1272 20.1295 28.7965 20.2076 28.3853C20.2421 28.2039 20.2329 28.0224 20.2329 27.841V25.5718V23.5437V23.4311C20.2329 23.252 20.0744 23.0774 19.8883 23.0866C19.6977 23.0889 19.5392 23.2313 19.5392 23.4242L19.5388 23.4241Z" fill="#101010"/>
<path d="M19.5388 28.1418V29.5934V32.0556V32.7768C19.5388 32.8273 19.5365 32.8778 19.5365 32.9284C19.5342 33.0019 19.5526 32.8549 19.5388 32.9054C19.5342 32.9238 19.5319 32.9421 19.5273 32.9582C19.5181 32.9973 19.5043 33.034 19.4929 33.0731C19.4768 33.1259 19.5296 33.0019 19.502 33.0501C19.4929 33.0662 19.486 33.0845 19.4768 33.1029C19.4561 33.142 19.4331 33.1787 19.4102 33.2132C19.3987 33.2315 19.3849 33.2476 19.3734 33.2637C19.3574 33.2913 19.3987 33.2292 19.3987 33.2315C19.3918 33.2338 19.3803 33.2545 19.3757 33.2614C19.3436 33.2981 19.3114 33.3349 19.277 33.3693C19.2448 33.4015 19.2127 33.4314 19.1805 33.4612C19.1621 33.4773 19.1437 33.4934 19.1231 33.5094C19.1139 33.5186 19.0404 33.5784 19.0817 33.5439C19.1254 33.5094 19.0542 33.5646 19.045 33.5715C19.022 33.5875 19.0013 33.6036 18.9784 33.6197C18.9278 33.6541 18.8773 33.6863 18.8268 33.7185C18.7234 33.7828 18.6155 33.8425 18.5075 33.8976C18.3835 33.9596 18.2595 34.0193 18.1309 34.0722C18.0941 34.0882 18.14 34.0676 18.1446 34.0676C18.1263 34.0745 18.1079 34.0836 18.0872 34.0905C18.0597 34.102 18.0298 34.1135 18.0022 34.125C17.9287 34.1548 17.8529 34.1824 17.7794 34.2077C17.4694 34.3202 17.1547 34.4144 16.8354 34.4971C15.3195 34.8944 13.8106 35.0437 12.2395 35.0805C10.6295 35.1172 9.00331 35.0231 7.45544 34.7337C6.77099 34.605 6.08885 34.4397 5.43426 34.2031C5.36535 34.1778 5.29645 34.1526 5.22754 34.125C5.19309 34.1112 5.16094 34.0974 5.12648 34.086C5.1127 34.0814 5.09892 34.0745 5.08514 34.0676C5.13108 34.086 5.09663 34.0722 5.07136 34.0607C4.94963 34.0079 4.8302 33.9504 4.71076 33.8907C4.59822 33.8333 4.49027 33.7713 4.38232 33.7047C4.33868 33.6771 4.29504 33.6473 4.2514 33.6174C4.22844 33.6013 4.20776 33.5852 4.1848 33.5692C4.15264 33.5462 4.10671 33.5049 4.16413 33.5554C4.08603 33.4888 4.01024 33.4268 3.93904 33.3533C3.90918 33.3234 3.88162 33.2913 3.85406 33.2591C3.80583 33.2017 3.86095 33.2729 3.85636 33.2637C3.84487 33.243 3.82879 33.2247 3.81501 33.204C3.79204 33.1695 3.77137 33.1351 3.753 33.1006C3.74381 33.0822 3.73692 33.0662 3.72773 33.0478C3.70706 33.0088 3.75529 33.1305 3.73233 33.0547C3.72084 33.0225 3.71165 32.9881 3.70247 32.9559C3.69787 32.9375 3.69558 32.9192 3.69098 32.9031C3.6795 32.8526 3.69558 32.9973 3.69328 32.9169C3.68869 32.7745 3.69098 32.6298 3.69098 32.4851V30.209V28.2452V28.1349H3.00195C3.01114 29.0582 3.99648 29.621 4.73604 29.9402C6.05442 30.5075 7.49451 30.7625 8.91394 30.9141C10.5148 31.0863 12.1386 31.1024 13.7442 30.9692C15.1912 30.8498 16.6727 30.6293 18.0394 30.124C18.5332 29.9402 19.0271 29.7243 19.4473 29.4051C19.7758 29.157 20.0882 28.8401 20.1892 28.429C20.2122 28.3348 20.226 28.2337 20.226 28.135C20.2283 27.9558 20.0652 27.7813 19.8814 27.7904C19.6954 27.8065 19.5415 27.9489 19.5392 28.1419C19.5392 28.1671 19.5277 28.2728 19.5369 28.2039C19.5461 28.1373 19.5254 28.2498 19.5185 28.2728C19.5117 28.3003 19.4841 28.344 19.4841 28.3715C19.4818 28.344 19.5208 28.2957 19.4933 28.3486C19.4841 28.3692 19.4726 28.3876 19.4634 28.4083C19.445 28.4404 19.4244 28.4726 19.4037 28.5048C19.3945 28.5185 19.3807 28.5346 19.3716 28.5484C19.3555 28.576 19.3968 28.5139 19.3968 28.5162C19.3853 28.5208 19.3738 28.5438 19.367 28.553C19.3118 28.6196 19.2498 28.6793 19.1878 28.739C19.1534 28.7712 19.1166 28.7988 19.0822 28.8286C19.0362 28.8677 19.135 28.7896 19.073 28.8355C19.0523 28.8516 19.0293 28.8677 19.0087 28.8837C18.9191 28.948 18.8249 29.0055 18.7307 29.0606C18.6251 29.1203 18.5194 29.1777 18.4115 29.2305C18.3564 29.2581 18.2989 29.2834 18.2438 29.3086C18.2163 29.3201 18.191 29.3316 18.1634 29.3454C18.1497 29.3523 18.1359 29.3569 18.1221 29.3638C18.1864 29.3362 18.1198 29.3638 18.106 29.3707C17.5295 29.6049 16.93 29.7749 16.3237 29.9081C15.9654 29.9885 15.6048 30.0551 15.2442 30.1125C14.8859 30.1677 14.5919 30.2067 14.2198 30.2457C12.6786 30.4042 11.1191 30.418 9.57347 30.2963C8.82703 30.2366 8.16781 30.1562 7.43973 30.0184C6.78744 29.8966 6.13974 29.7381 5.51501 29.5177C5.38639 29.4717 5.25777 29.4235 5.13144 29.373C5.12226 29.3684 5.06254 29.3454 5.10158 29.3615C5.13833 29.3775 5.0924 29.3569 5.0878 29.3546C5.06024 29.3431 5.03268 29.3316 5.00741 29.3201C4.9454 29.2926 4.88568 29.265 4.82597 29.2351C4.61925 29.1341 4.41484 29.0215 4.22652 28.8883L4.1714 28.847C4.15991 28.8378 4.14843 28.8286 4.13465 28.8194C4.13465 28.8194 4.18747 28.8631 4.15991 28.8401C4.12316 28.8056 4.08182 28.7758 4.04507 28.7436C3.97846 28.6839 3.91645 28.6196 3.85903 28.5507C3.81539 28.5002 3.84984 28.5599 3.86592 28.5622C3.85903 28.5599 3.83836 28.5254 3.83376 28.5185C3.8108 28.4841 3.78783 28.4496 3.76946 28.4152C3.75797 28.3968 3.70744 28.2935 3.735 28.3509C3.76256 28.406 3.735 28.3486 3.72811 28.3325C3.72122 28.3141 3.71663 28.298 3.71204 28.2797C3.70285 28.2498 3.70285 28.2085 3.69136 28.1786C3.70744 28.2108 3.69825 28.2682 3.69596 28.1993C3.69596 28.1809 3.69366 28.1625 3.69366 28.1442C3.69136 27.965 3.53748 27.7905 3.34914 27.7996C3.1631 27.8088 3.00462 27.9512 3.00462 28.1442V29.6509V32.1452V32.8159C3.00462 33.103 3.0896 33.3786 3.25957 33.6129C3.54667 34.0057 3.96011 34.2858 4.38958 34.5041C4.96148 34.7958 5.57701 35.0002 6.19486 35.1632C7.75439 35.5744 9.38512 35.7374 10.9928 35.7765C12.6534 35.8156 14.3255 35.7099 15.9608 35.4044C16.6614 35.2735 17.3573 35.1035 18.028 34.8555C18.5493 34.6626 19.0638 34.4329 19.5048 34.0907C19.8241 33.8426 20.1295 33.5119 20.2076 33.1008C20.2421 32.9193 20.2329 32.7379 20.2329 32.5564V30.2872V28.2591V28.1466C20.2329 27.9674 20.0744 27.7928 19.8883 27.802C19.6977 27.8066 19.5392 27.949 19.5392 28.142L19.5388 28.1418Z" fill="#101010"/>
<path d="M19.5393 32.8591V34.4508V36.9819C19.5393 37.1771 19.5416 37.37 19.5393 37.5653C19.5393 37.5951 19.5232 37.6457 19.5347 37.6686C19.5255 37.6457 19.5531 37.5699 19.537 37.6388C19.5324 37.6549 19.5301 37.6709 19.5278 37.6847C19.5186 37.7215 19.5048 37.7559 19.4934 37.7904C19.4796 37.8386 19.5347 37.7054 19.5025 37.7674C19.4957 37.7835 19.4888 37.7973 19.4796 37.8133C19.4612 37.8478 19.4405 37.8845 19.4199 37.9167C19.4107 37.9328 19.3992 37.9466 19.39 37.9626C19.3854 37.9695 19.3808 37.9741 19.3762 37.981C19.3487 38.0224 19.3992 37.9512 19.4015 37.9489C19.3693 37.9695 19.3418 38.0201 19.3142 38.0499C19.2522 38.1165 19.1879 38.1762 19.119 38.2337C19.1029 38.2474 19.0845 38.2612 19.0662 38.275C19.0616 38.2796 19.1236 38.2337 19.0662 38.275C19.0225 38.3072 18.9789 38.3393 18.9329 38.3692C18.7423 38.4955 18.5402 38.6034 18.3312 38.7022C18.2784 38.7275 18.2232 38.7527 18.1704 38.7757C18.1543 38.7826 18.1383 38.7895 18.1222 38.7964C18.1314 38.7918 18.1911 38.7688 18.1314 38.7918C18.0992 38.8056 18.0648 38.8193 18.0326 38.8308C17.9017 38.8814 17.7708 38.9296 17.6398 38.9755C17.3504 39.0743 17.0542 39.1616 16.7579 39.2351C16.4271 39.32 16.0941 39.3913 15.7588 39.4533C15.5796 39.4854 15.4005 39.5176 15.2213 39.5451C15.1294 39.5589 15.0353 39.5727 14.9434 39.5865C14.8538 39.598 14.8217 39.6026 14.7137 39.6163C13.896 39.7197 13.0715 39.7771 12.247 39.7955C11.3948 39.8162 10.5404 39.7955 9.69062 39.7335C8.90743 39.676 8.22067 39.5934 7.46041 39.451C6.8219 39.3315 6.18566 39.1776 5.57013 38.9663C5.43921 38.9204 5.30829 38.8722 5.17967 38.8216C5.14981 38.8102 5.12225 38.7987 5.09239 38.7872C5.05564 38.7734 5.11306 38.7964 5.11306 38.7964C5.09699 38.7895 5.08091 38.7826 5.06483 38.7757C5.00282 38.7481 4.94081 38.7206 4.88109 38.693C4.67437 38.5965 4.47455 38.4863 4.28391 38.36C4.24486 38.3324 4.20582 38.3049 4.16677 38.2773C4.16218 38.275 4.13461 38.2543 4.13461 38.2543C4.13461 38.252 4.20352 38.3094 4.15758 38.2727C4.13921 38.2566 4.11854 38.2405 4.09786 38.2245C4.02896 38.167 3.96465 38.105 3.90493 38.0407C3.88196 38.0155 3.8567 37.9718 3.82914 37.9534C3.88885 37.9925 3.86588 38.0017 3.83603 37.9603C3.82454 37.9443 3.81306 37.9259 3.80157 37.9098C3.7832 37.8799 3.76483 37.8501 3.74875 37.8179C3.73956 37.8019 3.73267 37.7835 3.72348 37.7651C3.70281 37.7284 3.75334 37.8547 3.73037 37.7812C3.72119 37.749 3.7097 37.7192 3.70281 37.687C3.69822 37.6686 3.69592 37.6503 3.69133 37.6342C3.67295 37.5607 3.69592 37.7077 3.69362 37.6595C3.69362 37.6273 3.68903 37.5974 3.68903 37.5653V37.3701V35.1031V32.9809V32.8591H3C3.00919 33.7824 3.99453 34.3452 4.73409 34.6644C6.05247 35.2317 7.49256 35.4867 8.91199 35.6383C10.5129 35.8105 12.1367 35.8266 13.7423 35.6934C15.1892 35.574 16.6707 35.3535 18.0375 34.8482C18.5313 34.6644 19.0251 34.4485 19.4454 34.1293C19.7738 33.8812 20.0862 33.5643 20.1873 33.1531C20.2102 33.059 20.224 32.9579 20.224 32.8591C20.2263 32.68 20.0632 32.5054 19.8795 32.5146C19.6957 32.5238 19.5419 32.6662 19.5396 32.8591C19.5396 32.8844 19.5281 32.9901 19.5373 32.9212C19.5465 32.8546 19.5258 32.9671 19.5189 32.9901C19.512 33.0176 19.4844 33.0613 19.4844 33.0888C19.4821 33.0613 19.5212 33.013 19.4936 33.0659C19.4844 33.0865 19.473 33.1049 19.4638 33.1256C19.4454 33.1577 19.4247 33.1899 19.404 33.222C19.3949 33.2358 19.3811 33.2519 19.3719 33.2657C19.3558 33.2933 19.3972 33.2312 19.3972 33.2335C19.3857 33.2381 19.3742 33.2611 19.3673 33.2703C19.3122 33.3369 19.2502 33.3966 19.1882 33.4563C19.1537 33.4885 19.117 33.516 19.0825 33.5459C19.0366 33.5849 19.1353 33.5069 19.0733 33.5528C19.0526 33.5689 19.0297 33.5849 19.009 33.601C18.9194 33.6653 18.8253 33.7228 18.7311 33.7779C18.6254 33.8376 18.5198 33.895 18.4118 33.9478C18.3567 33.9754 18.2993 34.0007 18.2442 34.0259C18.2166 34.0374 18.1913 34.0489 18.1638 34.0627C18.15 34.0696 18.1362 34.0742 18.1224 34.0811C18.1867 34.0535 18.1201 34.0811 18.1064 34.0879C17.5298 34.3222 16.9304 34.4922 16.324 34.6254C15.9657 34.7058 15.6051 34.7724 15.2445 34.8298C14.8862 34.8849 14.5922 34.924 14.2201 34.963C12.679 35.1215 11.1194 35.1353 9.57381 35.0136C8.82737 34.9538 8.16816 34.8735 7.44007 34.7356C6.78778 34.6139 6.14008 34.4554 5.51535 34.2349C5.38673 34.189 5.25811 34.1408 5.13178 34.0902C5.1226 34.0856 5.06288 34.0627 5.10192 34.0788C5.13867 34.0948 5.09274 34.0742 5.08814 34.0719C5.06058 34.0604 5.03302 34.0489 5.00775 34.0374C4.94574 34.0099 4.88602 33.9823 4.82631 33.9524C4.61959 33.8514 4.41518 33.7388 4.22686 33.6056L4.17174 33.5643C4.16025 33.5551 4.14877 33.5459 4.13499 33.5367C4.13499 33.5367 4.18781 33.5804 4.16025 33.5574C4.1235 33.5229 4.08216 33.4931 4.04541 33.4609C3.9788 33.4012 3.91679 33.3369 3.85937 33.268C3.81573 33.2175 3.85018 33.2772 3.86626 33.2795C3.85937 33.2772 3.8387 33.2427 3.8341 33.2358C3.81114 33.2014 3.78817 33.1669 3.7698 33.1325C3.75831 33.1141 3.70778 33.0107 3.73534 33.0682C3.76291 33.1233 3.73534 33.0659 3.72845 33.0498C3.72156 33.0314 3.71697 33.0153 3.71238 32.997C3.70319 32.9671 3.70319 32.9258 3.6917 32.8959C3.70778 32.9281 3.69859 32.9855 3.6963 32.9166C3.6963 32.8982 3.694 32.8798 3.694 32.8615C3.6917 32.6823 3.53782 32.5077 3.34948 32.5169C3.16344 32.5261 3.00496 32.6685 3.00496 32.8615V34.5083V37.0554C3.00496 37.23 3.00267 37.4045 3.00496 37.5768C3.01185 37.9535 3.191 38.2865 3.44595 38.5552C3.75372 38.8791 4.15564 39.1157 4.55761 39.3017C5.10885 39.5612 5.69225 39.7518 6.2825 39.9011C7.80756 40.2916 9.39927 40.4523 10.9704 40.4914C12.6379 40.5327 14.3191 40.4271 15.9615 40.1216C16.6115 39.9999 17.2546 39.8437 17.8794 39.6278C18.3709 39.4555 18.867 39.2511 19.3011 38.9594C19.6272 38.7412 19.9511 38.4633 20.1141 38.0959C20.2106 37.8754 20.2336 37.6572 20.2336 37.4206V35.1743V32.9855V32.8615C20.2336 32.6823 20.0751 32.5078 19.8891 32.5169C19.6984 32.5215 19.54 32.6662 19.54 32.8592L19.5393 32.8591Z" fill="#101010"/>
</svg>
