<svg width="36" height="37" viewBox="0 0 36 37" fill="none" xmlns="http://www.w3.org/2000/svg">
<path d="M8.96312 2C4.85052 2 1.5 5.35031 1.5 9.46312C1.5 11.2286 2.14216 12.8297 3.17236 14.1096V30.8785C3.17236 32.2615 4.31251 33.4016 5.69547 33.4016H22.313V33.3049C23.6059 34.3959 25.254 35.0806 27.0722 35.0806C31.1652 35.0806 34.5 31.743 34.5 27.65C34.5 25.887 33.8559 24.2856 32.8243 23.0099V6.27352C32.8243 4.89056 31.6842 3.75345 30.3012 3.75345H13.7416V3.77941C12.4421 2.68536 10.7885 2.00071 8.96312 2.00071V2ZM8.96312 3.64973C12.1839 3.64973 14.7793 6.24214 14.7793 9.46291C14.7793 12.6837 12.1839 15.2758 8.96312 15.2758C5.74206 15.2758 3.14995 12.6837 3.14995 9.46291C3.14995 6.24214 5.74206 3.64973 8.96312 3.64973ZM15.211 5.40277H30.3013C30.7987 5.40277 31.1747 5.77536 31.1747 6.27282V21.4663C29.998 20.683 28.5881 20.2226 27.0725 20.2226C27.0352 20.2226 27.0004 20.2317 26.9631 20.2323V20.2256H9.74953V21.8757H22.4584C21.3904 22.7311 20.5712 23.8629 20.1027 25.1751H9.74911V26.8251H19.7287C19.6978 27.0994 19.645 27.3676 19.645 27.6499C19.645 29.1662 20.1043 30.5742 20.8887 31.752H5.69522C5.19778 31.752 4.82185 31.3761 4.82185 30.8786V15.6625C5.95563 16.4223 7.31208 16.8676 8.76595 16.9065V16.9258H26.2468V15.2758H13.5797C14.6339 14.4373 15.4553 13.3363 15.9351 12.0537H26.247V10.4037H16.3317C16.3718 10.0916 16.4284 9.78584 16.4284 9.46294C16.4284 7.96536 15.9743 6.57307 15.2103 5.4028L15.211 5.40277ZM4.83829 8.6379V10.2876H13.0877V8.6379H4.83829ZM27.0721 21.8721C30.2735 21.8721 32.8499 24.4485 32.8499 27.6497C32.8499 30.8513 30.2735 33.4305 27.0721 33.4305C23.871 33.4305 21.2946 30.8513 21.2946 27.6497C21.2946 24.4485 23.871 21.8721 27.0721 21.8721ZM26.2474 23.5478V26.8249H22.9702V28.4747H26.2474V31.7551H27.8971V28.4747H31.1742V26.8249H27.8971V23.5478H26.2474Z" fill="#DCDCDC"/>
</svg>
