<svg width="21" height="23" viewBox="0 0 21 23" fill="none" xmlns="http://www.w3.org/2000/svg">
<path d="M0.429811 16.3818H3.44225V13.6852C3.44225 12.9827 3.72912 12.3449 4.19124 11.883C4.65396 11.421 5.29174 11.134 5.99342 11.134H9.9337V9.11289C8.91337 9.01189 7.99687 8.55588 7.3105 7.86972C6.52929 7.08851 6.04573 6.00897 6.04573 4.81763C6.04573 3.62569 6.52865 2.54599 7.3105 1.76478C8.09172 0.983567 9.17125 0.5 10.3626 0.5C11.5545 0.5 12.6334 0.983527 13.4154 1.76478C14.1967 2.54599 14.6802 3.62553 14.6802 4.81763C14.6802 6.00957 14.1967 7.08847 13.4154 7.86972C12.7291 8.55604 11.8126 9.01187 10.7922 9.11289V11.134H14.7325C15.4356 11.134 16.0748 11.4215 16.5382 11.8842C17.0015 12.3476 17.289 12.9866 17.289 13.6898V16.3816H20.3014C20.5385 16.3816 20.7305 16.5736 20.7305 16.8113V22.0703C20.7305 22.3073 20.5385 22.5 20.3014 22.5H13.4181C13.181 22.5 12.9891 22.308 12.9891 22.0703V16.8113C12.9891 16.5742 13.1811 16.3816 13.4181 16.3816H16.4306V13.6898C16.4306 13.2232 16.2394 12.7995 15.9315 12.491C15.6238 12.1833 15.1995 11.992 14.7327 11.992H5.9933C5.52793 11.992 5.10497 12.1825 4.79791 12.4896C4.49084 12.7967 4.30027 13.2196 4.30027 13.685V16.3816H7.31195C7.54903 16.3816 7.74164 16.5736 7.74164 16.8113V22.0703C7.74164 22.3074 7.54966 22.5 7.31195 22.5H0.429049C0.191972 22.5 0 22.308 0 22.0703V16.8113C0 16.5742 0.192741 16.3818 0.429811 16.3818ZM19.8712 17.2405H13.8469V21.6417H19.8712V17.2405ZM12.808 2.37193C12.1825 1.74638 11.3176 1.3591 10.3628 1.3591C9.40773 1.3591 8.54301 1.74635 7.91746 2.37193C7.2919 2.99749 6.90463 3.86236 6.90463 4.81723C6.90463 5.77226 7.29187 6.63697 7.91746 7.26252C8.54301 7.88808 9.40789 8.27536 10.3628 8.27536C11.3178 8.27536 12.1825 7.88811 12.808 7.26252C13.4336 6.63697 13.8209 5.7721 13.8209 4.81723C13.8209 3.8622 13.4336 2.99749 12.808 2.37193ZM6.88298 17.2405H0.858739V21.6417H6.88298V17.2405Z" fill="white"/>
</svg>
