<svg width="21" height="22" viewBox="0 0 21 22" fill="none" xmlns="http://www.w3.org/2000/svg">
<path d="M0.429811 15.8818H3.44225V13.1852C3.44225 12.4827 3.72912 11.8449 4.19124 11.383C4.65396 10.921 5.29174 10.634 5.99342 10.634H9.9337V8.61289C8.91337 8.51189 7.99687 8.05588 7.3105 7.36972C6.52929 6.58851 6.04573 5.50897 6.04573 4.31763C6.04573 3.12569 6.52865 2.04599 7.3105 1.26478C8.09172 0.483567 9.17125 0 10.3626 0C11.5545 0 12.6334 0.483527 13.4154 1.26478C14.1967 2.04599 14.6802 3.12553 14.6802 4.31763C14.6802 5.50957 14.1967 6.58847 13.4154 7.36972C12.7291 8.05604 11.8126 8.51187 10.7922 8.61289V10.634H14.7325C15.4356 10.634 16.0748 10.9215 16.5382 11.3842C17.0015 11.8476 17.289 12.4866 17.289 13.1898V15.8816H20.3014C20.5385 15.8816 20.7305 16.0736 20.7305 16.3113V21.5703C20.7305 21.8073 20.5385 22 20.3014 22H13.4181C13.181 22 12.9891 21.808 12.9891 21.5703V16.3113C12.9891 16.0742 13.1811 15.8816 13.4181 15.8816H16.4306V13.1898C16.4306 12.7232 16.2394 12.2995 15.9315 11.991C15.6238 11.6833 15.1995 11.492 14.7327 11.492H5.9933C5.52793 11.492 5.10497 11.6825 4.79791 11.9896C4.49084 12.2967 4.30027 12.7196 4.30027 13.185V15.8816H7.31195C7.54903 15.8816 7.74164 16.0736 7.74164 16.3113V21.5703C7.74164 21.8074 7.54966 22 7.31195 22H0.429049C0.191972 22 0 21.808 0 21.5703V16.3113C0 16.0742 0.192741 15.8818 0.429811 15.8818ZM19.8712 16.7405H13.8469V21.1417H19.8712V16.7405ZM12.808 1.87193C12.1825 1.24638 11.3176 0.8591 10.3628 0.8591C9.40773 0.8591 8.54301 1.24635 7.91746 1.87193C7.2919 2.49749 6.90463 3.36236 6.90463 4.31723C6.90463 5.27226 7.29187 6.13697 7.91746 6.76252C8.54301 7.38808 9.40789 7.77536 10.3628 7.77536C11.3178 7.77536 12.1825 7.38811 12.808 6.76252C13.4336 6.13697 13.8209 5.2721 13.8209 4.31723C13.8209 3.3622 13.4336 2.49749 12.808 1.87193ZM6.88298 16.7405H0.858739V21.1417H6.88298V16.7405Z" fill="#9C9C9C"/>
</svg>
