<svg width="18" height="18" viewBox="0 0 18 18" fill="none" xmlns="http://www.w3.org/2000/svg">
<path d="M14.0894 7.87508H4.52685V5.62502C4.52685 3.14444 6.54619 1.1249 9.02697 1.1249C11.5076 1.1249 13.5271 3.14424 13.5271 5.62502C13.5271 5.93441 13.7774 6.18747 14.0895 6.18747C14.4017 6.18747 14.652 5.93439 14.652 5.62502C14.652 2.52272 12.1293 0 9.02697 0C5.92467 0 3.40195 2.52272 3.40195 5.62502V7.87508C3.40195 7.90039 3.41313 7.92569 3.41608 7.951C2.44003 8.19564 1.71436 9.07319 1.71436 10.1249V15.7499C1.71436 16.9902 2.7241 18 3.96441 18H14.0895C15.3297 18 16.3395 16.9903 16.3395 15.7499V10.1249C16.3395 8.88465 15.3298 7.87506 14.0895 7.87506L14.0894 7.87508ZM15.2143 15.7501C15.2143 16.3716 14.7109 16.875 14.0894 16.875L3.96435 16.8752C3.34284 16.8752 2.83945 16.3718 2.83945 15.7503V10.1253C2.83945 9.50377 3.34284 9.00038 3.96435 9.00038H14.0894C14.7109 9.00038 15.2143 9.50377 15.2143 10.1253V15.7501ZM10.7144 12.3751C10.7144 12.6873 10.464 12.9376 10.1519 12.9376H9.58947V14.6252C9.58947 14.9373 9.33914 15.1877 9.02702 15.1877C8.7149 15.1877 8.46457 14.9373 8.46457 14.6252V12.9376H7.90212C7.58999 12.9376 7.33967 12.6873 7.33967 12.3751C7.33967 12.063 7.59 11.8127 7.90212 11.8127H10.1522C10.4641 11.8127 10.7144 12.063 10.7144 12.3751H10.7144Z" fill="black"/>
</svg>
