<svg width="17" height="18" viewBox="0 0 17 18" fill="none" xmlns="http://www.w3.org/2000/svg">
<path d="M15.5446 16.2794H0.985268C0.717324 16.2794 0.5 16.4969 0.5 16.7647C0.5 17.0326 0.717502 17.2499 0.985268 17.2499H15.5446C15.8125 17.2499 16.0299 17.0324 16.0299 16.7647C16.0299 16.4969 15.8125 16.2794 15.5446 16.2794Z" fill="black"/>
<path d="M0.985196 15.3092H1.10165L4.98422 14.3387C5.05768 14.3167 5.12454 14.2768 5.17837 14.2224L14.8846 4.51707C14.9919 4.43295 15.0569 4.306 15.0625 4.16957C15.0681 4.03315 15.0137 3.90112 14.9137 3.80854L12.0019 0.896889C11.9137 0.803115 11.7906 0.749969 11.662 0.749969C11.5334 0.749969 11.4103 0.80312 11.3223 0.897058L1.61607 10.6024C1.55937 10.6584 1.51908 10.7289 1.49962 10.8062L0.529081 14.6884C0.480333 14.8519 0.52925 15.0292 0.655184 15.1444C0.737275 15.2433 0.856944 15.3032 0.985248 15.3093L0.985196 15.3092ZM11.662 1.92549L13.8848 4.14791L12.6327 5.4001L10.41 3.17768L11.662 1.92549ZM9.72093 3.86643L11.9437 6.08885L4.86768 13.1644L2.64492 10.9417L9.72093 3.86643ZM2.2181 11.8927L3.91665 13.5912L1.65514 14.154L2.2181 11.8927Z" fill="black"/>
</svg>
