<svg width="20" height="20" viewBox="0 0 20 20" fill="none" xmlns="http://www.w3.org/2000/svg">
<path d="M10 2.5C8.51664 2.5 7.0666 2.93987 5.83323 3.76398C4.59986 4.58809 3.63856 5.75943 3.07091 7.12987C2.50325 8.50032 2.35472 10.0083 2.64411 11.4632C2.9335 12.918 3.64781 14.2544 4.6967 15.3033C5.7456 16.3522 7.08197 17.0665 8.53683 17.3559C9.99168 17.6453 11.4997 17.4967 12.8701 16.9291C14.2406 16.3614 15.4119 15.4001 16.236 14.1668C17.0601 12.9334 17.5 11.4834 17.5 10C17.4942 8.01265 16.7022 6.10836 15.2969 4.70309C13.8916 3.29782 11.9873 2.50578 10 2.5Z" fill="#004CDE"/>
<path d="M9.98715 5C9.53847 5.00578 9.17774 5.29796 9.17774 5.65742V5.66718V12.2399V12.2492C9.17774 12.6121 9.54506 12.9066 9.99952 12.9066C10.4538 12.9066 10.8213 12.6127 10.8213 12.2492V12.2394V5.66667V5.65807C10.8213 5.29514 10.454 5.00064 9.99952 5.00064L9.98715 5ZM9.99935 14.1667H9.9878C9.53414 14.1667 9.16602 14.5045 9.16602 14.8681C9.16602 15.2315 9.53334 15.5255 9.9878 15.5255H9.99999H10.0109C10.4646 15.5255 10.8327 15.2316 10.8327 14.8681C10.8327 14.5046 10.4654 14.1667 10.0109 14.1667H9.99935Z" fill="white"/>
</svg>
