<svg width="36" height="37" viewBox="0 0 36 37" fill="none" xmlns="http://www.w3.org/2000/svg">
<path d="M23.9512 34.9034H9.99825C8.95085 34.9034 8.12789 34.0805 8.12789 33.0331V17.0602H2.25482C1.95553 17.0602 1.65625 16.8731 1.54402 16.5738C1.43182 16.2745 1.54402 15.9379 1.76842 15.7508L16.5069 3.6683C16.7689 3.4439 17.1801 3.4439 17.4794 3.6683L21.9309 7.44637C22.2302 7.70834 22.3051 8.19445 22.0431 8.49377C21.7811 8.79306 21.295 8.86795 20.9957 8.60597L17.0306 5.23945L4.34957 15.5639H8.87598C9.28747 15.5639 9.62406 15.9005 9.62406 16.3119L9.62379 33.033C9.62379 33.2201 9.81088 33.4071 9.99797 33.4071H23.9509C24.138 33.4071 24.3251 33.2201 24.3251 33.033V25.4393C24.3251 25.0278 24.6617 24.6912 25.0731 24.6912C25.4846 24.6912 25.8212 25.0278 25.8212 25.4393V33.033C25.8212 34.0804 24.9982 34.9033 23.9508 34.9033L23.9512 34.9034Z" fill="#DCDCDC"/>
<path d="M25.0734 25.7016C19.8737 25.7016 15.6467 21.4745 15.6467 16.275C15.6467 11.0754 19.8738 6.88574 25.0734 6.88574C30.2729 6.88574 34.5 11.1128 34.5 16.3124C34.5 21.5117 30.2729 25.7016 25.0734 25.7016V25.7016ZM25.0734 8.38203C20.6967 8.38203 17.143 11.9357 17.143 16.3124C17.143 20.689 20.6966 24.2427 25.0734 24.2427C29.45 24.243 33.0037 20.6891 33.0037 16.3124C33.0037 11.9357 29.4501 8.38203 25.0734 8.38203V8.38203Z" fill="#DCDCDC"/>
<path d="M25.0733 22.3719C24.6618 22.3719 24.3252 22.0353 24.3252 21.6239V11.2246C24.3252 10.8131 24.6618 10.4766 25.0733 10.4766C25.4847 10.4766 25.8214 10.8132 25.8214 11.2246V21.6239C25.8214 22.0353 25.4847 22.3722 25.0733 22.3722V22.3719Z" fill="#DCDCDC"/>
<path d="M30.273 17.0225H19.8738C19.4623 17.0225 19.1257 16.6859 19.1257 16.2744C19.1257 15.863 19.4623 15.5264 19.8738 15.5264H30.273C30.6845 15.5264 31.0211 15.863 31.0211 16.2744C31.0211 16.6859 30.6845 17.0225 30.273 17.0225Z" fill="#DCDCDC"/>
</svg>
