<svg width="18" height="18" viewBox="0 0 18 18" fill="none" xmlns="http://www.w3.org/2000/svg">
<g clip-path="url(#clip0_573_3031)">
<path d="M6.08658 12.0729L2.23643 14.0797C1.95647 14.2197 1.76978 14.4996 1.72307 14.8265C1.67635 15.1532 1.81634 15.4566 2.04975 15.6665C2.65641 16.1799 3.7066 16.9033 5.29328 17.4166C6.22659 17.72 7.44008 18 8.88675 18C10.0302 18 11.3135 17.8366 12.6904 17.3699C14.207 16.8566 15.2105 16.1565 15.7939 15.6665C16.0273 15.4566 16.1673 15.1532 16.1206 14.8265C16.0738 14.4998 15.8871 14.2431 15.6072 14.0797L11.687 12.0496C11.6403 12.0263 11.617 11.9796 11.617 11.9329V11.3028C11.617 11.2561 11.617 11.2328 11.6403 11.2095C12.3404 10.4162 12.8071 9.29601 12.9705 8.82936C13.1572 8.64266 13.4371 8.2927 13.5771 7.56937C13.7406 6.75257 13.4372 6.2392 13.2272 6.02923L13.227 3.34565V3.27566C12.9236 1.45555 11.7803 0.66221 10.8703 0.312106C9.79678 -0.107836 7.95341 -0.107836 6.87993 0.335382C5.61994 0.825495 4.84985 1.85206 4.61646 3.27552V6.02893C4.40649 6.26235 4.1031 6.75227 4.26651 7.56907C4.40649 8.2924 4.66318 8.6658 4.87317 8.82906C5.03659 9.29572 5.50325 10.3925 6.17987 11.1858C6.20315 11.2325 6.22659 11.2791 6.22659 11.3258V11.8859C6.22659 11.9562 6.18004 12.0495 6.0866 12.0729L6.08658 12.0729ZM6.87992 10.5561C6.27326 9.85597 5.85315 8.78265 5.73648 8.47926C5.68977 8.33928 5.61977 8.22257 5.50307 8.1293C5.47979 8.10603 5.29309 7.91933 5.17639 7.35926C5.08312 6.93932 5.2231 6.70588 5.31637 6.61246C5.47979 6.44904 5.54979 6.21579 5.54979 6.0058L5.54995 3.36893C5.73665 2.29545 6.29674 1.57212 7.25334 1.19888C8.11669 0.84893 9.70353 0.84893 10.5901 1.17561C11.5702 1.549 12.1536 2.29563 12.3402 3.36912V6.00598C12.3402 6.21596 12.4335 6.44939 12.5736 6.61265C12.6669 6.70591 12.7836 6.93932 12.7136 7.35944C12.5969 7.91952 12.4337 8.08278 12.387 8.12949C12.2702 8.22275 12.2003 8.33946 12.1535 8.47944C12.0368 8.78284 11.6169 9.87961 10.9868 10.5795C10.8234 10.7662 10.7301 11.0229 10.7301 11.2796V11.9096C10.7301 12.3063 10.9635 12.6797 11.3135 12.8664L15.2336 14.8965V14.9432C14.7203 15.3866 13.8102 16.0167 12.4335 16.4599C9.56338 17.4167 7.15985 17.02 5.61976 16.5066C4.17305 16.0399 3.23957 15.3866 2.70292 14.9199V14.8732L6.55307 12.8664C6.94974 12.6564 7.18315 12.2598 7.18315 11.8396L7.18331 11.3261C7.16003 11.0462 7.0666 10.766 6.87991 10.5561L6.87992 10.5561Z" fill="black"/>
<path d="M-60.1443 -22.89C-55.0974 -26.2533 -48.3714 -24.5736 -45.0074 -19.5267C-41.6441 -14.4798 -43.3238 -7.7537 -48.3707 -4.3897C-48.3707 -4.3897 -105.547 34.2903 -130.773 39.3333C-140.863 42.6966 -152.636 46.0599 -161.043 54.4703C-169.453 61.1969 -176.18 71.2863 -176.18 88.1033C-177.863 118.373 -176.18 136.873 -174.496 143.599C-103.867 204.138 150.074 204.138 220.704 143.599C220.704 136.873 222.388 118.372 222.388 88.1033C222.388 71.2873 215.661 61.1973 207.251 54.4703C198.84 46.0601 187.071 42.6973 176.981 39.3333C150.075 34.2864 92.8945 -4.3897 92.8945 -4.3897C87.8476 -7.753 86.1679 -14.4797 89.5312 -19.5267C92.8946 -24.5736 101.304 -26.2533 106.347 -22.89C106.347 -22.89 160.159 12.426 182.023 17.469C193.796 20.8323 208.929 25.8792 222.382 37.649C234.155 47.739 244.245 64.555 244.245 88.098C244.245 130.141 242.562 150.321 242.562 150.321C240.878 153.684 240.878 155.368 239.198 157.048C203.882 197.407 106.348 210.86 20.5783 210.86C-68.5507 209.176 -157.682 194.044 -192.992 157.048C-194.675 155.364 -196.355 153.684 -196.355 150.321C-196.355 150.321 -199.718 130.141 -199.718 88.098C-198.035 64.555 -189.628 47.739 -176.175 37.649C-164.402 25.876 -149.269 20.833 -135.816 17.469C-113.953 12.4221 -60.1403 -22.89 -60.1403 -22.89H-60.1443Z" fill="black"/>
</g>
<defs>
<clipPath id="clip0_573_3031">
<rect width="18" height="18" fill="white"/>
</clipPath>
</defs>
</svg>
