<svg width="21" height="22" viewBox="0 0 21 22" fill="none" xmlns="http://www.w3.org/2000/svg">
<path d="M0.00014039 20.3617C0.00014039 20.5359 0.0694127 20.7028 0.19256 20.8262C0.315708 20.9493 0.482834 21.0184 0.657003 21.0184H9.42174C20.6886 21.0184 22.4449 11.4702 20.0872 6.20806C19.104 4.01363 17.3974 2.22291 15.2526 1.1355C13.1078 0.0478563 10.6548 -0.27078 8.3034 0.233014C5.95191 0.7366 3.84458 2.03184 2.33319 3.90239C0.821983 5.77294 -0.00179853 8.10523 2.94838e-06 10.5104L0.00014039 20.3617ZM1.31353 10.5097C1.31353 8.07093 2.28244 5.73222 4.00673 4.00747C5.73125 2.28318 8.06996 1.31427 10.5089 1.31427C12.9475 1.31427 15.2864 2.28318 17.0106 4.00747C18.7351 5.73199 19.7038 8.0707 19.7038 10.5097C19.7038 12.9482 18.7351 15.2871 17.0106 17.0113C15.2863 18.7358 12.9473 19.7045 10.5089 19.7045H1.31353V10.5097Z" fill="#101010"/>
<path d="M14.3253 11.8983C14.9691 11.2876 15.3128 10.4367 15.269 9.56231C15.225 8.68772 14.798 7.87357 14.0961 7.32704C13.5047 6.89988 12.786 6.67345 12.0502 6.682C11.3141 6.69075 10.6014 6.93417 10.0206 7.37502C9.39312 6.91994 8.62523 6.68709 7.84343 6.71465C7.06183 6.7422 6.3132 7.0285 5.72109 7.52646C5.11474 8.10013 4.77271 8.88877 4.77271 9.71225C4.77271 10.5359 5.11473 11.3246 5.72109 11.8982L8.72127 14.7583C9.07097 15.0882 9.53862 15.2727 10.0253 15.2727C10.5121 15.2727 10.9797 15.0882 11.3296 14.7583L14.3253 11.8983ZM9.50119 13.9784L6.50307 11.1189H6.50326C6.112 10.7504 5.89112 10.2427 5.89112 9.7123C5.89112 9.18203 6.11202 8.67441 6.50326 8.30585C6.88198 7.96791 7.38105 7.78711 7.89437 7.80168C8.54135 7.80004 9.16437 8.04163 9.63313 8.47644C9.85066 8.68409 10.1985 8.68409 10.416 8.47644C10.7953 8.09088 11.3026 7.84872 11.8478 7.79346C12.3929 7.73799 12.9405 7.87284 13.3933 8.17391C13.8473 8.5248 14.1244 9.0492 14.1534 9.6132C14.1824 10.1774 13.9606 10.7263 13.5448 11.1195L10.5467 13.9784C10.4068 14.1103 10.2198 14.184 10.0251 14.184C9.8304 14.184 9.64339 14.1103 9.50335 13.9784L9.50119 13.9784Z" fill="#101010"/>
</svg>
