<svg width="36" height="37" viewBox="0 0 36 37" fill="none" xmlns="http://www.w3.org/2000/svg">
<path d="M13.6776 31.1101C13.4211 31.1104 13.1895 30.9558 13.0913 30.7186C12.9931 30.4815 13.0473 30.2085 13.2288 30.027L16.3729 26.8829C17.1158 26.1356 18.1268 25.7161 19.1806 25.7189H25.6229C25.9894 25.7197 26.3411 25.5742 26.5998 25.3141L32.6287 19.2852L32.6284 19.2855C32.8268 19.0874 32.938 18.8185 32.938 18.5385C32.9383 18.2582 32.8271 17.9895 32.629 17.7912C32.4309 17.5931 32.1622 17.4816 31.882 17.4816C31.6014 17.4807 31.3322 17.5922 31.1344 17.7912L27.0297 21.8967C26.7815 22.1446 26.3798 22.1443 26.1319 21.8964C25.8843 21.6485 25.8845 21.2465 26.1324 20.9989L30.2383 16.8936C30.6735 16.4557 31.2655 16.2103 31.8828 16.2119C32.4998 16.2119 33.0913 16.4571 33.5273 16.8934C33.9634 17.3294 34.2085 17.9212 34.2082 18.5379C34.2082 19.1549 33.9631 19.7464 33.5268 20.1825L27.4979 26.2114H27.4981C27.0018 26.7105 26.3264 26.9902 25.6228 26.988H19.1811C18.4637 26.9866 17.7754 27.2721 17.2702 27.7812L14.1264 30.925C14.0074 31.044 13.8459 31.1107 13.6776 31.1101L13.6776 31.1101Z" fill="#DCDCDC"/>
<path d="M7.52568 24.9583C7.26921 24.9583 7.03791 24.8036 6.93969 24.5665C6.84148 24.3294 6.8957 24.0566 7.0772 23.8751L10.6662 20.2848C11.4096 19.5375 12.4206 19.1186 13.4743 19.1211H24.8889C25.7126 19.1319 26.4692 19.5776 26.8782 20.2928C27.2871 21.008 27.2871 21.8861 26.8782 22.6016C26.4693 23.3169 25.7126 23.7626 24.8889 23.7733H19.0805C18.7302 23.7733 18.4461 23.4892 18.4461 23.1387C18.4461 22.7881 18.7302 22.504 19.0805 22.504H24.8872C25.2599 22.4968 25.6013 22.2937 25.7856 21.9697C25.9699 21.6458 25.9699 21.2487 25.7856 20.9245C25.6013 20.6005 25.2599 20.3977 24.8872 20.3905H13.4741C12.7578 20.3932 12.0713 20.6782 11.5636 21.1837L7.97494 24.7724C7.85597 24.8919 7.69412 24.9588 7.52535 24.9583L7.52568 24.9583Z" fill="#DCDCDC"/>
<path d="M13.3072 34.9997C12.6706 35.0008 12.0597 34.7482 11.6101 34.2975L3.70292 26.3925C3.09674 25.786 2.85993 24.9023 3.0818 24.074C3.30369 23.2457 3.95086 22.5988 4.7789 22.3769C5.60723 22.1547 6.49095 22.3915 7.09737 22.998L15.0046 30.9038C15.4544 31.3537 15.707 31.964 15.7068 32.6003C15.7068 33.2367 15.4539 33.8467 15.004 34.2966C14.5539 34.7464 13.9438 34.999 13.3075 34.999L13.3072 34.9997ZM5.40002 23.5639C5.10011 23.5639 4.81237 23.6829 4.60045 23.8951C4.38824 24.107 4.269 24.3947 4.269 24.6946C4.269 24.9946 4.38824 25.2823 4.60045 25.4942L12.5076 33.4014C12.7199 33.6136 13.0073 33.7326 13.3072 33.7326C13.6074 33.7326 13.8949 33.6133 14.1071 33.4014C14.319 33.1892 14.4382 32.9015 14.4382 32.6016C14.4382 32.3016 14.319 32.0139 14.1068 31.802L6.1996 23.8941C5.9874 23.6821 5.69966 23.5632 5.39975 23.5637L5.40002 23.5639Z" fill="#DCDCDC"/>
<path d="M21.4693 10.2475H21.4641C20.9063 10.2461 20.3721 10.0231 19.9783 9.62803C19.5849 9.23294 19.3641 8.69756 19.3652 8.1398C19.3661 7.58203 19.5885 7.04749 19.9833 6.65355C20.3781 6.25961 20.9132 6.03851 21.471 6.03906C22.0288 6.03962 22.5636 6.2615 22.9578 6.65604C23.352 7.05057 23.5734 7.58537 23.5734 8.14313C23.5734 8.49367 23.2892 8.77781 22.939 8.77781C22.5884 8.77781 22.3043 8.49367 22.3043 8.14313C22.3043 7.8056 22.101 7.50126 21.7892 7.37203C21.4773 7.24255 21.1185 7.31393 20.8794 7.55215C20.6407 7.79064 20.5687 8.14948 20.6974 8.46157C20.8263 8.77365 21.1301 8.97757 21.4676 8.97812C21.8182 8.97812 22.1023 9.26226 22.1023 9.6128C22.1023 9.96334 21.8182 10.2475 21.4676 10.2475L21.4693 10.2475Z" fill="#DCDCDC"/>
<path d="M21.4659 13.1849C20.9081 13.1838 20.3739 12.9616 19.9799 12.5671C19.586 12.1728 19.3644 11.6383 19.3635 11.0809C19.3635 10.7303 19.6477 10.4462 19.9982 10.4462C20.3487 10.4462 20.6329 10.7303 20.6329 11.0809C20.6337 11.4176 20.8371 11.7205 21.1483 11.8489C21.4598 11.9773 21.8176 11.9054 22.0555 11.6671C22.2932 11.4286 22.3643 11.0706 22.2351 10.7597C22.1062 10.4487 21.8027 10.2459 21.466 10.2459C21.1155 10.2459 20.8313 9.96178 20.8313 9.61124C20.8313 9.2607 21.1155 8.97656 21.466 8.97656C22.2177 8.97656 22.9121 9.37774 23.2882 10.0287C23.6639 10.6797 23.6639 11.4818 23.2882 12.1328C22.9122 12.7838 22.2178 13.1849 21.466 13.1849L21.4659 13.1849Z" fill="#DCDCDC"/>
<path d="M21.4672 14.2652C21.1166 14.2652 20.8328 13.9814 20.8328 13.6308V12.5507C20.8328 12.2002 21.1166 11.916 21.4672 11.916C21.8177 11.916 22.1018 12.2002 22.1018 12.5507V13.6292C22.1024 13.7977 22.0357 13.9595 21.9165 14.0791C21.7975 14.1983 21.6359 14.2653 21.4672 14.2653L21.4672 14.2652Z" fill="#DCDCDC"/>
<path d="M21.4672 7.3085C21.1166 7.3085 20.8328 7.02437 20.8328 6.67383V5.59562C20.8328 5.24508 21.1166 4.96094 21.4672 4.96094C21.8177 4.96094 22.1018 5.24508 22.1018 5.59562V6.67383C22.1018 6.84204 22.0349 7.00361 21.9159 7.12258C21.797 7.24155 21.6357 7.3085 21.4672 7.3085Z" fill="#DCDCDC"/>
<path d="M21.4673 17.2265C17.2693 17.2265 13.854 13.811 13.854 9.61326C13.8543 5.41531 17.2692 2 21.4673 2C25.6652 2 29.0805 5.41552 29.0805 9.61326C29.0805 13.811 25.665 17.2265 21.4673 17.2265ZM21.4673 3.26923C17.9701 3.26923 15.1235 6.11508 15.1235 9.61298C15.1235 13.1109 17.9694 15.9593 21.4673 15.9593C24.9652 15.9593 27.811 13.1134 27.811 9.61524C27.811 6.11671 24.9652 3.26923 21.4673 3.26923V3.26923Z" fill="#DCDCDC"/>
</svg>
