<svg width="18" height="18" viewBox="0 0 18 18" fill="none" xmlns="http://www.w3.org/2000/svg">
<path d="M9 0.75C6.81188 0.75 4.71354 1.61922 3.1663 3.1663C1.61922 4.71359 0.75 6.81193 0.75 9C0.75 11.1881 1.61922 13.2865 3.1663 14.8337C4.71359 16.3808 6.81193 17.25 9 17.25C11.1881 17.25 13.2865 16.3808 14.8337 14.8337C16.3808 13.2864 17.25 11.1881 17.25 9C17.25 6.81193 16.3808 4.71353 14.8337 3.1663C13.2864 1.61922 11.1881 0.75 9 0.75ZM1.66662 9.00005C1.66662 7.05519 2.43924 5.18994 3.81446 3.81451C5.18989 2.4393 7.05514 1.66667 9 1.66667C10.7838 1.66238 12.5067 2.3151 13.8399 3.50002L3.49986 13.8401C2.31494 12.5068 1.66222 10.784 1.66652 9.00016L1.66662 9.00005ZM9 16.3334C7.21616 16.3377 5.49334 15.685 4.16007 14.5001L14.5001 4.16002C15.6851 5.49328 16.3378 7.21616 16.3335 8.99995C16.3335 10.9448 15.5609 12.8101 14.1856 14.1855C12.8102 15.5607 10.945 16.3333 9.00011 16.3333L9 16.3334Z" fill="black"/>
</svg>
