<svg width="20" height="20" viewBox="0 0 20 20" fill="none" xmlns="http://www.w3.org/2000/svg">
<path d="M10 2.5C8.51664 2.5 7.0666 2.93987 5.83323 3.76398C4.59986 4.58809 3.63856 5.75943 3.07091 7.12987C2.50325 8.50032 2.35472 10.0083 2.64411 11.4632C2.9335 12.918 3.64781 14.2544 4.6967 15.3033C5.7456 16.3522 7.08197 17.0665 8.53683 17.3559C9.99168 17.6453 11.4997 17.4967 12.8701 16.9291C14.2406 16.3614 15.4119 15.4001 16.236 14.1668C17.0601 12.9334 17.5 11.4834 17.5 10C17.4942 8.01265 16.7022 6.10836 15.2969 4.70309C13.8916 3.29782 11.9873 2.50578 10 2.5Z" fill="#808080"/>
<path fill-rule="evenodd" clip-rule="evenodd" d="M10.8008 10L14.0016 6.79927C14.2226 6.57825 14.2226 6.22002 14.0016 5.9991C13.7806 5.77808 13.4224 5.77808 13.2014 5.9991L10.0007 9.19983L6.79992 5.9991C6.5789 5.77808 6.22067 5.77808 5.99975 5.9991C5.77873 6.22002 5.77873 6.57825 5.99975 6.79927L9.20048 10L5.99975 13.2007C5.77873 13.4218 5.77873 13.78 5.99975 14.0009C6.22067 14.2219 6.5789 14.2219 6.79992 14.0009L10.0007 10.8002L13.2014 14.0009C13.4224 14.2219 13.7806 14.2219 14.0016 14.0009C14.2226 13.78 14.2226 13.4218 14.0016 13.2007L10.8008 10Z" fill="white"/>
</svg>
