<svg width="20" height="20" viewBox="0 0 20 20" fill="none" xmlns="http://www.w3.org/2000/svg">
<path d="M11.6069 0.833504H8.80242C8.44884 0.833504 8.10968 0.973945 7.85964 1.22397C7.60961 1.47401 7.46902 1.81318 7.46902 2.16691V2.96243H2.94441C2.69902 2.96243 2.5 3.16146 2.5 3.40683V6.96247C2.5 7.08028 2.54681 7.19328 2.63021 7.27668C2.7136 7.36008 2.8266 7.40689 2.94441 7.40689H4.36664V16.5002C4.36664 17.2073 4.64767 17.8856 5.14775 18.3857C5.64783 18.8859 6.32613 19.1668 7.03347 19.1668H13.3755C14.0828 19.1668 14.7612 18.886 15.2613 18.3857C15.7613 17.8856 16.0424 17.2073 16.0424 16.5002V7.40689H17.4646C17.5824 7.40689 17.6954 7.36007 17.7788 7.27668C17.8622 7.19328 17.909 7.08028 17.909 6.96247V3.40683C17.909 3.28902 17.8622 3.17587 17.7788 3.09263C17.6954 3.00923 17.5824 2.96242 17.4646 2.96242H12.94V2.1669C12.94 1.81317 12.7994 1.47401 12.5494 1.22396C12.2993 0.973933 11.9602 0.833496 11.6066 0.833496L11.6069 0.833504ZM8.3602 2.16692C8.3602 1.92138 8.55923 1.72235 8.80461 1.72235H11.6069C11.7247 1.72235 11.8378 1.76917 11.9211 1.85256C12.0045 1.93596 12.0513 2.04896 12.0513 2.16692V2.96244H8.35803L8.3602 2.16692ZM15.1535 16.5003C15.1535 16.9718 14.9662 17.424 14.6328 17.7573C14.2994 18.0907 13.8472 18.2781 13.3756 18.2781H7.03357C6.56202 18.2781 6.10988 18.0907 5.77643 17.7573C5.443 17.424 5.25575 16.9718 5.25575 16.5003V7.40701H15.1534L15.1535 16.5003ZM17.0201 6.5201H3.38912V3.85347H17.0205L17.0201 6.5201Z" fill="#EB0A1E"/>
<path d="M7.98151 15.3978C8.09932 15.3978 8.21247 15.351 8.29571 15.2676C8.37911 15.1843 8.42592 15.0712 8.42592 14.9534V10.2224C8.42592 9.97686 8.22704 9.77783 7.98152 9.77783C7.73599 9.77783 7.53711 9.97686 7.53711 10.2224V14.9534C7.53711 15.0712 7.58392 15.1843 7.66732 15.2676C7.75056 15.351 7.86371 15.3978 7.98152 15.3978H7.98151Z" fill="#EB0A1E"/>
<path d="M12.4268 15.3978C12.5446 15.3978 12.6578 15.351 12.741 15.2676C12.8244 15.1843 12.8712 15.0712 12.8712 14.9534V10.2224C12.8712 9.97686 12.6724 9.77783 12.4268 9.77783C12.1813 9.77783 11.9824 9.97686 11.9824 10.2224V14.9534C11.9824 15.0712 12.0292 15.1843 12.1126 15.2676C12.1959 15.351 12.309 15.3978 12.4268 15.3978H12.4268Z" fill="#EB0A1E"/>
</svg>
