<svg width="17" height="17" viewBox="0 0 17 17" fill="none" xmlns="http://www.w3.org/2000/svg">
<path d="M8.66699 2.5C7.48031 2.5 6.32027 2.85189 5.33357 3.51118C4.34688 4.17047 3.57784 5.10754 3.12372 6.2039C2.66959 7.30025 2.55077 8.50665 2.78228 9.67054C3.01379 10.8344 3.58524 11.9035 4.42435 12.7426C5.26347 13.5818 6.33257 14.1532 7.49645 14.3847C8.66034 14.6162 9.86674 14.4974 10.9631 14.0433C12.0595 13.5891 12.9965 12.8201 13.6558 11.8334C14.3151 10.8467 14.667 9.68669 14.667 8.5C14.6624 6.91012 14.0287 5.38669 12.9045 4.26247C11.7803 3.13825 10.2569 2.50463 8.66699 2.5Z" fill="#808080"/>
<path fill-rule="evenodd" clip-rule="evenodd" d="M9.30696 8.50002L11.8675 5.93944C12.0444 5.76262 12.0444 5.47603 11.8675 5.2993C11.6908 5.12248 11.4042 5.12248 11.2274 5.2993L8.66683 7.85988L6.10624 5.2993C5.92943 5.12248 5.64284 5.12248 5.46611 5.2993C5.28929 5.47604 5.28929 5.76262 5.46611 5.93944L8.02669 8.50002L5.46611 11.0606C5.28929 11.2374 5.28929 11.524 5.46611 11.7007C5.64285 11.8776 5.92943 11.8776 6.10624 11.7007L8.66683 9.14016L11.2274 11.7007C11.4042 11.8776 11.6908 11.8776 11.8675 11.7007C12.0444 11.524 12.0444 11.2374 11.8675 11.0606L9.30696 8.50002Z" fill="white"/>
</svg>
