<svg width="44" height="44" viewBox="0 0 44 44" fill="none" xmlns="http://www.w3.org/2000/svg">
<g filter="url(#filter0_d_2399_12113)">
<rect x="4" y="2" width="36" height="36" rx="18" fill="white" shape-rendering="crispEdges"/>
<path d="M23.6069 10.8334H20.8024C20.4488 10.8334 20.1097 10.9738 19.8596 11.2239C19.6096 11.4739 19.469 11.8131 19.469 12.1668V12.9623H14.9444C14.699 12.9623 14.5 13.1613 14.5 13.4067V16.9624C14.5 17.0802 14.5468 17.1932 14.6302 17.2766C14.7136 17.36 14.8266 17.4068 14.9444 17.4068H16.3666V26.5C16.3666 27.2072 16.6477 27.8855 17.1478 28.3856C17.6478 28.8858 18.3261 29.1667 19.0335 29.1667H25.3755C26.0828 29.1667 26.7612 28.8858 27.2613 28.3856C27.7613 27.8855 28.0424 27.2072 28.0424 26.5V17.4068H29.4646C29.5824 17.4068 29.6954 17.36 29.7788 17.2766C29.8622 17.1932 29.909 17.0802 29.909 16.9624V13.4067C29.909 13.2889 29.8622 13.1757 29.7788 13.0925C29.6954 13.0091 29.5824 12.9623 29.4646 12.9623H24.94V12.1668C24.94 11.813 24.7994 11.4739 24.5494 11.2238C24.2993 10.9738 23.9602 10.8334 23.6066 10.8334L23.6069 10.8334ZM20.3602 12.1668C20.3602 11.9213 20.5592 11.7222 20.8046 11.7222H23.6069C23.7247 11.7222 23.8378 11.769 23.9211 11.8524C24.0045 11.9358 24.0513 12.0488 24.0513 12.1668V12.9623H20.358L20.3602 12.1668ZM27.1535 26.5002C27.1535 26.9717 26.9662 27.4238 26.6328 27.7571C26.2994 28.0906 25.8472 28.278 25.3756 28.278H19.0336C18.562 28.278 18.1099 28.0906 17.7764 27.7571C17.443 27.4239 17.2558 26.9717 17.2558 26.5002V17.4069H27.1534L27.1535 26.5002ZM29.0201 16.52H15.3891V13.8533H29.0205L29.0201 16.52Z" fill="#EB0A1E"/>
<path d="M19.9815 25.3978C20.0993 25.3978 20.2125 25.351 20.2957 25.2676C20.3791 25.1843 20.4259 25.0712 20.4259 24.9534V20.2224C20.4259 19.9769 20.227 19.7778 19.9815 19.7778C19.736 19.7778 19.5371 19.9769 19.5371 20.2224V24.9534C19.5371 25.0712 19.5839 25.1843 19.6673 25.2676C19.7506 25.351 19.8637 25.3978 19.9815 25.3978H19.9815Z" fill="#EB0A1E"/>
<path d="M24.4268 25.3978C24.5446 25.3978 24.6578 25.351 24.741 25.2676C24.8244 25.1843 24.8712 25.0712 24.8712 24.9534V20.2224C24.8712 19.9769 24.6724 19.7778 24.4268 19.7778C24.1813 19.7778 23.9824 19.9769 23.9824 20.2224V24.9534C23.9824 25.0712 24.0292 25.1843 24.1126 25.2676C24.1959 25.351 24.309 25.3978 24.4268 25.3978H24.4268Z" fill="#EB0A1E"/>
</g>
<defs>
<filter id="filter0_d_2399_12113" x="0" y="0" width="44" height="44" filterUnits="userSpaceOnUse" color-interpolation-filters="sRGB">
<feFlood flood-opacity="0" result="BackgroundImageFix"/>
<feColorMatrix in="SourceAlpha" type="matrix" values="0 0 0 0 0 0 0 0 0 0 0 0 0 0 0 0 0 0 127 0" result="hardAlpha"/>
<feOffset dy="2"/>
<feGaussianBlur stdDeviation="2"/>
<feComposite in2="hardAlpha" operator="out"/>
<feColorMatrix type="matrix" values="0 0 0 0 0 0 0 0 0 0 0 0 0 0 0 0 0 0 0.2 0"/>
<feBlend mode="normal" in2="BackgroundImageFix" result="effect1_dropShadow_2399_12113"/>
<feBlend mode="normal" in="SourceGraphic" in2="effect1_dropShadow_2399_12113" result="shape"/>
</filter>
</defs>
</svg>
