<svg width="24" height="24" viewBox="0 0 24 24" fill="none" xmlns="http://www.w3.org/2000/svg">
<path d="M21.3766 5.70641H18.5256L19.0539 5.14752C19.6501 4.53337 19.8828 3.6385 19.6641 2.79999C19.4453 1.96168 18.8085 1.30686 17.9936 1.08249C17.1786 0.858349 16.3092 1.09838 15.713 1.71253L12.0531 5.47863L9.34379 2.67834C8.79061 2.10042 7.99366 1.8447 7.21933 1.99661C6.44505 2.14851 5.79547 2.68788 5.48772 3.43469C5.17998 4.1815 5.25467 5.03716 5.68681 5.71552H2.62336C2.19308 5.71637 1.78051 5.89263 1.4762 6.20554C1.17191 6.51866 1.00083 6.94324 1 7.38601V8.95311C1.00041 9.36453 1.14803 9.76132 1.41484 10.0679C1.68166 10.3742 2.04872 10.5689 2.44606 10.6145V20.1147C2.44688 20.8797 2.74252 21.6132 3.26835 22.1541C3.79396 22.6949 4.5067 22.9991 5.25014 23H18.7499C19.4933 22.9992 20.206 22.6949 20.7316 22.1541C21.2575 21.6132 21.5531 20.8798 21.5539 20.1147V10.6053C21.9513 10.5597 22.3184 10.365 22.5852 10.0587C22.852 9.75213 22.9996 9.35532 23 8.94389V7.37679C22.9992 6.93401 22.8281 6.50947 22.5238 6.19632C22.2195 5.88342 21.8069 5.70715 21.3766 5.7063L21.3766 5.70641ZM16.3384 2.36546H16.3386C16.6141 2.07289 16.992 1.90659 17.388 1.90362C17.7837 1.90066 18.1641 2.06145 18.4435 2.34979C18.7231 2.63833 18.8781 3.03005 18.8742 3.43746C18.8703 3.84464 18.7074 4.23319 18.4223 4.5158L17.2889 5.71552H13.083L16.3384 2.36546ZM6.62235 5.46952C6.33762 5.18648 6.17518 4.79771 6.17189 4.39036C6.16839 3.98296 6.32403 3.59148 6.60402 3.30334C6.88381 3.01543 7.26446 2.85506 7.66037 2.85866C8.05607 2.86226 8.43408 3.0292 8.70893 3.32219L11.0259 5.70639H6.85252L6.62235 5.46952ZM1.88532 8.94388V7.37678C1.88532 6.95731 2.21555 6.6175 2.62319 6.6175H11.5571V9.70317H2.62319C2.21555 9.70317 1.88532 9.36314 1.88532 8.94388ZM3.33159 20.1113L3.33138 10.6143H11.557V22.0887H5.24982C4.7411 22.0878 4.2536 21.8796 3.89411 21.5097C3.53444 21.1396 3.33207 20.6379 3.33122 20.1146L3.33159 20.1113ZM18.7497 22.0853L12.4421 22.0855V10.6144H20.6677V20.1147C20.6668 20.6379 20.4645 21.1396 20.1048 21.5097C19.7453 21.8796 19.2578 22.0879 18.7491 22.0887L18.7497 22.0853ZM22.1144 8.94377L22.1142 8.94399C22.1142 9.14546 22.0366 9.33845 21.8982 9.48082C21.7599 9.62319 21.5721 9.70327 21.3763 9.70327H12.4424V6.6176H21.3763C21.5721 6.6176 21.7599 6.69747 21.8982 6.83984C22.0366 6.9822 22.1142 7.17541 22.1142 7.37688L22.1144 8.94377Z" fill="#101010"/>
</svg>
