<svg width="24" height="18" viewBox="0 0 24 18" fill="none" xmlns="http://www.w3.org/2000/svg">
<path d="M21.4456 12.5774C21.0045 12.5774 20.5893 12.6899 20.2269 12.8872L13.816 4.35067C14.2728 3.88883 14.5557 3.25487 14.5557 2.55513C14.5557 1.1465 13.4092 3.05176e-05 12.0004 3.05176e-05C10.5917 3.05176e-05 9.44527 1.1465 9.44527 2.55513C9.44527 3.25467 9.72811 3.88881 10.1848 4.35028L3.77388 12.8873C3.41149 12.69 2.9963 12.5775 2.5553 12.5775C1.14608 12.5775 0 13.724 0 15.1328C0 16.5417 1.14627 17.6881 2.5553 17.6881C3.96393 17.6881 5.1104 16.5417 5.1104 15.1328C5.1104 14.4335 4.82756 13.7992 4.37071 13.3373L10.7816 4.80023C11.0394 4.9406 11.3249 5.03507 11.6263 5.07963V12.6077C10.3945 12.7896 9.44503 13.851 9.44503 15.1326C9.44503 16.5414 10.5915 17.6879 12.0001 17.6879C13.409 17.6879 14.5554 16.5414 14.5554 15.1326C14.5554 13.8507 13.6059 12.7898 12.3738 12.6077L12.374 5.07963C12.6756 5.03507 12.9609 4.9406 13.2189 4.80023L19.6293 13.3368C19.1726 13.7988 18.8898 14.433 18.8898 15.1324C18.8898 16.5412 20.0361 17.6876 21.4449 17.6876C22.8537 17.6876 24 16.5412 24 15.1324C24.0002 13.7235 22.8541 12.5771 21.4452 12.5771L21.4456 12.5774ZM4.36317 15.1327C4.36317 16.1295 3.55215 16.9405 2.55579 16.9405C1.55888 16.9405 0.74801 16.1295 0.74801 15.1327C0.74801 14.136 1.55883 13.325 2.55579 13.325C2.82792 13.325 3.0853 13.3873 3.31711 13.4957C3.54698 13.6032 3.74969 13.7568 3.91473 13.9453C4.19317 14.2632 4.36318 14.6782 4.36318 15.1327L4.36317 15.1327ZM13.8084 15.1327C13.8084 16.1295 12.9974 16.9405 12.0006 16.9405C11.0042 16.9405 10.1932 16.1295 10.1932 15.1327C10.1932 14.2643 10.809 13.5374 11.6267 13.3644C11.7474 13.3388 11.8725 13.325 12.0006 13.325C12.1289 13.325 12.2538 13.3389 12.3745 13.3644C13.1922 13.5374 13.8084 14.2645 13.8084 15.1327H13.8084ZM13.3599 3.74296C13.1949 3.93133 12.9916 4.08509 12.7623 4.19237C12.6399 4.24974 12.5103 4.29507 12.3745 4.32356C12.2538 4.34919 12.1289 4.36295 12.0006 4.36295C11.8725 4.36295 11.7474 4.34899 11.6268 4.32356C11.4912 4.29507 11.3619 4.24974 11.2389 4.19237C11.0094 4.0849 10.8063 3.93133 10.6413 3.74296C10.3633 3.42493 10.1932 3.00993 10.1932 2.55517C10.1932 1.55881 11.0043 0.747791 12.0006 0.747791C12.9973 0.747791 13.8084 1.55881 13.8084 2.55517C13.8084 3.01013 13.6382 3.42514 13.36 3.74296H13.3599ZM21.4456 16.9407C20.4489 16.9407 19.6382 16.1297 19.6382 15.1329C19.6382 14.6784 19.8084 14.2634 20.0863 13.9453C20.2514 13.7566 20.4544 13.6032 20.6837 13.4957C20.9157 13.3873 21.1733 13.325 21.4456 13.325C22.4423 13.325 23.253 14.136 23.253 15.1327C23.253 16.1295 22.4423 16.9407 21.4456 16.9407L21.4456 16.9407Z" fill="#9C9C9C"/>
</svg>
