<svg width="24" height="18" viewBox="0 0 24 18" fill="none" xmlns="http://www.w3.org/2000/svg">
<path d="M21.4456 12.5774C21.0045 12.5774 20.5893 12.6899 20.2269 12.8872L13.816 4.35064C14.2728 3.8888 14.5557 3.25484 14.5557 2.5551C14.5557 1.14647 13.4092 0 12.0004 0C10.5917 0 9.44527 1.14647 9.44527 2.5551C9.44527 3.25464 9.72811 3.88878 10.1848 4.35024L3.77388 12.8873C3.41149 12.69 2.9963 12.5775 2.5553 12.5775C1.14608 12.5775 0 13.724 0 15.1328C0 16.5416 1.14627 17.6881 2.5553 17.6881C3.96393 17.6881 5.1104 16.5416 5.1104 15.1328C5.1104 14.4335 4.82756 13.7991 4.37071 13.3373L10.7816 4.8002C11.0394 4.94057 11.3249 5.03504 11.6263 5.0796V12.6077C10.3945 12.7895 9.44503 13.8509 9.44503 15.1326C9.44503 16.5414 10.5915 17.6879 12.0001 17.6879C13.409 17.6879 14.5554 16.5414 14.5554 15.1326C14.5554 13.8507 13.6059 12.7897 12.3738 12.6077L12.374 5.0796C12.6756 5.03504 12.9609 4.94057 13.2189 4.8002L19.6293 13.3368C19.1726 13.7988 18.8898 14.433 18.8898 15.1323C18.8898 16.5411 20.0361 17.6876 21.4449 17.6876C22.8537 17.6876 24 16.5411 24 15.1323C24.0002 13.7235 22.8541 12.577 21.4452 12.577L21.4456 12.5774ZM4.36317 15.1327C4.36317 16.1294 3.55215 16.9405 2.55579 16.9405C1.55888 16.9405 0.74801 16.1295 0.74801 15.1327C0.74801 14.136 1.55883 13.3249 2.55579 13.3249C2.82792 13.3249 3.0853 13.3873 3.31711 13.4957C3.54698 13.6032 3.74969 13.7567 3.91473 13.9453C4.19317 14.2631 4.36318 14.6781 4.36318 15.1327L4.36317 15.1327ZM13.8084 15.1327C13.8084 16.1294 12.9974 16.9405 12.0006 16.9405C11.0042 16.9405 10.1932 16.1295 10.1932 15.1327C10.1932 14.2643 10.809 13.5374 11.6267 13.3643C11.7474 13.3387 11.8725 13.325 12.0006 13.325C12.1289 13.325 12.2538 13.3389 12.3745 13.3643C13.1922 13.5374 13.8084 14.2645 13.8084 15.1327H13.8084ZM13.3599 3.74293C13.1949 3.9313 12.9916 4.08506 12.7623 4.19234C12.6399 4.24971 12.5103 4.29504 12.3745 4.32353C12.2538 4.34916 12.1289 4.36292 12.0006 4.36292C11.8725 4.36292 11.7474 4.34896 11.6268 4.32353C11.4912 4.29504 11.3619 4.24971 11.2389 4.19234C11.0094 4.08487 10.8063 3.9313 10.6413 3.74293C10.3633 3.4249 10.1932 3.0099 10.1932 2.55514C10.1932 1.55878 11.0043 0.74776 12.0006 0.74776C12.9973 0.74776 13.8084 1.55878 13.8084 2.55514C13.8084 3.0101 13.6382 3.4251 13.36 3.74293H13.3599ZM21.4456 16.9407C20.4489 16.9407 19.6382 16.1297 19.6382 15.1329C19.6382 14.6783 19.8084 14.2633 20.0863 13.9453C20.2514 13.7566 20.4544 13.6032 20.6837 13.4957C20.9157 13.3873 21.1733 13.3249 21.4456 13.3249C22.4423 13.3249 23.253 14.136 23.253 15.1327C23.253 16.1295 22.4423 16.9407 21.4456 16.9407L21.4456 16.9407Z" fill="white"/>
</svg>
