<svg width="18" height="19" viewBox="0 0 18 19" fill="none" xmlns="http://www.w3.org/2000/svg">
<path fill-rule="evenodd" clip-rule="evenodd" d="M7.85291 14.435C4.49954 14.435 1.77203 11.7067 1.77203 8.3535C1.77203 5.00013 4.49972 2.27201 7.85291 2.27201C11.2063 2.27201 13.9341 5.00019 13.9341 8.3535C13.9341 11.7069 11.2064 14.435 7.85291 14.435ZM17.1004 16.878L13.2351 13.0132C13.23 13.0075 13.2228 13.006 13.2172 13.001C14.2977 11.7549 14.9565 10.1327 14.9565 8.3537C14.9565 4.43049 11.7763 1.25 7.8531 1.25C3.92989 1.25 0.75 4.43049 0.75 8.3537C0.75 12.2769 3.93019 15.4574 7.8531 15.4574C9.63174 15.4574 11.2541 14.7987 12.5007 13.7182C12.5057 13.7233 12.5068 13.7304 12.5124 13.7361L16.3778 17.6009C16.4775 17.7011 16.6083 17.7506 16.7391 17.7506C16.8701 17.7506 17.0003 17.7011 17.1005 17.6009C17.2998 17.4016 17.2998 17.078 17.1005 16.8781" fill="black"/>
</svg>
