<svg width="39" height="43" viewBox="0 0 39 43" fill="none" xmlns="http://www.w3.org/2000/svg">
<g clip-path="url(#clip0_6449_47857)">
<path d="M17.9149 30.2217C24.8726 30.2217 30.5129 24.637 30.5129 17.748C30.5129 10.859 24.8726 5.27441 17.9149 5.27441C10.9572 5.27441 5.31689 10.859 5.31689 17.748C5.31689 24.637 10.9572 30.2217 17.9149 30.2217Z" stroke="#231F20" stroke-miterlimit="10"/>
<path d="M17.9149 34.3972C27.2017 34.3972 34.7302 26.943 34.7302 17.7479C34.7302 8.55277 27.2017 1.09863 17.9149 1.09863C8.62807 1.09863 1.09961 8.55277 1.09961 17.7479C1.09961 26.943 8.62807 34.3972 17.9149 34.3972Z" stroke="#231F20" stroke-miterlimit="10"/>
<path d="M13.4443 13.3213L22.3856 22.1743" stroke="#231F20" stroke-miterlimit="10"/>
<path d="M22.3856 13.3213L13.4443 22.1743" stroke="#231F20" stroke-miterlimit="10"/>
<path d="M37.3218 37.6488L30.4732 29.1434C30.4273 29.0862 30.3794 29.0328 30.3295 28.9795C29.743 29.6135 29.0987 30.212 28.3964 30.7651C27.6942 31.3182 26.9621 31.8061 26.208 32.2327C26.2479 32.292 26.2898 32.3512 26.3357 32.4085L33.1843 40.9139C34.096 42.0457 35.7597 42.2314 36.9008 41.3287C38.0439 40.426 38.2315 38.7786 37.3198 37.6488H37.3218Z" stroke="#231F20" stroke-miterlimit="10"/>
</g>
<defs>
<clipPath id="clip0_6449_47857">
<rect width="39" height="43" fill="white"/>
</clipPath>
</defs>
</svg>
