<svg width="25" height="25" viewBox="0 0 25 25" fill="none" xmlns="http://www.w3.org/2000/svg">
<mask id="path-1-inside-1_6926_13723" fill="white">
<path d="M17.6539 4.57588C17.9001 4.3297 18.177 4.23742 18.4847 4.23742C18.7617 4.23742 19.0693 4.3297 19.2849 4.57588L20.4543 5.71447C20.6696 5.92983 20.7927 6.23761 20.7927 6.51462C20.7927 6.82241 20.6696 7.13006 20.4543 7.34543C20.085 7.71469 19.8388 8.11477 19.7466 8.48401C19.6543 8.85324 19.685 9.19171 19.8082 9.46872C19.9313 9.77652 20.1466 10.0227 20.4544 10.2073C20.7929 10.4226 21.2238 10.5457 21.7777 10.5457C22.0855 10.5457 22.3624 10.6688 22.5779 10.8842C22.7932 11.0689 22.9163 11.3765 22.9163 11.6843V13.3153C22.9163 13.6231 22.7932 13.9307 22.5779 14.1461C22.3625 14.3308 22.0855 14.4846 21.7777 14.4846C21.2546 14.4846 20.793 14.6077 20.4544 14.7924C20.1466 14.9771 19.9313 15.2232 19.8082 15.5309C19.6851 15.8387 19.6543 16.1463 19.7466 16.5156C19.8389 16.8849 20.0544 17.285 20.4543 17.6542C20.6696 17.9004 20.7927 18.1773 20.7927 18.485C20.7927 18.762 20.6696 19.0696 20.4543 19.2852L19.2849 20.4546C19.0695 20.67 18.7617 20.793 18.4847 20.793C18.1769 20.793 17.9001 20.67 17.6539 20.4546C17.2846 20.0853 16.8845 19.8391 16.5153 19.7469C16.1769 19.6546 15.8076 19.6853 15.5306 19.8085C15.2228 19.9316 14.9766 20.147 14.792 20.4547C14.5767 20.7932 14.4843 21.2241 14.4843 21.778C14.4843 22.0858 14.3304 22.3627 14.1458 22.5782C13.9304 22.7936 13.6227 22.9166 13.315 22.9166H11.684C11.3762 22.9166 11.0686 22.7936 10.8839 22.5782C10.6685 22.3628 10.5454 22.0858 10.5454 21.778C10.5454 21.2549 10.4223 20.7933 10.207 20.4547C10.0223 20.1469 9.77608 19.9316 9.46842 19.8085C9.19143 19.6854 8.85298 19.6546 8.4837 19.7469C8.11444 19.8392 7.71436 20.0547 7.34512 20.4546C7.12975 20.67 6.82198 20.793 6.51431 20.793C6.23733 20.793 5.92967 20.67 5.71416 20.4546L4.57558 19.2852C4.3294 19.0698 4.23712 18.762 4.23712 18.485C4.23712 18.1772 4.3294 17.9004 4.57558 17.6542C4.94484 17.2849 5.16021 16.8849 5.25262 16.5156C5.34491 16.1772 5.31424 15.8079 5.19101 15.5309C5.06792 15.2231 4.85255 14.9769 4.54476 14.7924C4.20631 14.577 3.77542 14.4846 3.25227 14.4846C2.91382 14.4846 2.63683 14.3307 2.42147 14.1461C2.2061 13.9307 2.08301 13.623 2.08301 13.3153V11.6843C2.08301 11.3765 2.2061 11.0689 2.42147 10.8842C2.63683 10.6688 2.9138 10.5457 3.25227 10.5457C3.77542 10.5457 4.20618 10.4226 4.54476 10.2073C4.85256 10.0226 5.06791 9.77639 5.19101 9.46872C5.3141 9.19174 5.34491 8.85328 5.25262 8.48401C5.16034 8.11474 4.94483 7.71466 4.57558 7.34543C4.3294 7.13006 4.23712 6.82228 4.23712 6.51462C4.23712 6.23763 4.3294 5.92998 4.57558 5.71447L5.71416 4.57588C5.92953 4.3297 6.2373 4.23742 6.51431 4.23742C6.8221 4.23742 7.12975 4.3297 7.34512 4.57588C7.71439 4.94515 8.11447 5.16052 8.4837 5.25293C8.85297 5.34521 9.19141 5.31455 9.46842 5.19132C9.77621 5.06823 10.0224 4.85286 10.207 4.54507C10.4223 4.20661 10.5454 3.77572 10.5454 3.25258C10.5454 2.91412 10.6685 2.63714 10.8839 2.42177C11.0686 2.2064 11.3762 2.08331 11.684 2.08331H13.315C13.6228 2.08331 13.9304 2.2064 14.1458 2.42177C14.3305 2.63714 14.4843 2.91411 14.4843 3.25258C14.4843 3.77572 14.6073 4.20649 14.792 4.54507C14.9768 4.85286 15.2229 5.06821 15.5306 5.19132C15.8384 5.3144 16.146 5.34521 16.5153 5.25293C16.8846 5.16065 17.2847 4.94514 17.6539 4.57588ZM18.4847 4.97596C18.3924 4.97596 18.2693 5.03757 18.2077 5.09905C17.7154 5.59138 17.1922 5.86839 16.6999 6.02226C16.1767 6.14535 15.6843 6.08388 15.2228 5.89918C14.7919 5.71447 14.4227 5.37603 14.1457 4.94527C13.8687 4.48373 13.7148 3.89894 13.7148 3.2527C13.7148 3.12961 13.6532 3.03733 13.5917 2.97571C13.5301 2.88343 13.4378 2.85262 13.3147 2.85262H11.6838C11.5915 2.85262 11.4991 2.88343 11.4068 2.97571C11.3452 3.03733 11.3145 3.12961 11.3145 3.2527C11.3145 3.92975 11.1298 4.48358 10.8836 4.94527C10.6066 5.4068 10.2066 5.74542 9.77584 5.89918C9.31431 6.08388 8.82193 6.11455 8.29879 5.99146C7.80645 5.86837 7.28327 5.59138 6.79093 5.09904C6.72932 5.03743 6.63704 4.97595 6.51395 4.97595C6.42167 4.97595 6.32924 5.03757 6.23696 5.09904H6.26777L5.09835 6.26847V6.23766C5.03673 6.32994 4.97526 6.42236 4.97526 6.51464C4.97526 6.63773 5.03687 6.73001 5.09835 6.79163C5.59069 7.28397 5.8677 7.80715 6.02157 8.29948C6.14465 8.82263 6.08318 9.315 5.89848 9.77654C5.71377 10.2074 5.37533 10.6073 4.94457 10.8843C4.48303 11.1305 3.89824 11.3152 3.252 11.3152C3.12891 11.3152 3.03663 11.346 2.97501 11.4075C2.88273 11.4998 2.85193 11.5922 2.85193 11.6845V13.3154C2.85193 13.4385 2.88273 13.5308 2.97501 13.5924C3.03663 13.654 3.12891 13.7155 3.252 13.7155C3.92905 13.7155 4.48288 13.8694 4.94457 14.1464C5.4061 14.3926 5.71392 14.7926 5.89848 15.2235C6.08318 15.685 6.11385 16.1774 5.99076 16.7006C5.86767 17.2237 5.59068 17.7469 5.09834 18.2084C5.03673 18.27 4.97525 18.3931 4.97525 18.4854C4.97525 18.5777 5.03687 18.6701 5.09834 18.7624L6.26777 19.901C6.32938 19.9932 6.42166 20.0241 6.51395 20.0241C6.63703 20.0241 6.72931 19.9932 6.79093 19.901C7.28327 19.4086 7.80645 19.1316 8.29879 19.0086C8.82193 18.8855 9.3143 18.9163 9.77584 19.1008C10.2067 19.2855 10.6066 19.624 10.8836 20.0855C11.1298 20.5164 11.3145 21.1011 11.3145 21.7781C11.3145 21.8704 11.3453 21.9628 11.4068 22.0551C11.4991 22.1167 11.5915 22.1474 11.6838 22.1474H13.3147C13.4378 22.1474 13.5301 22.1166 13.5917 22.0551C13.6533 21.9628 13.7148 21.8704 13.7148 21.7781C13.7148 21.1011 13.8687 20.5164 14.1457 20.0549C14.3919 19.5934 14.7919 19.2855 15.2228 19.101C15.6843 18.9163 16.1767 18.8856 16.6999 19.0087C17.223 19.1318 17.7462 19.4396 18.2077 19.9011C18.2693 19.9934 18.3924 20.0242 18.4847 20.0242C18.577 20.0242 18.6694 19.9934 18.7617 19.9011L19.9003 18.7625C19.9925 18.6702 20.0234 18.5778 20.0234 18.4855C20.0234 18.3933 19.9925 18.2702 19.9003 18.2086C19.4079 17.7162 19.1309 17.193 19.0079 16.7007C18.8848 16.1776 18.9156 15.6852 19.1001 15.2237C19.2848 14.7928 19.6233 14.4235 20.0848 14.1465C20.5157 13.8695 21.1004 13.7156 21.7774 13.7156C21.8697 13.7156 21.9621 13.654 22.0544 13.5926C22.116 13.5309 22.1467 13.4387 22.1467 13.3156V11.6846C22.1467 11.5923 22.1159 11.4999 22.0544 11.4076C21.9621 11.346 21.8697 11.3153 21.7774 11.3153C21.1004 11.3153 20.5157 11.1306 20.0542 10.8845C19.5927 10.6075 19.2848 10.2074 19.1003 9.77669C18.9156 9.31515 18.8849 8.82277 19.008 8.29963C19.1311 7.80729 19.4389 7.28411 19.9004 6.79178C19.9927 6.73016 20.0235 6.63788 20.0235 6.51479C20.0235 6.42251 19.9927 6.33009 19.9004 6.26862L18.7618 5.09919C18.6695 5.03758 18.5771 4.9761 18.4848 4.9761L18.4847 4.97596ZM12.5148 8.51485C13.6226 8.51485 14.6074 8.94573 15.346 9.68428C16.0537 10.392 16.5154 11.4075 16.5154 12.5155C16.5154 13.6232 16.0539 14.6081 15.346 15.3467C14.6074 16.0544 13.6228 16.5161 12.5148 16.5161C11.407 16.5161 10.3915 16.0545 9.68362 15.3467C8.94507 14.6081 8.51419 13.6234 8.51419 12.5155C8.51419 11.4077 8.94507 10.3922 9.68362 9.68428C10.3913 8.94573 11.4068 8.51485 12.5148 8.51485ZM14.792 10.2074C14.2074 9.62278 13.4072 9.2842 12.5148 9.2842C11.6224 9.2842 10.7916 9.62266 10.2068 10.2074C9.62216 10.7921 9.28358 11.623 9.28358 12.5154C9.28358 13.4078 9.62204 14.208 10.2068 14.7926C10.7914 15.3773 11.6224 15.7465 12.5148 15.7465C13.4072 15.7465 14.2074 15.3773 14.792 14.7926C15.3766 14.208 15.7459 13.4078 15.7459 12.5154C15.7459 11.623 15.3767 10.7922 14.792 10.2074Z"/>
</mask>
<path d="M17.6539 4.57588C17.9001 4.3297 18.177 4.23742 18.4847 4.23742C18.7617 4.23742 19.0693 4.3297 19.2849 4.57588L20.4543 5.71447C20.6696 5.92983 20.7927 6.23761 20.7927 6.51462C20.7927 6.82241 20.6696 7.13006 20.4543 7.34543C20.085 7.71469 19.8388 8.11477 19.7466 8.48401C19.6543 8.85324 19.685 9.19171 19.8082 9.46872C19.9313 9.77652 20.1466 10.0227 20.4544 10.2073C20.7929 10.4226 21.2238 10.5457 21.7777 10.5457C22.0855 10.5457 22.3624 10.6688 22.5779 10.8842C22.7932 11.0689 22.9163 11.3765 22.9163 11.6843V13.3153C22.9163 13.6231 22.7932 13.9307 22.5779 14.1461C22.3625 14.3308 22.0855 14.4846 21.7777 14.4846C21.2546 14.4846 20.793 14.6077 20.4544 14.7924C20.1466 14.9771 19.9313 15.2232 19.8082 15.5309C19.6851 15.8387 19.6543 16.1463 19.7466 16.5156C19.8389 16.8849 20.0544 17.285 20.4543 17.6542C20.6696 17.9004 20.7927 18.1773 20.7927 18.485C20.7927 18.762 20.6696 19.0696 20.4543 19.2852L19.2849 20.4546C19.0695 20.67 18.7617 20.793 18.4847 20.793C18.1769 20.793 17.9001 20.67 17.6539 20.4546C17.2846 20.0853 16.8845 19.8391 16.5153 19.7469C16.1769 19.6546 15.8076 19.6853 15.5306 19.8085C15.2228 19.9316 14.9766 20.147 14.792 20.4547C14.5767 20.7932 14.4843 21.2241 14.4843 21.778C14.4843 22.0858 14.3304 22.3627 14.1458 22.5782C13.9304 22.7936 13.6227 22.9166 13.315 22.9166H11.684C11.3762 22.9166 11.0686 22.7936 10.8839 22.5782C10.6685 22.3628 10.5454 22.0858 10.5454 21.778C10.5454 21.2549 10.4223 20.7933 10.207 20.4547C10.0223 20.1469 9.77608 19.9316 9.46842 19.8085C9.19143 19.6854 8.85298 19.6546 8.4837 19.7469C8.11444 19.8392 7.71436 20.0547 7.34512 20.4546C7.12975 20.67 6.82198 20.793 6.51431 20.793C6.23733 20.793 5.92967 20.67 5.71416 20.4546L4.57558 19.2852C4.3294 19.0698 4.23712 18.762 4.23712 18.485C4.23712 18.1772 4.3294 17.9004 4.57558 17.6542C4.94484 17.2849 5.16021 16.8849 5.25262 16.5156C5.34491 16.1772 5.31424 15.8079 5.19101 15.5309C5.06792 15.2231 4.85255 14.9769 4.54476 14.7924C4.20631 14.577 3.77542 14.4846 3.25227 14.4846C2.91382 14.4846 2.63683 14.3307 2.42147 14.1461C2.2061 13.9307 2.08301 13.623 2.08301 13.3153V11.6843C2.08301 11.3765 2.2061 11.0689 2.42147 10.8842C2.63683 10.6688 2.9138 10.5457 3.25227 10.5457C3.77542 10.5457 4.20618 10.4226 4.54476 10.2073C4.85256 10.0226 5.06791 9.77639 5.19101 9.46872C5.3141 9.19174 5.34491 8.85328 5.25262 8.48401C5.16034 8.11474 4.94483 7.71466 4.57558 7.34543C4.3294 7.13006 4.23712 6.82228 4.23712 6.51462C4.23712 6.23763 4.3294 5.92998 4.57558 5.71447L5.71416 4.57588C5.92953 4.3297 6.2373 4.23742 6.51431 4.23742C6.8221 4.23742 7.12975 4.3297 7.34512 4.57588C7.71439 4.94515 8.11447 5.16052 8.4837 5.25293C8.85297 5.34521 9.19141 5.31455 9.46842 5.19132C9.77621 5.06823 10.0224 4.85286 10.207 4.54507C10.4223 4.20661 10.5454 3.77572 10.5454 3.25258C10.5454 2.91412 10.6685 2.63714 10.8839 2.42177C11.0686 2.2064 11.3762 2.08331 11.684 2.08331H13.315C13.6228 2.08331 13.9304 2.2064 14.1458 2.42177C14.3305 2.63714 14.4843 2.91411 14.4843 3.25258C14.4843 3.77572 14.6073 4.20649 14.792 4.54507C14.9768 4.85286 15.2229 5.06821 15.5306 5.19132C15.8384 5.3144 16.146 5.34521 16.5153 5.25293C16.8846 5.16065 17.2847 4.94514 17.6539 4.57588ZM18.4847 4.97596C18.3924 4.97596 18.2693 5.03757 18.2077 5.09905C17.7154 5.59138 17.1922 5.86839 16.6999 6.02226C16.1767 6.14535 15.6843 6.08388 15.2228 5.89918C14.7919 5.71447 14.4227 5.37603 14.1457 4.94527C13.8687 4.48373 13.7148 3.89894 13.7148 3.2527C13.7148 3.12961 13.6532 3.03733 13.5917 2.97571C13.5301 2.88343 13.4378 2.85262 13.3147 2.85262H11.6838C11.5915 2.85262 11.4991 2.88343 11.4068 2.97571C11.3452 3.03733 11.3145 3.12961 11.3145 3.2527C11.3145 3.92975 11.1298 4.48358 10.8836 4.94527C10.6066 5.4068 10.2066 5.74542 9.77584 5.89918C9.31431 6.08388 8.82193 6.11455 8.29879 5.99146C7.80645 5.86837 7.28327 5.59138 6.79093 5.09904C6.72932 5.03743 6.63704 4.97595 6.51395 4.97595C6.42167 4.97595 6.32924 5.03757 6.23696 5.09904H6.26777L5.09835 6.26847V6.23766C5.03673 6.32994 4.97526 6.42236 4.97526 6.51464C4.97526 6.63773 5.03687 6.73001 5.09835 6.79163C5.59069 7.28397 5.8677 7.80715 6.02157 8.29948C6.14465 8.82263 6.08318 9.315 5.89848 9.77654C5.71377 10.2074 5.37533 10.6073 4.94457 10.8843C4.48303 11.1305 3.89824 11.3152 3.252 11.3152C3.12891 11.3152 3.03663 11.346 2.97501 11.4075C2.88273 11.4998 2.85193 11.5922 2.85193 11.6845V13.3154C2.85193 13.4385 2.88273 13.5308 2.97501 13.5924C3.03663 13.654 3.12891 13.7155 3.252 13.7155C3.92905 13.7155 4.48288 13.8694 4.94457 14.1464C5.4061 14.3926 5.71392 14.7926 5.89848 15.2235C6.08318 15.685 6.11385 16.1774 5.99076 16.7006C5.86767 17.2237 5.59068 17.7469 5.09834 18.2084C5.03673 18.27 4.97525 18.3931 4.97525 18.4854C4.97525 18.5777 5.03687 18.6701 5.09834 18.7624L6.26777 19.901C6.32938 19.9932 6.42166 20.0241 6.51395 20.0241C6.63703 20.0241 6.72931 19.9932 6.79093 19.901C7.28327 19.4086 7.80645 19.1316 8.29879 19.0086C8.82193 18.8855 9.3143 18.9163 9.77584 19.1008C10.2067 19.2855 10.6066 19.624 10.8836 20.0855C11.1298 20.5164 11.3145 21.1011 11.3145 21.7781C11.3145 21.8704 11.3453 21.9628 11.4068 22.0551C11.4991 22.1167 11.5915 22.1474 11.6838 22.1474H13.3147C13.4378 22.1474 13.5301 22.1166 13.5917 22.0551C13.6533 21.9628 13.7148 21.8704 13.7148 21.7781C13.7148 21.1011 13.8687 20.5164 14.1457 20.0549C14.3919 19.5934 14.7919 19.2855 15.2228 19.101C15.6843 18.9163 16.1767 18.8856 16.6999 19.0087C17.223 19.1318 17.7462 19.4396 18.2077 19.9011C18.2693 19.9934 18.3924 20.0242 18.4847 20.0242C18.577 20.0242 18.6694 19.9934 18.7617 19.9011L19.9003 18.7625C19.9925 18.6702 20.0234 18.5778 20.0234 18.4855C20.0234 18.3933 19.9925 18.2702 19.9003 18.2086C19.4079 17.7162 19.1309 17.193 19.0079 16.7007C18.8848 16.1776 18.9156 15.6852 19.1001 15.2237C19.2848 14.7928 19.6233 14.4235 20.0848 14.1465C20.5157 13.8695 21.1004 13.7156 21.7774 13.7156C21.8697 13.7156 21.9621 13.654 22.0544 13.5926C22.116 13.5309 22.1467 13.4387 22.1467 13.3156V11.6846C22.1467 11.5923 22.1159 11.4999 22.0544 11.4076C21.9621 11.346 21.8697 11.3153 21.7774 11.3153C21.1004 11.3153 20.5157 11.1306 20.0542 10.8845C19.5927 10.6075 19.2848 10.2074 19.1003 9.77669C18.9156 9.31515 18.8849 8.82277 19.008 8.29963C19.1311 7.80729 19.4389 7.28411 19.9004 6.79178C19.9927 6.73016 20.0235 6.63788 20.0235 6.51479C20.0235 6.42251 19.9927 6.33009 19.9004 6.26862L18.7618 5.09919C18.6695 5.03758 18.5771 4.9761 18.4848 4.9761L18.4847 4.97596ZM12.5148 8.51485C13.6226 8.51485 14.6074 8.94573 15.346 9.68428C16.0537 10.392 16.5154 11.4075 16.5154 12.5155C16.5154 13.6232 16.0539 14.6081 15.346 15.3467C14.6074 16.0544 13.6228 16.5161 12.5148 16.5161C11.407 16.5161 10.3915 16.0545 9.68362 15.3467C8.94507 14.6081 8.51419 13.6234 8.51419 12.5155C8.51419 11.4077 8.94507 10.3922 9.68362 9.68428C10.3913 8.94573 11.4068 8.51485 12.5148 8.51485ZM14.792 10.2074C14.2074 9.62278 13.4072 9.2842 12.5148 9.2842C11.6224 9.2842 10.7916 9.62266 10.2068 10.2074C9.62216 10.7921 9.28358 11.623 9.28358 12.5154C9.28358 13.4078 9.62204 14.208 10.2068 14.7926C10.7914 15.3773 11.6224 15.7465 12.5148 15.7465C13.4072 15.7465 14.2074 15.3773 14.792 14.7926C15.3766 14.208 15.7459 13.4078 15.7459 12.5154C15.7459 11.623 15.3767 10.7922 14.792 10.2074Z" fill="#9C9C9C" stroke="#9C9C9C" stroke-width="2" mask="url(#path-1-inside-1_6926_13723)"/>
</svg>
