<svg width="24" height="61" viewBox="0 0 24 61" fill="none" xmlns="http://www.w3.org/2000/svg">
<path d="M16.9481 22.8929C17.1844 22.6565 17.4503 22.5679 17.7456 22.5679C18.0115 22.5679 18.3069 22.6565 18.5138 22.8929L19.6364 23.9859C19.8432 24.1927 19.9613 24.4881 19.9613 24.7541C19.9613 25.0495 19.8432 25.3449 19.6364 25.5516C19.2819 25.9061 19.0456 26.2902 18.957 26.6447C18.8685 26.9991 18.8979 27.3241 19.0162 27.59C19.1343 27.8855 19.3411 28.1218 19.6366 28.299C19.9615 28.5058 20.3751 28.6239 20.9069 28.6239C21.2024 28.6239 21.4682 28.7421 21.6751 28.9488C21.8818 29.1262 22 29.4215 22 29.717V31.2827C22 31.5782 21.8818 31.8735 21.6751 32.0803C21.4683 32.2576 21.2024 32.4052 20.9069 32.4052C20.4047 32.4052 19.9616 32.5234 19.6366 32.7007C19.3411 32.878 19.1344 33.1143 19.0162 33.4097C18.898 33.7052 18.8684 34.0005 18.957 34.355C19.0456 34.7095 19.2525 35.0936 19.6364 35.4481C19.8432 35.6844 19.9613 35.9503 19.9613 36.2456C19.9613 36.5115 19.8432 36.8069 19.6364 37.0138L18.5138 38.1364C18.307 38.3432 18.0116 38.4613 17.7456 38.4613C17.4501 38.4613 17.1844 38.3432 16.9481 38.1364C16.5936 37.7819 16.2095 37.5456 15.855 37.457C15.5301 37.3684 15.1756 37.3979 14.9097 37.5162C14.6142 37.6343 14.3779 37.8411 14.2007 38.1366C13.9939 38.4615 13.9052 38.8751 13.9052 39.4069C13.9052 39.7024 13.7575 39.9682 13.5803 40.1751C13.3735 40.3818 13.0781 40.5 12.7827 40.5H11.217C10.9215 40.5 10.6262 40.3818 10.4488 40.1751C10.2421 39.9683 10.1239 39.7024 10.1239 39.4069C10.1239 38.9047 10.0058 38.4616 9.799 38.1366C9.62168 37.8411 9.38535 37.6344 9.09 37.5162C8.82409 37.398 8.49917 37.3684 8.14467 37.457C7.79017 37.5456 7.40609 37.7525 7.05163 38.1364C6.84487 38.3432 6.54941 38.4613 6.25405 38.4613C5.98815 38.4613 5.6928 38.3432 5.48591 38.1364L4.39287 37.0138C4.15654 36.807 4.06795 36.5116 4.06795 36.2456C4.06795 35.9501 4.15654 35.6844 4.39287 35.4481C4.74736 35.0936 4.95412 34.7095 5.04283 34.355C5.13142 34.0301 5.10198 33.6756 4.98368 33.4097C4.86552 33.1142 4.65876 32.8779 4.36329 32.7007C4.03837 32.4939 3.62471 32.4052 3.12249 32.4052C2.79758 32.4052 2.53167 32.2575 2.32492 32.0803C2.11816 31.8735 2 31.5781 2 31.2827V29.717C2 29.4215 2.11816 29.1262 2.32492 28.9488C2.53167 28.7421 2.79756 28.6239 3.12249 28.6239C3.62471 28.6239 4.03825 28.5058 4.36329 28.299C4.65877 28.1217 4.8655 27.8854 4.98368 27.59C5.10185 27.3241 5.13142 26.9992 5.04283 26.6447C4.95424 26.2902 4.74735 25.9061 4.39287 25.5516C4.15654 25.3449 4.06795 25.0494 4.06795 24.7541C4.06795 24.4881 4.15654 24.1928 4.39287 23.9859L5.48591 22.8929C5.69266 22.6565 5.98812 22.5679 6.25405 22.5679C6.54953 22.5679 6.84488 22.6565 7.05163 22.8929C7.40612 23.2474 7.7902 23.4541 8.14467 23.5428C8.49916 23.6314 8.82407 23.602 9.09 23.4837C9.38548 23.3655 9.62182 23.1588 9.799 22.8633C10.0058 22.5384 10.1239 22.1247 10.1239 21.6225C10.1239 21.2976 10.2421 21.0317 10.4488 20.8249C10.6262 20.6182 10.9215 20.5 11.217 20.5H12.7827C13.0782 20.5 13.3735 20.6182 13.5803 20.8249C13.7576 21.0317 13.9052 21.2976 13.9052 21.6225C13.9052 22.1247 14.0234 22.5382 14.2007 22.8633C14.378 23.1588 14.6143 23.3655 14.9097 23.4837C15.2052 23.6018 15.5005 23.6314 15.855 23.5428C16.2095 23.4542 16.5936 23.2474 16.9481 22.8929ZM17.7456 23.2769C17.657 23.2769 17.5389 23.3361 17.4797 23.3951C17.0071 23.8677 16.5048 24.1337 16.0322 24.2814C15.53 24.3996 15.0573 24.3405 14.6142 24.1632C14.2006 23.9859 13.8461 23.661 13.5802 23.2475C13.3143 22.8044 13.1665 22.243 13.1665 21.6226C13.1665 21.5044 13.1074 21.4159 13.0484 21.3567C12.9892 21.2681 12.9006 21.2385 12.7825 21.2385H11.2167C11.1281 21.2385 11.0394 21.2681 10.9508 21.3567C10.8917 21.4159 10.8622 21.5044 10.8622 21.6226C10.8622 22.2726 10.6849 22.8043 10.4486 23.2475C10.1827 23.6905 9.79862 24.0156 9.38512 24.1632C8.94205 24.3405 8.46937 24.37 7.96715 24.2518C7.49451 24.1337 6.99225 23.8677 6.51961 23.3951C6.46046 23.3359 6.37187 23.2769 6.2537 23.2769C6.16511 23.2769 6.07639 23.3361 5.9878 23.3951H6.01737L4.89473 24.5177V24.4882C4.83558 24.5768 4.77656 24.6655 4.77656 24.7541C4.77656 24.8722 4.83571 24.9608 4.89473 25.02C5.36737 25.4926 5.6333 25.9949 5.78102 26.4675C5.89918 26.9697 5.84017 27.4424 5.66285 27.8855C5.48554 28.2991 5.16063 28.6831 4.7471 28.949C4.30402 29.1853 3.74263 29.3626 3.12223 29.3626C3.00407 29.3626 2.91548 29.3922 2.85633 29.4512C2.76774 29.5398 2.73816 29.6285 2.73816 29.7171V31.2828C2.73816 31.401 2.76774 31.4896 2.85633 31.5487C2.91548 31.6079 3.00407 31.6669 3.12223 31.6669C3.7722 31.6669 4.30388 31.8146 4.7471 32.0805C5.19017 32.3169 5.48567 32.7009 5.66285 33.1146C5.84017 33.5577 5.86961 34.0303 5.75144 34.5326C5.63328 35.0348 5.36737 35.537 4.89472 35.9801C4.83557 36.0392 4.77656 36.1574 4.77656 36.246C4.77656 36.3346 4.83571 36.4233 4.89472 36.5119L6.01737 37.6049C6.07652 37.6935 6.16511 37.7231 6.2537 37.7231C6.37187 37.7231 6.46045 37.6935 6.51961 37.6049C6.99225 37.1323 7.4945 36.8664 7.96715 36.7482C8.46937 36.6301 8.94205 36.6596 9.38512 36.8368C9.79876 37.0141 10.1827 37.339 10.4486 37.7821C10.6849 38.1958 10.8622 38.757 10.8622 39.407C10.8622 39.4956 10.8918 39.5843 10.9508 39.6729C11.0394 39.7321 11.1281 39.7615 11.2167 39.7615H12.7824C12.9006 39.7615 12.9892 39.7319 13.0484 39.6729C13.1075 39.5843 13.1665 39.4956 13.1665 39.407C13.1665 38.757 13.3143 38.1958 13.5802 37.7527C13.8165 37.3096 14.2006 37.0141 14.6142 36.837C15.0573 36.6596 15.53 36.6302 16.0322 36.7484C16.5344 36.8665 17.0366 37.162 17.4797 37.6051C17.5389 37.6937 17.657 37.7233 17.7456 37.7233C17.8342 37.7233 17.9229 37.6937 18.0115 37.6051L19.1046 36.512C19.1932 36.4235 19.2227 36.3347 19.2227 36.2461C19.2227 36.1576 19.1932 36.0394 19.1046 35.9802C18.6319 35.5076 18.366 35.0053 18.2479 34.5327C18.1297 34.0305 18.1593 33.5578 18.3364 33.1147C18.5138 32.7011 18.8387 32.3466 19.2818 32.0807C19.6954 31.8148 20.2567 31.667 20.9066 31.667C20.9952 31.667 21.0839 31.6079 21.1725 31.5489C21.2317 31.4897 21.2611 31.4011 21.2611 31.283V29.7172C21.2611 29.6287 21.2316 29.5399 21.1725 29.4513C21.0839 29.3922 20.9952 29.3628 20.9066 29.3628C20.2567 29.3628 19.6954 29.1854 19.2523 28.9491C18.8093 28.6832 18.5138 28.2991 18.3366 27.8856C18.1593 27.4426 18.1298 26.9699 18.248 26.4677C18.3662 25.995 18.6616 25.4928 19.1047 25.0201C19.1933 24.961 19.2229 24.8724 19.2229 24.7542C19.2229 24.6656 19.1933 24.5769 19.1047 24.5179L18.0117 23.3952C17.9231 23.3361 17.8344 23.2771 17.7458 23.2771L17.7456 23.2769ZM12.0145 26.6743C13.078 26.6743 14.0235 27.0879 14.7325 27.7969C15.4119 28.4763 15.8551 29.4512 15.8551 30.5149C15.8551 31.5783 15.412 32.5238 14.7325 33.2328C14.0235 33.9122 13.0782 34.3555 12.0145 34.3555C10.9511 34.3555 9.97616 33.9124 9.29659 33.2328C8.58758 32.5238 8.17394 31.5785 8.17394 30.5149C8.17394 29.4514 8.58758 28.4765 9.29659 27.7969C9.97598 27.0879 10.9509 26.6743 12.0145 26.6743ZM14.2006 28.2991C13.6394 27.7379 12.8712 27.4129 12.0145 27.4129C11.1578 27.4129 10.3602 27.7378 9.79884 28.2991C9.23759 28.8604 8.91255 29.6581 8.91255 30.5148C8.91255 31.3715 9.23747 32.1397 9.79884 32.7009C10.3601 33.2622 11.1578 33.6167 12.0145 33.6167C12.8712 33.6167 13.6394 33.2622 14.2006 32.7009C14.7619 32.1397 15.1164 31.3715 15.1164 30.5148C15.1164 29.6581 14.7619 28.8605 14.2006 28.2991Z" fill="white"/>
</svg>
