<svg width="18" height="18" viewBox="0 0 18 18" fill="none" xmlns="http://www.w3.org/2000/svg">
<path d="M10.4462 0.750053H7.92218C7.60396 0.750053 7.29872 0.87645 7.07368 1.10147C6.84865 1.3265 6.72212 1.63176 6.72212 1.95012V2.66608H2.64997C2.42912 2.66608 2.25 2.84521 2.25 3.06605V6.26613C2.25 6.37216 2.29213 6.47386 2.36719 6.54891C2.44224 6.62397 2.54394 6.6661 2.64997 6.6661H3.92997V14.85C3.92997 15.4865 4.1829 16.097 4.63298 16.547C5.08305 16.9972 5.69351 17.25 6.33012 17.25H12.038C12.6746 17.25 13.2851 16.9973 13.7351 16.547C14.1852 16.097 14.4381 15.4865 14.4381 14.85V6.6661H15.7181C15.8242 6.6661 15.9259 6.62397 16.0009 6.54891C16.076 6.47386 16.1181 6.37216 16.1181 6.26613V3.06605C16.1181 2.96002 16.076 2.85818 16.0009 2.78326C15.9259 2.70821 15.8242 2.66608 15.7181 2.66608H11.646V1.95011C11.646 1.63175 11.5195 1.3265 11.2944 1.10147C11.0694 0.876439 10.7641 0.750046 10.4459 0.750046L10.4462 0.750053ZM7.52418 1.95013C7.52418 1.72914 7.70331 1.55002 7.92415 1.55002H10.4462C10.5522 1.55002 10.6541 1.59215 10.729 1.6672C10.804 1.74226 10.8462 1.84396 10.8462 1.95013V2.6661H7.52223L7.52418 1.95013ZM13.6381 14.8501C13.6381 15.2745 13.4696 15.6815 13.1695 15.9814C12.8694 16.2815 12.4625 16.4502 12.0381 16.4502H6.33021C5.90582 16.4502 5.49889 16.2815 5.19878 15.9814C4.8987 15.6815 4.73018 15.2745 4.73018 14.8501V6.66621H13.6381L13.6381 14.8501ZM15.3181 5.86799H3.05021V3.46802H15.3184L15.3181 5.86799Z" fill="black"/>
<path d="M7.18316 13.8579C7.28919 13.8579 7.39103 13.8158 7.46595 13.7407C7.541 13.6658 7.58313 13.564 7.58313 13.458V9.2001C7.58313 8.97911 7.40414 8.79999 7.18317 8.79999C6.96219 8.79999 6.7832 8.97912 6.7832 9.2001V13.458C6.7832 13.564 6.82533 13.6658 6.90039 13.7407C6.97531 13.8158 7.07715 13.8579 7.18318 13.8579H7.18316Z" fill="black"/>
<path d="M11.1832 13.8579C11.2892 13.8579 11.391 13.8158 11.4659 13.7407C11.541 13.6658 11.5831 13.564 11.5831 13.458V9.2001C11.5831 8.97911 11.4041 8.79999 11.1832 8.79999C10.9622 8.79999 10.7832 8.97912 10.7832 9.2001V13.458C10.7832 13.564 10.8253 13.6658 10.9004 13.7407C10.9753 13.8158 11.0771 13.8579 11.1832 13.8579H11.1832Z" fill="black"/>
</svg>
