<svg width="24" height="64" viewBox="0 0 24 64" fill="none" xmlns="http://www.w3.org/2000/svg">
<path fill-rule="evenodd" clip-rule="evenodd" d="M1.5 1C1.5 0.723858 1.27614 0.5 1 0.5C0.723858 0.5 0.5 0.723858 0.5 1V5V17V55C0.5 59.6944 4.30558 63.5 9 63.5H23C23.2761 63.5 23.5 63.2761 23.5 63C23.5 62.7239 23.2761 62.5 23 62.5H9C4.85786 62.5 1.5 59.1421 1.5 55V21.0036C2.93143 23.6795 5.75311 25.5 9 25.5H23C23.2761 25.5 23.5 25.2761 23.5 25C23.5 24.7239 23.2761 24.5 23 24.5H9C4.85786 24.5 1.5 21.1421 1.5 17V5V1Z" fill="#3A3A3A"/>
</svg>
