<svg width="13" height="13" viewBox="0 0 13 13" fill="none" xmlns="http://www.w3.org/2000/svg">
<path d="M1.08312 5.73758V11.3464C1.08312 11.9679 1.59002 12.4584 2.21147 12.4584H10.7801C11.4015 12.4584 11.9085 11.9515 11.9085 11.3464L11.9084 5.73758C11.9084 5.11616 11.4015 4.62567 10.78 4.62567H8.49073C8.2618 4.62567 8.08192 4.80555 8.08192 5.03448C8.08192 5.26341 8.2618 5.44329 8.49073 5.44329H10.78C10.9436 5.44329 11.0907 5.57412 11.0907 5.73758V11.3464C11.0907 11.51 10.9599 11.6407 10.78 11.6407L2.21135 11.6408C2.04778 11.6408 1.90063 11.51 1.90063 11.3466V5.73769C1.90063 5.57412 2.03146 5.44341 2.21135 5.44341H4.17361C4.40254 5.44341 4.58242 5.26352 4.58242 5.0346C4.58242 4.80567 4.40254 4.62579 4.17361 4.62579H2.21135C1.58993 4.62579 1.08301 5.13268 1.08301 5.73769L1.08312 5.73758Z" fill="#808080"/>
<path d="M6.41393 9.35144C6.64285 9.35144 6.82274 9.17156 6.82274 8.94263V1.76393L8.5725 3.08844C8.65429 3.13749 8.73607 3.17023 8.81774 3.17023C8.94857 3.17023 9.06298 3.12118 9.14476 3.00666C9.27559 2.82678 9.24286 2.56511 9.06297 2.43427L6.65929 0.61915H6.64298C6.64298 0.61915 6.62667 0.602839 6.61024 0.602839C6.59393 0.602839 6.5775 0.586528 6.5775 0.586528C6.56119 0.586528 6.56119 0.586528 6.54477 0.570216C6.52846 0.570216 6.51203 0.553905 6.49572 0.553905H6.46298C6.41393 0.537594 6.36488 0.537594 6.31584 0.553905H6.2831C6.26679 0.553905 6.25036 0.570216 6.23405 0.570216C6.21774 0.570216 6.21774 0.570216 6.20131 0.586528C6.185 0.586528 6.16858 0.602839 6.16858 0.602839C6.15227 0.602839 6.15226 0.61915 6.13584 0.61915H6.11953L3.76487 2.45071C3.58499 2.58154 3.55225 2.84319 3.68308 3.0231C3.81392 3.20298 4.07557 3.23571 4.25548 3.10488L6.00513 1.76393V8.94263C6.00513 9.17156 6.18501 9.35144 6.41394 9.35144H6.41393Z" fill="#808080"/>
</svg>
