<svg width="24" height="24" viewBox="0 0 24 24" fill="none" xmlns="http://www.w3.org/2000/svg">
<path fill-rule="evenodd" clip-rule="evenodd" d="M7.72998 11.45C5.11918 11.45 3 13.5691 3 16.1799V21.4049C3 22.279 3.72097 23 4.59507 23H19.225C20.0991 23 20.8201 22.279 20.8201 21.4049V16.1799C20.8201 13.5691 18.701 11.45 16.0901 11.45H7.72998ZM7.72998 12.5499H16.09C18.1104 12.5499 19.7199 14.1594 19.7199 16.1799V21.4048C19.7199 21.6886 19.5085 21.8999 19.2248 21.8999H4.59484C4.31109 21.8999 4.09976 21.6886 4.09976 21.4048V16.1799C4.09976 14.1594 5.70925 12.5499 7.72967 12.5499H7.72998Z" fill="#9C9C9C"/>
<path fill-rule="evenodd" clip-rule="evenodd" d="M11.9097 1C9.30394 1 7.17969 3.12386 7.17969 5.72959C7.17969 8.33532 9.30386 10.4596 11.9097 10.4596C14.5155 10.4596 16.6397 8.3354 16.6397 5.72959C16.6397 3.12378 14.5155 1 11.9097 1V1ZM11.9097 2.1C13.9209 2.1 15.5396 3.71837 15.5396 5.72963C15.5396 7.74089 13.9209 9.35954 11.9097 9.35954C9.89845 9.35954 8.27976 7.74085 8.27976 5.72963C8.27976 3.7184 9.89845 2.1 11.9097 2.1Z" fill="#9C9C9C"/>
</svg>