<svg width="18" height="12" viewBox="0 0 18 12" fill="none" xmlns="http://www.w3.org/2000/svg">
<path d="M9.03356 -2.28882e-05C5.65667 -2.28882e-05 2.49501 1.99073 0.107573 5.60746C0.0429094 5.71953 0 5.85975 0 5.99998C0 6.1402 0.0430593 6.28043 0.129028 6.39249C2.51646 10.0092 5.6782 12 9.03351 12C12.3243 12 15.4645 10.0092 17.895 6.36445C18.0456 6.14013 18.024 5.83169 17.895 5.63553C15.4645 1.99061 12.3028 6.90623e-06 9.03351 6.90623e-06L9.03356 -2.28882e-05ZM9.03356 10.8785C6.02246 10.8785 3.18328 9.14023 1.01093 5.99994C3.18324 2.85979 6.02239 1.12137 9.03356 1.12137C11.9587 1.12137 14.7548 2.85964 16.9917 5.99994C14.7547 9.14008 11.9587 10.8785 9.03356 10.8785Z" fill="black"/>
<path d="M8.98993 1.7943C7.20474 1.7943 5.76367 3.67281 5.76367 5.99992C5.76367 8.32703 7.20474 10.2055 8.98993 10.2055C10.7751 10.2055 12.2162 8.32703 12.2162 5.99992C12.2162 3.67281 10.7751 1.7943 8.98993 1.7943ZM8.98993 9.08404C7.67792 9.08404 6.62393 7.71015 6.62393 5.99982C6.62393 4.28948 7.67788 2.9156 8.98993 2.9156C10.302 2.9156 11.3559 4.28948 11.3559 5.99982C11.3559 7.71015 10.302 9.08404 8.98993 9.08404Z" fill="black"/>
</svg>
