<svg width="40" height="40" viewBox="0 0 40 40" fill="none" xmlns="http://www.w3.org/2000/svg">
<path d="M20.4762 5C19.4858 5 18.5713 5.49621 18.0638 6.34617L2.5238 32.4417C2.01628 33.294 2.01538 34.3492 2.5238 35.2006C3.02061 36.0321 3.91696 36.5626 4.90937 36.5602H36.0427C37.0351 36.5644 37.9315 36.0322 38.4283 35.2006C38.937 34.3492 38.9361 33.294 38.4283 32.4417L22.8883 6.34617C22.381 5.49655 21.4662 5 20.4759 5H20.4762ZM20.4762 6.70578C20.843 6.70578 21.25 6.93663 21.4225 7.2255L36.9626 33.3081C37.1351 33.5975 37.1354 34.0316 36.9626 34.321C36.7778 34.6301 36.4104 34.855 36.043 34.8541H4.90967C4.54227 34.8541 4.17487 34.6301 3.99014 34.321C3.8173 34.0316 3.8179 33.5975 3.99014 33.3081L19.5302 7.2255C19.7027 6.93663 20.1097 6.70578 20.4765 6.70578H20.4762ZM20.4762 15.662C20.005 15.662 19.6233 16.0439 19.6233 16.5148V26.7505C19.6233 27.2217 20.0053 27.6034 20.4762 27.6034C20.9474 27.6034 21.3291 27.2214 21.3291 26.7505V16.5148C21.3291 16.0436 20.9471 15.662 20.4762 15.662ZM20.4762 29.3095C19.7697 29.3095 19.1967 29.8824 19.1967 30.589C19.1967 31.2955 19.7696 31.8685 20.4762 31.8685C21.1828 31.8685 21.7557 31.2958 21.7557 30.589C21.7557 29.8824 21.1828 29.3095 20.4762 29.3095Z" fill="#000000"/>
</svg>
