<svg width="20" height="20" viewBox="0 0 20 20" fill="none" xmlns="http://www.w3.org/2000/svg">
<path d="M10 2.5C9.4823 2.5 9.06246 2.91983 9.06246 3.43754V9.06246H3.43754C2.91984 9.06246 2.5 9.48207 2.5 10C2.5 10.5177 2.91983 10.9375 3.43754 10.9375H9.06246V16.5625C9.06246 17.0802 9.48228 17.5 10 17.5C10.5177 17.5 10.9375 17.0802 10.9375 16.5625V10.9375H16.5625C17.0802 10.9375 17.5 10.5177 17.5 10C17.5 9.48228 17.0802 9.06246 16.5625 9.06246H10.9375V3.43754C10.9375 2.91984 10.5179 2.5 10 2.5Z" fill="black"/>
</svg>
