<svg width="22" height="22" viewBox="0 0 22 22" fill="none" xmlns="http://www.w3.org/2000/svg">
<path d="M20.9504 20.2817L14.492 13.8233C15.8291 12.3122 16.5253 10.3399 16.433 8.32415C16.3407 6.30852 15.4671 4.40804 13.9975 3.02538C12.5279 1.64272 10.5776 0.88673 8.56001 0.917596C6.54249 0.948318 4.61645 1.76348 3.18964 3.19017C1.7628 4.61702 0.947634 6.54324 0.916917 8.56091C0.886195 10.5784 1.64208 12.5286 3.0247 13.9984C4.40736 15.468 6.30777 16.3416 8.32347 16.4339C10.3391 16.5262 12.3116 15.83 13.8226 14.4929L20.281 20.9513C20.467 21.13 20.7617 21.1271 20.944 20.9448C21.1263 20.7625 21.1291 20.4677 20.9504 20.2817ZM3.84287 13.499C2.88803 12.5443 2.23777 11.3278 1.97433 10.0033C1.71088 8.67896 1.84608 7.30617 2.36287 6.05866C2.87965 4.81108 3.7548 3.74479 4.87743 2.9947C6.00026 2.24446 7.32029 1.84406 8.67075 1.84406C10.0211 1.84406 11.3411 2.24446 12.4637 2.9947C13.5865 3.74479 14.4616 4.81108 14.9783 6.05866C15.495 7.30624 15.6302 8.67904 15.3668 10.0033C15.1033 11.3277 14.4531 12.5443 13.4983 13.499C12.2169 14.7776 10.4808 15.4957 8.67064 15.4957C6.86046 15.4957 5.1241 14.7776 3.84287 13.499ZM12.9275 8.67139C12.9277 8.79689 12.8778 8.91732 12.789 9.00615C12.7003 9.09498 12.5799 9.14483 12.4544 9.14483H9.14394C8.70768 9.14483 8.34603 9.14483 8.19749 9.14483H4.88731C4.75935 9.14875 4.63501 9.10078 4.54313 9.01151C4.45111 8.92239 4.39909 8.79979 4.39909 8.67153C4.39909 8.54343 4.45111 8.42083 4.54313 8.33156C4.63501 8.24244 4.75935 8.19433 4.88731 8.19838H8.19749C8.5 8.19838 8.79362 8.19838 9.14394 8.19812H12.4544C12.7157 8.19812 12.9275 8.40996 12.9275 8.67139Z" fill="black"/>
</svg>
